<svg width="29" height="25" viewBox="0 0 29 25" fill="none" xmlns="http://www.w3.org/2000/svg">
<g clip-path="url(#clip0_53_2127)">
<path d="M28.1152 12.4756C28.1152 13.3545 27.3828 14.043 26.5527 14.043H24.9902L25.0244 21.8604C25.0293 23.5938 23.6279 25 21.8994 25H6.25488C4.52881 25 3.12939 23.5986 3.12939 21.875V14.043H1.56494C0.68457 14.043 0 13.3545 0 12.4756C0 12.0361 0.14668 11.6455 0.48877 11.3037L13.0078 0.391406C13.3496 0.0489258 13.7402 0 14.082 0C14.4238 0 14.8145 0.0978515 15.1123 0.34248L27.5781 11.3037C27.9688 11.6455 28.1689 12.0361 28.1152 12.4756ZM14.0625 7.8125C12.3389 7.8125 10.9375 9.21387 10.9375 10.9375C10.9375 12.6611 12.3389 14.0625 14.0625 14.0625C15.7861 14.0625 17.1875 12.6611 17.1875 10.9375C17.1875 9.21387 15.7861 7.8125 14.0625 7.8125ZM12.5 15.625C10.3418 15.625 8.59375 17.373 8.59375 19.5312C8.59375 19.9609 8.94531 20.3125 9.375 20.3125H18.75C19.1797 20.3125 19.5312 19.9609 19.5312 19.5312C19.5312 17.373 17.7832 15.625 15.625 15.625H12.5Z" fill="#FFCF23"/>
</g>
<defs>
<clipPath id="clip0_53_2127">
<rect width="28.125" height="25" fill="white"/>
</clipPath>
</defs>
</svg>
