<svg width="25" height="34" viewBox="0 0 25 34" fill="none" xmlns="http://www.w3.org/2000/svg">
<path d="M18.7516 23.3289C19.6619 22.8023 19.893 21.373 20.632 20.634C21.371 19.895 22.8002 19.6652 23.3269 18.7543C23.8465 17.8564 23.3377 16.5054 23.6117 15.4799C23.8758 14.487 24.9436 13.5754 24.9436 12.5011C24.9436 11.4268 23.8192 10.514 23.5542 9.52365C23.2802 8.49816 23.7893 7.14713 23.27 6.24926C22.7435 5.33902 21.3147 5.10853 20.5757 4.36953C19.8367 3.63054 19.6062 2.20137 18.696 1.67463C17.7981 1.15512 16.4471 1.66397 15.4216 1.38977C14.4869 1.12445 13.5754 0 12.5011 0C11.4268 0 10.5152 1.12445 9.52555 1.38945C8.49681 1.66291 7.14903 1.1544 6.24921 1.67333C5.33897 2.20007 5.10848 3.62923 4.36948 4.36758C3.63114 5.10658 2.20132 5.33707 1.67458 6.24731C1.155 7.14257 1.66416 8.49686 1.39005 9.51909C1.1244 10.5153 0 11.4268 0 12.5011C0 13.5754 1.12445 14.4883 1.38945 15.4786C1.66337 16.5041 1.15408 17.8551 1.67339 18.753C2.20067 19.6632 3.62918 19.8911 4.36753 20.6334C5.10653 21.3724 5.33702 22.8015 6.24791 23.3289C7.14578 23.8484 8.49616 23.3392 9.52164 23.6134C10.5152 23.8759 11.4268 25.0023 12.5011 25.0023C13.5754 25.0023 14.4882 23.8778 15.4792 23.6128C16.5053 23.342 17.8531 23.8498 18.7516 23.3289ZM7.29227 12.5011C7.29227 9.61871 9.62387 7.29233 12.5011 7.29233C15.3783 7.29233 17.7099 9.61871 17.7099 12.5011C17.7099 15.377 15.3783 17.7099 12.5011 17.7099C9.62387 17.7099 7.29227 15.379 7.29227 12.5011ZM0.111872 28.2057C-0.0997356 28.7388 -0.00408894 29.3438 0.364174 29.7846C0.732436 30.2241 1.31022 30.429 1.86952 30.3151L4.81184 29.7268L6.20715 32.479C6.47579 33.0108 7.00579 33.3363 7.59829 33.3363C7.62068 33.3363 7.64153 33.3356 7.66392 33.3346C8.28247 33.3101 8.81311 32.9386 9.04686 32.3657L11.2333 27.0215C7.73619 26.7194 4.59203 25.1906 2.23505 22.8577L0.111872 28.2057ZM22.7624 22.8601C20.4087 25.193 17.2639 26.7218 13.7642 27.0239L15.9506 32.3682C16.1846 32.9409 16.715 33.3123 17.3335 33.337C17.3583 33.2777 17.3257 33.3363 17.4039 33.3363C17.996 33.3363 18.5257 33.0126 18.794 32.4808L20.1893 29.7279L23.1316 30.3162C23.6912 30.4302 24.2691 30.2252 24.6369 29.7857C25.0052 29.3452 25.1009 28.74 24.8892 28.2068L22.7624 22.8601Z" fill="#7F7F7F"/>
</svg>
