<svg width="25" height="25" viewBox="0 0 25 25" fill="none" xmlns="http://www.w3.org/2000/svg">
<path d="M24.2138 8.13477C24.3749 8.55469 24.2382 9.02832 23.9062 9.33594L21.7919 11.2598C21.8456 11.665 21.8749 12.0801 21.8749 12.5C21.8749 12.9199 21.8456 13.335 21.7919 13.7402L23.9062 15.6641C24.2382 15.9717 24.3749 16.4453 24.2138 16.8652C23.9989 17.4463 23.7402 18.0078 23.4472 18.54L23.2177 18.9355C22.8954 19.4727 22.5341 19.9805 22.1386 20.4639C21.8456 20.8105 21.372 20.9326 20.9423 20.7959L18.2226 19.9268C17.5683 20.4297 16.8017 20.8496 16.0741 21.1719L15.4638 23.96C15.3661 24.3994 15.0243 24.7119 14.5751 24.8291C13.9013 24.9414 13.2079 25 12.456 25C11.7919 25 11.0985 24.9414 10.4247 24.8291C9.9755 24.7119 9.6337 24.3994 9.53605 23.96L8.92569 21.1719C8.15421 20.8496 7.43155 20.4297 6.77725 19.9268L4.05948 20.7959C3.62784 20.9326 3.15176 20.8105 2.8627 20.4639C2.4667 19.9805 2.10538 19.4727 1.78311 18.9355L1.55459 18.54C1.25821 18.0078 1.00039 17.4463 0.784086 16.8652C0.625883 16.4453 0.759184 15.9717 1.09414 15.6641L3.20645 13.7402C3.15274 13.335 3.12491 12.9199 3.12491 12.5C3.12491 12.0801 3.15274 11.665 3.20645 11.2598L1.09414 9.33594C0.759184 9.02832 0.625883 8.55957 0.784086 8.13477C1.00039 7.55371 1.2587 6.99219 1.55459 6.45996L1.78262 6.06445C2.10538 5.52734 2.4667 5.01953 2.8627 4.53857C3.15176 4.18945 3.62784 4.06836 4.05948 4.20605L6.77725 5.07324C7.43155 4.56836 8.15421 4.14844 8.92569 3.82959L9.53605 1.0415C9.6337 0.598145 9.9755 0.246094 10.4247 0.171387C11.0985 0.0586426 11.7919 0 12.4999 0C13.2079 0 13.9013 0.0586426 14.5751 0.171387C15.0243 0.246094 15.3661 0.598145 15.4638 1.0415L16.0741 3.82959C16.8017 4.14844 17.5683 4.56836 18.2226 5.07324L20.9423 4.20605C21.372 4.06836 21.8456 4.18945 22.1386 4.53857C22.5341 5.01953 22.8954 5.52734 23.2177 6.06445L23.4472 6.45996C23.7402 6.99219 23.9989 7.55371 24.2138 8.13477ZM12.4999 16.4062C14.6581 16.4062 16.4062 14.6582 16.4062 12.4561C16.4062 10.3418 14.6581 8.5498 12.4999 8.5498C10.3417 8.5498 8.59366 10.3418 8.59366 12.4561C8.59366 14.6582 10.3417 16.4062 12.4999 16.4062Z" fill="#7F7F7F"/>
</svg>
