<svg width="99" height="27" viewBox="0 0 99 27" fill="none" xmlns="http://www.w3.org/2000/svg">
<path d="M3.10326 16.5003C1.2757 18.937 1.76954 22.3939 4.20629 24.2215C6.64304 26.049 10.0999 25.5552 11.9275 23.1185L3.10326 16.5003ZM88.7136 23.9689C90.6301 26.3363 94.1029 26.7019 96.4704 24.7854C98.8378 22.8689 99.2034 19.3961 97.2869 17.0286L88.7136 23.9689ZM75.9311 7.84111L80.52 10.9004L75.9311 7.84111ZM69.0223 18.2043L64.4334 15.1451L69.0223 18.2043ZM60.4479 18.2043L65.0368 15.1451L60.4479 18.2043ZM53.7099 8.09736L58.2988 5.0381L53.7099 8.09736ZM46.1017 7.88618L41.6896 4.57709L46.1017 7.88618ZM30.1373 17.298L25.4081 20.1355L30.1373 17.298ZM24.8783 8.53288L29.6075 5.69536L24.8783 8.53288ZM16.3045 8.09059L11.8923 4.7815L16.3045 8.09059ZM11.9275 23.1185L20.7166 11.3997L11.8923 4.7815L3.10326 16.5003L11.9275 23.1185ZM20.1491 11.3704L25.4081 20.1355L34.8665 14.4604L29.6075 5.69536L20.1491 11.3704ZM43.1233 21.0493L50.5138 11.1953L41.6896 4.57709L34.299 14.4312L43.1233 21.0493ZM49.121 11.1566L55.859 21.2636L65.0368 15.1451L58.2988 5.0381L49.121 11.1566ZM78.2205 11.0068L88.7136 23.9689L97.2869 17.0286L86.7938 4.06656L78.2205 11.0068ZM73.6112 21.2636L80.52 10.9004L71.3422 4.78185L64.4334 15.1451L73.6112 21.2636ZM79.3311 11.5366C78.8999 11.5366 78.4918 11.3419 78.2205 11.0068L86.7938 4.06656C84.9708 1.81465 82.2284 0.506333 79.3311 0.506333V11.5366ZM79.3311 0.506333C76.1208 0.506333 73.1229 2.11074 71.3422 4.78185L80.52 10.9004C80.255 11.2979 79.8088 11.5366 79.3311 11.5366V0.506333ZM64.7351 26.0139C68.3019 26.0139 71.6327 24.2313 73.6112 21.2636L64.4334 15.1451C64.5006 15.0442 64.6139 14.9836 64.7351 14.9836V26.0139ZM55.859 21.2636C57.8375 24.2313 61.1683 26.0139 64.7351 26.0139V14.9836C64.8563 14.9836 64.9695 15.0442 65.0368 15.1451L55.859 21.2636ZM49.8311 11.5366C49.5458 11.5366 49.2793 11.394 49.121 11.1566L58.2988 5.0381C56.4113 2.2069 53.2338 0.506333 49.8311 0.506333V11.5366ZM50.5138 11.1953C50.3527 11.4102 50.0997 11.5366 49.8311 11.5366V0.506333C46.6279 0.506333 43.6115 2.01449 41.6896 4.57709L50.5138 11.1953ZM34.5729 25.3245C37.937 25.3245 41.1048 23.7406 43.1233 21.0493L34.299 14.4312C34.3637 14.345 34.4652 14.2942 34.5729 14.2942V25.3245ZM25.4081 20.1355C27.3397 23.3547 30.8187 25.3245 34.5729 25.3245V14.2942C34.6932 14.2942 34.8047 14.3573 34.8665 14.4604L25.4081 20.1355ZM20.4427 11.5366C20.3224 11.5366 20.211 11.4735 20.1491 11.3704L29.6075 5.69536C27.6759 2.4761 24.1969 0.506333 20.4427 0.506333V11.5366ZM20.7166 11.3997C20.6519 11.4859 20.5504 11.5366 20.4427 11.5366V0.506333C17.0786 0.506333 13.9108 2.09022 11.8923 4.7815L20.7166 11.3997Z" fill="black"/>
<path d="M2 19.8094L10.7891 8.09059C11.766 6.78806 13.2991 6.02148 14.9273 6.02148V6.02148C16.7443 6.02148 18.4281 6.97482 19.3629 8.53288L24.6219 17.298C25.5568 18.856 27.2406 19.8094 29.0576 19.8094V19.8094C30.6857 19.8094 32.2189 19.0428 33.1958 17.7403L40.5863 7.88618C41.4667 6.71233 42.8484 6.02148 44.3157 6.02148V6.02148C45.8744 6.02148 47.3299 6.80047 48.1945 8.09736L54.9325 18.2043C55.8881 19.6378 57.4969 20.4988 59.2197 20.4988V20.4988C60.9425 20.4988 62.5513 19.6378 63.5069 18.2043L70.4157 7.84111C71.1736 6.70431 72.4494 6.02148 73.8157 6.02148V6.02148C75.0488 6.02148 76.2159 6.57829 76.9917 7.53669L87.4849 20.4988" stroke="#FFCF23" stroke-width="2.75758" stroke-linecap="round"/>
</svg>
