<svg width="380" height="265" viewBox="0 0 380 265" fill="none" xmlns="http://www.w3.org/2000/svg">
<g clip-path="url(#clip0_20_903)">
<path d="M324.429 53.338C324.429 53.338 306.234 18.7128 266.061 13.5835C225.888 8.4541 197.83 33.4645 168.268 46.2917C152.781 53.0122 135.102 50.4059 118.665 53.6562C66.1083 64.0513 46.306 129.18 68.2022 166.23C87.152 198.294 120.505 214.97 171.297 218.819C222.089 222.668 257.715 227.153 303.205 195.733C348.695 164.313 345.652 98.8811 324.429 53.338Z" fill="#FFF0BA"/>
<path d="M190.298 264.686C272.611 264.686 339.339 257.98 339.339 249.707C339.339 241.434 272.611 234.728 190.298 234.728C107.985 234.728 41.2571 241.434 41.2571 249.707C41.2571 257.98 107.985 264.686 190.298 264.686Z" fill="#FFCF23"/>
<path opacity="0.5" d="M190.298 264.686C272.611 264.686 339.339 257.98 339.339 249.707C339.339 241.434 272.611 234.728 190.298 234.728C107.985 234.728 41.2571 241.434 41.2571 249.707C41.2571 257.98 107.985 264.686 190.298 264.686Z" fill="white"/>
<path d="M337.973 171.812H59.7828V174.38H337.973V171.812Z" fill="#2E353A"/>
<path d="M255.364 140.468C255.911 140.611 256.475 140.672 257.04 140.65C257.04 140.65 256.785 139.892 256.763 139.816C256.501 139.271 255.679 138.361 255.013 138.452C254.902 138.47 254.795 138.51 254.701 138.573C254.606 138.635 254.526 138.717 254.465 138.813C254.404 138.909 254.364 139.017 254.348 139.13C254.331 139.243 254.339 139.358 254.37 139.468C254.454 139.697 254.587 139.906 254.758 140.079C254.93 140.251 255.137 140.384 255.364 140.468Z" fill="#2E353A"/>
<path d="M270.913 136.353C270.24 136.277 269.418 137.209 269.201 137.762C269.201 137.815 268.932 138.603 268.947 138.603L268.543 139.088C268.274 139.414 267.982 139.785 267.69 140.209C267.37 140.667 267.075 141.142 266.808 141.634C266.51 142.181 266.26 142.754 266.06 143.346C266.06 143.141 266.06 142.588 266.06 142.543C265.978 141.937 265.477 140.808 264.819 140.686C264.708 140.668 264.595 140.674 264.487 140.703C264.378 140.732 264.278 140.784 264.191 140.856C264.104 140.928 264.033 141.017 263.982 141.118C263.932 141.22 263.904 141.331 263.899 141.444C263.905 141.69 263.966 141.931 264.076 142.15C264.186 142.368 264.342 142.56 264.534 142.709C264.995 143.019 265.5 143.256 266.03 143.414C265.837 144.021 265.687 144.641 265.581 145.27C265.522 145.634 265.462 146.028 265.417 146.377C265.417 146.202 265.417 146.051 265.417 146.028C265.335 145.422 264.834 144.301 264.175 144.179C264.065 144.162 263.952 144.169 263.843 144.198C263.735 144.228 263.634 144.28 263.547 144.351C263.46 144.423 263.388 144.511 263.337 144.612C263.285 144.713 263.255 144.824 263.248 144.937C263.259 145.182 263.321 145.423 263.433 145.641C263.544 145.86 263.7 146.051 263.891 146.202C264.353 146.506 264.857 146.738 265.387 146.892C265.387 147.028 265.35 147.172 265.335 147.316C265.252 148.006 265.178 148.687 265.08 149.354C265.08 149.597 265.006 149.824 264.961 150.059C264.967 149.958 264.967 149.857 264.961 149.756C264.886 149.15 264.385 148.021 263.719 147.899C263.609 147.881 263.496 147.887 263.387 147.916C263.279 147.945 263.178 147.997 263.091 148.069C263.004 148.14 262.934 148.23 262.883 148.331C262.833 148.433 262.804 148.544 262.799 148.657C262.809 148.903 262.872 149.143 262.983 149.362C263.094 149.58 263.251 149.772 263.443 149.922C263.878 150.221 264.358 150.449 264.863 150.597C264.819 150.832 264.766 151.066 264.706 151.294C264.675 151.447 264.635 151.599 264.587 151.748C264.534 151.9 264.49 152.051 264.437 152.203C264.34 152.483 264.235 152.779 264.131 153.052L263.914 153.597C263.951 153.362 264.011 152.908 264.011 152.839C264.008 152.306 263.866 151.784 263.6 151.324C263.607 151.264 263.607 151.203 263.6 151.142C263.586 151.03 263.549 150.922 263.491 150.825C263.433 150.728 263.356 150.645 263.264 150.581C263.172 150.516 263.068 150.472 262.959 150.452C262.849 150.431 262.736 150.434 262.627 150.46C261.977 150.635 261.558 151.794 261.528 152.4C261.528 152.438 261.528 152.832 261.573 153.074C261.536 152.938 261.506 152.794 261.468 152.65C261.401 152.354 261.326 152.067 261.244 151.756L261.109 151.301C261.065 151.15 261.005 150.998 260.952 150.839C260.825 150.483 260.676 150.127 260.519 149.771C261.043 149.661 261.548 149.47 262.014 149.203C262.218 149.067 262.391 148.889 262.52 148.68C262.649 148.47 262.732 148.235 262.762 147.99C262.766 147.877 262.745 147.764 262.703 147.658C262.66 147.553 262.597 147.458 262.515 147.379C262.434 147.301 262.338 147.24 262.232 147.202C262.126 147.164 262.014 147.148 261.902 147.157C261.229 147.233 260.646 148.316 260.526 148.915C260.526 148.953 260.481 149.392 260.459 149.627C260.362 149.415 260.272 149.203 260.167 148.99C259.868 148.384 259.546 147.771 259.225 147.164L258.933 146.604C259.48 146.488 260.006 146.291 260.496 146.02C260.701 145.884 260.874 145.705 261.003 145.494C261.132 145.284 261.214 145.047 261.244 144.801C261.246 144.688 261.225 144.575 261.182 144.471C261.139 144.367 261.075 144.273 260.994 144.195C260.914 144.117 260.817 144.057 260.712 144.019C260.607 143.981 260.495 143.966 260.384 143.975C259.711 144.051 259.128 145.134 259.008 145.733C259.008 145.778 258.941 146.407 258.933 146.566C258.724 146.157 258.514 145.74 258.328 145.331C258.073 144.77 257.853 144.193 257.669 143.603C258.219 143.49 258.748 143.294 259.24 143.02C259.445 142.884 259.618 142.705 259.747 142.494C259.876 142.283 259.958 142.046 259.988 141.8C259.99 141.687 259.969 141.574 259.926 141.469C259.882 141.364 259.817 141.269 259.736 141.191C259.654 141.114 259.557 141.054 259.451 141.017C259.345 140.979 259.232 140.965 259.12 140.974C258.455 141.05 257.871 142.134 257.752 142.732C257.752 142.778 257.677 143.49 257.677 143.581C257.668 143.544 257.655 143.509 257.64 143.475C257.472 142.88 257.36 142.272 257.303 141.656C257.266 141.315 257.243 140.99 257.236 140.671C257.782 140.623 258.317 140.488 258.821 140.27C259.035 140.156 259.223 139.997 259.371 139.804C259.52 139.61 259.625 139.387 259.681 139.148C259.696 139.037 259.688 138.924 259.657 138.817C259.627 138.709 259.575 138.609 259.505 138.522C259.435 138.435 259.348 138.364 259.25 138.313C259.151 138.262 259.044 138.231 258.933 138.224C258.26 138.224 257.565 139.239 257.378 139.815C257.378 139.815 257.303 140.179 257.258 140.421C257.258 140.277 257.258 140.133 257.258 139.997C257.258 139.474 257.258 139.004 257.318 138.588C257.318 138.345 257.363 138.133 257.385 137.929C257.845 137.631 258.256 137.263 258.604 136.838C258.744 136.636 258.839 136.407 258.881 136.164C258.924 135.922 258.914 135.674 258.851 135.436C258.814 135.329 258.755 135.23 258.677 135.148C258.6 135.066 258.506 135.001 258.402 134.958C258.298 134.915 258.187 134.895 258.075 134.899C257.962 134.903 257.852 134.931 257.752 134.981C257.153 135.292 257.004 136.497 257.094 137.118C257.094 137.171 257.333 137.966 257.34 137.966C257.34 138.163 257.288 138.368 257.266 138.595C257.221 139.012 257.176 139.489 257.168 140.005C257.148 140.566 257.161 141.127 257.206 141.687C257.253 142.311 257.355 142.93 257.512 143.535C257.408 143.361 257.094 142.899 257.064 142.869C256.667 142.406 255.643 141.747 255.022 142.02C254.92 142.066 254.828 142.134 254.754 142.218C254.679 142.303 254.623 142.402 254.589 142.51C254.555 142.618 254.544 142.733 254.557 142.845C254.57 142.958 254.606 143.067 254.663 143.164C254.805 143.364 254.988 143.53 255.2 143.65C255.412 143.77 255.647 143.842 255.89 143.861C256.448 143.859 257.002 143.772 257.535 143.603C257.706 144.217 257.921 144.817 258.178 145.399C258.32 145.74 258.477 146.081 258.642 146.414C258.544 146.27 258.455 146.149 258.44 146.134C258.043 145.672 257.019 145.013 256.398 145.278C256.296 145.325 256.204 145.393 256.129 145.478C256.055 145.564 255.999 145.664 255.965 145.773C255.931 145.881 255.92 145.996 255.933 146.109C255.946 146.222 255.982 146.331 256.039 146.43C256.182 146.628 256.366 146.793 256.577 146.913C256.789 147.034 257.024 147.106 257.266 147.127C257.809 147.127 258.348 147.043 258.866 146.877C258.926 147.005 258.986 147.134 259.053 147.263C259.36 147.884 259.666 148.498 259.95 149.112C260.047 149.324 260.145 149.544 260.234 149.756L260.062 149.506C259.666 149.051 258.634 148.392 258.013 148.657C257.912 148.705 257.821 148.774 257.747 148.859C257.673 148.945 257.618 149.045 257.584 149.154C257.551 149.262 257.541 149.377 257.554 149.49C257.568 149.602 257.604 149.711 257.662 149.809C257.804 150.008 257.988 150.174 258.199 150.294C258.411 150.414 258.646 150.487 258.888 150.506C259.415 150.505 259.94 150.426 260.444 150.271C260.526 150.491 260.616 150.718 260.691 150.938C260.765 151.157 260.795 151.233 260.833 151.385L260.96 151.847C261.027 152.135 261.102 152.438 261.162 152.726C261.222 153.014 261.244 153.112 261.281 153.302L260.967 152.635C260.646 152.12 259.726 151.309 259.068 151.483C258.96 151.513 258.86 151.566 258.774 151.638C258.688 151.711 258.618 151.801 258.569 151.903C258.52 152.005 258.494 152.116 258.491 152.229C258.488 152.342 258.508 152.455 258.552 152.559C258.66 152.779 258.814 152.972 259.004 153.124C259.194 153.276 259.415 153.383 259.651 153.438C260.201 153.523 260.761 153.523 261.311 153.438C261.371 153.756 261.431 154.059 261.476 154.355C261.655 155.37 261.767 156.219 261.835 156.817C261.835 156.923 261.835 157.022 261.835 157.105H259.696L260.444 171.766H263.899L264.647 157.105H262.755L262.799 157.022C263.061 156.476 263.42 155.688 263.809 154.749L264.183 153.786C264.725 153.909 265.281 153.952 265.836 153.915C266.072 153.879 266.298 153.793 266.499 153.663C266.7 153.532 266.871 153.36 267.002 153.158C267.052 153.056 267.08 152.945 267.085 152.832C267.089 152.719 267.07 152.606 267.028 152.5C266.987 152.395 266.923 152.3 266.843 152.221C266.762 152.143 266.666 152.082 266.561 152.044C265.918 151.824 264.946 152.559 264.587 153.052C264.587 153.052 264.37 153.423 264.25 153.635L264.407 153.218C264.505 152.938 264.602 152.658 264.699 152.347L264.834 151.9C264.881 151.743 264.921 151.584 264.953 151.423C265.043 151.051 265.11 150.665 265.178 150.294C265.677 150.495 266.204 150.618 266.741 150.657C266.983 150.657 267.223 150.603 267.443 150.498C267.663 150.393 267.857 150.241 268.012 150.051C268.076 149.958 268.12 149.852 268.142 149.741C268.163 149.629 268.161 149.514 268.135 149.403C268.11 149.292 268.062 149.188 267.994 149.098C267.927 149.007 267.841 148.932 267.743 148.877C267.144 148.566 266.067 149.142 265.641 149.574C265.641 149.574 265.342 149.945 265.2 150.135C265.237 149.907 265.267 149.672 265.297 149.437C265.379 148.763 265.447 148.074 265.514 147.392C265.514 147.18 265.551 146.967 265.574 146.755C266.092 146.969 266.639 147.1 267.197 147.142C267.439 147.141 267.678 147.088 267.897 146.984C268.117 146.881 268.312 146.73 268.468 146.543C268.532 146.45 268.577 146.344 268.598 146.233C268.619 146.121 268.617 146.006 268.592 145.895C268.566 145.785 268.518 145.68 268.45 145.59C268.383 145.499 268.297 145.424 268.199 145.369C267.601 145.051 266.524 145.634 266.097 146.058C266.097 146.058 265.671 146.589 265.581 146.717C265.626 146.255 265.679 145.801 265.753 145.346C265.839 144.736 265.969 144.133 266.142 143.543C266.661 143.754 267.208 143.884 267.765 143.929C268.007 143.929 268.246 143.876 268.466 143.773C268.686 143.669 268.88 143.518 269.036 143.331C269.101 143.238 269.145 143.132 269.166 143.02C269.187 142.908 269.185 142.794 269.16 142.683C269.135 142.572 269.086 142.468 269.019 142.377C268.951 142.287 268.865 142.211 268.767 142.156C268.169 141.838 267.099 142.422 266.666 142.846C266.666 142.884 266.217 143.414 266.142 143.52C266.145 143.485 266.145 143.449 266.142 143.414C266.328 142.824 266.564 142.251 266.845 141.702C267.002 141.399 267.167 141.118 267.331 140.846C267.814 141.108 268.334 141.294 268.872 141.399C269.113 141.424 269.358 141.396 269.588 141.316C269.817 141.236 270.027 141.107 270.203 140.937C270.276 140.85 270.33 140.75 270.363 140.641C270.395 140.533 270.405 140.419 270.392 140.306C270.378 140.194 270.342 140.085 270.285 139.988C270.228 139.89 270.152 139.806 270.061 139.739C269.5 139.368 268.371 139.823 267.9 140.202C267.9 140.202 267.63 140.459 267.466 140.633L267.69 140.277C267.974 139.845 268.259 139.467 268.513 139.133L268.924 138.626C269.468 138.635 270.011 138.558 270.532 138.398C270.758 138.308 270.962 138.169 271.13 137.992C271.298 137.814 271.426 137.601 271.504 137.368C271.535 137.262 271.545 137.15 271.532 137.041C271.519 136.931 271.483 136.825 271.428 136.73C271.372 136.634 271.298 136.552 271.209 136.487C271.121 136.422 271.02 136.376 270.913 136.353ZM263.435 154.612C263.024 155.552 262.687 156.325 262.388 156.885L262.239 157.173H262.194C262.194 157.077 262.179 156.964 262.149 156.832C262.067 156.226 261.94 155.37 261.738 154.347C261.678 154.029 261.603 153.68 261.521 153.332C261.838 153.203 262.147 153.057 262.448 152.892C262.855 153.246 263.308 153.542 263.794 153.771C263.689 154.044 263.57 154.34 263.435 154.612Z" fill="#2E353A"/>
<path d="M267.342 140.703C267.342 140.703 267.559 139.9 267.567 139.847C267.649 139.248 267.462 138.029 266.819 137.733C266.717 137.686 266.607 137.661 266.495 137.66C266.383 137.66 266.272 137.683 266.169 137.729C266.067 137.774 265.975 137.842 265.9 137.926C265.825 138.01 265.769 138.11 265.735 138.218C265.68 138.458 265.677 138.707 265.727 138.948C265.778 139.189 265.88 139.415 266.026 139.612C266.411 140.037 266.855 140.405 267.342 140.703Z" fill="#2E353A"/>
<path d="M94.8668 141.982C95.3835 142.121 95.9177 142.182 96.4521 142.163C96.4521 142.163 96.2054 141.406 96.1904 141.368C95.9436 140.845 95.1584 139.981 94.5228 140.072C94.4173 140.088 94.3164 140.127 94.227 140.186C94.1375 140.245 94.0615 140.323 94.0042 140.414C93.9468 140.505 93.9093 140.608 93.8943 140.715C93.8793 140.822 93.887 140.931 93.917 141.035C93.9971 141.253 94.1237 141.452 94.2878 141.615C94.452 141.779 94.6496 141.904 94.8668 141.982Z" fill="#2E353A"/>
<path d="M109.618 138.096C108.982 138.028 108.219 138.907 107.987 139.437C107.987 139.49 107.733 140.24 107.748 140.24C107.621 140.377 107.494 140.528 107.359 140.695C107.112 141.006 106.828 141.362 106.551 141.763C106.275 142.165 105.983 142.619 105.714 143.112C105.42 143.635 105.17 144.183 104.966 144.748C104.966 144.559 104.966 144.029 104.966 143.991C104.891 143.415 104.413 142.347 103.785 142.233C103.676 142.214 103.565 142.22 103.459 142.249C103.353 142.279 103.255 142.331 103.171 142.404C103.088 142.476 103.021 142.566 102.976 142.668C102.931 142.769 102.908 142.879 102.91 142.991C102.919 143.224 102.977 143.452 103.082 143.66C103.186 143.868 103.334 144.051 103.515 144.195C103.96 144.491 104.447 144.716 104.959 144.862C104.777 145.44 104.635 146.03 104.532 146.627C104.472 146.976 104.42 147.332 104.375 147.681C104.375 147.514 104.375 147.37 104.375 147.347C104.301 146.771 103.822 145.703 103.194 145.589C103.089 145.571 102.981 145.576 102.877 145.603C102.774 145.63 102.678 145.68 102.595 145.748C102.512 145.816 102.444 145.901 102.397 145.998C102.349 146.095 102.323 146.201 102.319 146.309C102.328 146.542 102.387 146.771 102.491 146.979C102.596 147.187 102.744 147.369 102.925 147.514C103.354 147.804 103.826 148.024 104.323 148.166C104.323 148.302 104.286 148.438 104.271 148.575C104.196 149.226 104.121 149.878 104.031 150.514L103.919 151.181C103.919 151.029 103.919 150.908 103.919 150.893C103.844 150.317 103.366 149.249 102.738 149.128C102.629 149.109 102.518 149.114 102.412 149.144C102.306 149.173 102.208 149.226 102.124 149.298C102.041 149.371 101.974 149.461 101.929 149.562C101.884 149.664 101.861 149.774 101.863 149.885C101.872 150.117 101.931 150.345 102.036 150.551C102.14 150.758 102.288 150.939 102.468 151.083C102.886 151.364 103.342 151.581 103.822 151.726C103.777 151.946 103.732 152.174 103.672 152.386C103.64 152.532 103.6 152.676 103.553 152.818L103.418 153.249C103.321 153.515 103.224 153.795 103.126 154.053C103.029 154.31 102.984 154.409 102.917 154.575C102.954 154.356 103.014 153.916 103.014 153.878C103.006 153.37 102.87 152.871 102.618 152.431C102.622 152.373 102.622 152.315 102.618 152.257C102.606 152.149 102.572 152.045 102.517 151.952C102.462 151.859 102.389 151.779 102.301 151.717C102.213 151.655 102.113 151.613 102.008 151.594C101.902 151.575 101.794 151.579 101.691 151.605C101.07 151.772 100.674 152.878 100.644 153.454C100.644 153.492 100.644 153.863 100.644 154.098L100.554 153.689C100.487 153.409 100.412 153.136 100.337 152.84C100.292 152.696 100.255 152.552 100.21 152.408C100.165 152.264 100.105 152.113 100.06 151.969C99.9332 151.628 99.7986 151.287 99.6491 150.954C100.183 150.825 100.693 150.61 101.16 150.317C101.35 150.187 101.511 150.017 101.631 149.818C101.751 149.619 101.827 149.397 101.855 149.166C101.856 149.059 101.834 148.954 101.792 148.857C101.75 148.76 101.688 148.673 101.61 148.601C101.533 148.53 101.441 148.476 101.342 148.442C101.242 148.409 101.137 148.397 101.033 148.408C100.397 148.476 99.8435 149.507 99.7313 150.075C99.7313 150.113 99.679 150.529 99.664 150.757C99.5743 150.56 99.4845 150.355 99.3873 150.151C99.1031 149.567 98.7965 148.991 98.4899 148.408L98.2207 147.878C98.7434 147.769 99.2474 147.582 99.7164 147.324C99.9077 147.193 100.069 147.022 100.189 146.822C100.309 146.622 100.385 146.398 100.412 146.165C100.412 146.059 100.391 145.954 100.349 145.857C100.306 145.759 100.245 145.672 100.167 145.601C100.089 145.529 99.998 145.475 99.8984 145.442C99.7989 145.409 99.6935 145.397 99.5892 145.408C98.9536 145.483 98.4002 146.514 98.2805 147.082C98.2805 147.12 98.2207 147.726 98.2132 147.878C98.0113 147.484 97.8169 147.12 97.6374 146.696C97.3949 146.165 97.1875 145.618 97.0167 145.059C97.54 144.949 98.0441 144.76 98.5124 144.498C98.7052 144.371 98.8677 144.201 98.988 144.002C99.1083 143.803 99.1834 143.579 99.2078 143.347C99.2084 143.241 99.1868 143.135 99.1447 143.038C99.1025 142.941 99.0406 142.854 98.9631 142.782C98.8855 142.711 98.794 142.657 98.6944 142.623C98.5949 142.59 98.4895 142.578 98.3852 142.589C97.7496 142.657 97.1962 143.688 97.084 144.256C97.084 144.301 97.0167 144.945 97.0167 145.067C97.0137 145.034 97.0137 145.001 97.0167 144.968C96.8583 144.403 96.7507 143.825 96.6951 143.241C96.6951 142.915 96.6428 142.604 96.6278 142.301C97.1428 142.255 97.6475 142.127 98.1235 141.922C98.3286 141.814 98.5078 141.662 98.6486 141.476C98.7894 141.29 98.8884 141.075 98.9386 140.846C98.9549 140.738 98.9477 140.627 98.9174 140.522C98.8872 140.416 98.8347 140.319 98.7636 140.236C98.6924 140.153 98.6044 140.087 98.5055 140.042C98.4066 139.997 98.2992 139.974 98.1908 139.975C97.5477 139.975 96.8821 140.937 96.6951 141.49C96.6951 141.49 96.6204 141.831 96.5755 142.066C96.5755 141.93 96.5755 141.786 96.5755 141.657C96.5755 141.165 96.5755 140.718 96.6353 140.316C96.6353 140.089 96.6802 139.884 96.7026 139.695C97.1376 139.412 97.5262 139.062 97.8543 138.657C97.9891 138.466 98.0805 138.248 98.1219 138.017C98.1632 137.787 98.1536 137.55 98.0936 137.323C98.0589 137.222 98.0033 137.128 97.9303 137.05C97.8573 136.972 97.7686 136.91 97.6703 136.869C97.5719 136.828 97.4661 136.809 97.3598 136.813C97.2536 136.817 97.1493 136.844 97.0541 136.891C96.4783 137.187 96.3063 138.354 96.4259 138.922C96.4259 138.975 96.6503 139.733 96.6578 139.725C96.6578 139.907 96.6054 140.104 96.583 140.324C96.583 140.718 96.5007 141.172 96.4932 141.665C96.4604 142.195 96.4604 142.726 96.4932 143.256C96.5345 143.85 96.6321 144.439 96.7849 145.014L96.3586 144.385C95.9847 143.945 95.0051 143.316 94.4143 143.574C94.3164 143.618 94.2288 143.682 94.1575 143.763C94.0861 143.843 94.0327 143.939 94.0008 144.042C93.9689 144.145 93.9593 144.254 93.9726 144.362C93.9859 144.469 94.0217 144.573 94.0778 144.665C94.212 144.854 94.3853 145.011 94.5855 145.124C94.7857 145.238 95.008 145.306 95.2369 145.324C95.7671 145.325 96.2943 145.244 96.7998 145.082C96.9711 145.662 97.1758 146.231 97.4131 146.787C97.5477 147.112 97.6972 147.438 97.8543 147.756L97.6673 147.484C97.2934 147.044 96.3138 146.423 95.723 146.673C95.6251 146.716 95.5375 146.781 95.4662 146.861C95.3948 146.942 95.3414 147.037 95.3095 147.141C95.2776 147.244 95.268 147.353 95.2813 147.461C95.2945 147.568 95.3304 147.672 95.3865 147.764C95.5203 147.954 95.6933 148.112 95.8935 148.227C96.0937 148.342 96.3162 148.411 96.5456 148.431C97.0527 148.426 97.5565 148.347 98.0412 148.196C98.1085 148.317 98.1609 148.438 98.2207 148.559C98.5124 149.15 98.8115 149.734 99.0807 150.317L99.3499 150.931L99.1854 150.696C98.8115 150.257 97.8318 149.628 97.2411 149.885C97.1431 149.929 97.0556 149.993 96.9842 150.074C96.9129 150.155 96.8595 150.25 96.8276 150.353C96.7957 150.457 96.7861 150.566 96.7993 150.673C96.8126 150.781 96.8485 150.884 96.9045 150.976C97.0384 151.166 97.2114 151.324 97.4116 151.439C97.6118 151.554 97.8343 151.624 98.0637 151.643C98.5709 151.647 99.0755 151.57 99.5593 151.416C99.6416 151.628 99.7238 151.84 99.7986 152.052C99.8734 152.264 99.8958 152.333 99.9332 152.484C99.9706 152.636 100.015 152.772 100.053 152.916C100.12 153.189 100.187 153.477 100.247 153.749L100.359 154.303C100.27 154.098 100.075 153.704 100.06 153.666C99.7537 153.181 98.8788 152.408 98.2581 152.568C98.1539 152.595 98.0567 152.645 97.9732 152.713C97.8897 152.782 97.8218 152.868 97.7743 152.966C97.7267 153.064 97.7005 153.171 97.6976 153.28C97.6946 153.389 97.7149 153.498 97.7571 153.598C97.8627 153.806 98.0117 153.988 98.1938 154.132C98.3758 154.276 98.5866 154.378 98.8115 154.431C99.3319 154.513 99.8615 154.513 100.382 154.431C100.442 154.727 100.502 155.022 100.546 155.303C100.718 156.265 100.816 157.076 100.883 157.644C100.883 157.75 100.883 157.833 100.883 157.924H98.9536L99.6565 171.858H102.947L103.702 157.894H101.907V157.811C102.154 157.288 102.498 156.538 102.865 155.621C102.984 155.333 103.104 155.022 103.224 154.697C103.737 154.823 104.267 154.866 104.794 154.825C105.022 154.789 105.239 154.702 105.43 154.571C105.622 154.44 105.782 154.268 105.901 154.068C105.95 153.971 105.977 153.866 105.982 153.757C105.987 153.649 105.969 153.541 105.93 153.441C105.89 153.34 105.829 153.25 105.752 153.175C105.675 153.1 105.583 153.043 105.482 153.007C104.876 152.802 103.949 153.499 103.605 153.969L103.291 154.522C103.336 154.393 103.388 154.265 103.433 154.128C103.53 153.863 103.62 153.59 103.717 153.302C103.762 153.158 103.799 153.015 103.844 152.871C103.889 152.727 103.919 152.575 103.957 152.424C104.039 152.067 104.106 151.711 104.166 151.348C104.645 151.537 105.149 151.652 105.662 151.689C105.892 151.687 106.119 151.636 106.328 151.538C106.537 151.44 106.723 151.297 106.873 151.12C106.937 151.032 106.982 150.932 107.004 150.825C107.026 150.718 107.025 150.607 107 150.5C106.976 150.394 106.93 150.294 106.864 150.207C106.798 150.121 106.714 150.05 106.619 149.999C106.05 149.704 105.026 150.257 104.622 150.666C104.622 150.666 104.338 151.014 104.196 151.196C104.233 150.976 104.263 150.757 104.293 150.537C104.375 149.893 104.435 149.234 104.495 148.582C104.495 148.385 104.532 148.188 104.555 147.984C105.047 148.183 105.567 148.306 106.095 148.347C106.326 148.346 106.553 148.295 106.762 148.197C106.971 148.099 107.157 147.956 107.307 147.779C107.37 147.691 107.413 147.591 107.434 147.485C107.456 147.379 107.454 147.269 107.43 147.164C107.406 147.058 107.36 146.959 107.295 146.873C107.229 146.787 107.147 146.716 107.052 146.665C106.477 146.362 105.46 146.915 105.048 147.324C105.048 147.324 104.652 147.825 104.562 147.946C104.607 147.506 104.652 147.074 104.719 146.643C104.807 146.064 104.932 145.492 105.093 144.93C105.588 145.131 106.11 145.253 106.641 145.294C106.87 145.293 107.097 145.241 107.304 145.143C107.512 145.045 107.697 144.903 107.845 144.726C107.909 144.638 107.954 144.537 107.976 144.43C107.998 144.323 107.997 144.212 107.973 144.106C107.948 143.999 107.902 143.899 107.836 143.813C107.77 143.726 107.686 143.655 107.591 143.604C107.023 143.309 105.998 143.862 105.594 144.271C105.594 144.271 105.161 144.809 105.101 144.908V144.801C105.278 144.242 105.503 143.7 105.774 143.18C105.916 142.892 106.073 142.619 106.23 142.362C106.696 142.619 107.202 142.795 107.726 142.885C107.955 142.912 108.187 142.888 108.405 142.813C108.624 142.738 108.823 142.615 108.989 142.453C109.061 142.372 109.115 142.277 109.148 142.174C109.181 142.07 109.191 141.961 109.178 141.853C109.165 141.746 109.13 141.642 109.074 141.549C109.018 141.457 108.943 141.377 108.855 141.316C108.324 140.953 107.247 141.384 106.798 141.748L106.387 142.165C106.462 142.051 106.529 141.93 106.604 141.824C106.873 141.415 107.142 141.066 107.352 140.74C107.494 140.559 107.621 140.399 107.748 140.256C108.254 140.257 108.758 140.183 109.244 140.036C109.458 139.949 109.652 139.818 109.812 139.649C109.972 139.48 110.094 139.279 110.171 139.058C110.201 138.958 110.211 138.853 110.199 138.749C110.187 138.645 110.154 138.545 110.102 138.455C110.05 138.364 109.98 138.286 109.897 138.224C109.813 138.162 109.718 138.119 109.618 138.096ZM102.558 155.454C102.169 156.356 101.81 157.091 101.563 157.598C101.511 157.704 101.459 157.795 101.421 157.879H101.377C101.377 157.773 101.377 157.667 101.332 157.545C101.257 156.97 101.137 156.159 100.943 155.189C100.883 154.878 100.816 154.553 100.741 154.219C101.04 154.098 101.332 153.959 101.616 153.803C102.004 154.136 102.434 154.417 102.895 154.636C102.785 154.924 102.673 155.197 102.558 155.454Z" fill="#2E353A"/>
<path d="M106.257 142.225C106.257 142.225 106.459 141.468 106.467 141.422C106.542 140.846 106.362 139.687 105.786 139.407C105.689 139.361 105.584 139.336 105.477 139.335C105.37 139.334 105.264 139.356 105.166 139.4C105.069 139.444 104.981 139.508 104.91 139.589C104.839 139.67 104.786 139.765 104.754 139.869C104.701 140.096 104.698 140.333 104.744 140.562C104.791 140.791 104.886 141.007 105.024 141.195C105.382 141.599 105.798 141.946 106.257 142.225Z" fill="#2E353A"/>
<path d="M273.159 173.328V31.0088" stroke="#2E353A" stroke-width="0.688784" stroke-linecap="round" stroke-linejoin="round"/>
<path d="M147.525 173.327V31.8944" stroke="#2E353A" stroke-width="0.688784" stroke-linecap="round" stroke-linejoin="round"/>
<path d="M67.3169 103.466H327.926" stroke="#2E353A" stroke-width="0.688784" stroke-linecap="round" stroke-linejoin="round"/>
<path d="M106.662 40.1447H111.784C112.443 40.1447 113.074 40.4097 113.54 40.8815C114.005 41.3532 114.267 41.993 114.267 42.6602V48.4108H104.149V42.6602C104.149 42.3273 104.214 41.9977 104.341 41.6905C104.467 41.3833 104.653 41.1047 104.887 40.8707C105.12 40.6367 105.398 40.452 105.702 40.3274C106.007 40.2028 106.333 40.1407 106.662 40.1447Z" fill="#2E353A"/>
<path d="M113.79 56.0338C113.79 56.9748 113.514 57.8948 112.998 58.6772C112.482 59.4597 111.749 60.0696 110.891 60.4297C110.033 60.7898 109.088 60.884 108.177 60.7004C107.266 60.5169 106.43 60.0637 105.773 59.3982C105.116 58.7328 104.669 57.885 104.487 56.962C104.306 56.039 104.399 55.0823 104.755 54.2129C105.11 53.3435 105.712 52.6003 106.484 52.0775C107.257 51.5547 108.165 51.2756 109.094 51.2756C110.339 51.2756 111.534 51.7769 112.414 52.6693C113.295 53.5616 113.79 54.7718 113.79 56.0338Z" fill="white"/>
<path d="M129.194 56.2523H89.2524L104.231 47.9862H114.177L129.194 56.2523Z" fill="#2E353A"/>
<path d="M110.064 24.7419H108.373V41.2817H110.064V24.7419Z" fill="#2E353A"/>
<path d="M298.443 40.1445H303.558C304.217 40.1445 304.848 40.4096 305.314 40.8813C305.78 41.353 306.041 41.9928 306.041 42.66V48.4106H295.96V42.66C295.96 41.9928 296.222 41.353 296.688 40.8813C297.153 40.4096 297.785 40.1445 298.443 40.1445Z" fill="#2E353A"/>
<path d="M300.878 60.7919C303.472 60.7919 305.574 58.6616 305.574 56.0338C305.574 53.4059 303.472 51.2756 300.878 51.2756C298.284 51.2756 296.182 53.4059 296.182 56.0338C296.182 58.6616 298.284 60.7919 300.878 60.7919Z" fill="white"/>
<path d="M320.981 56.2523H281.04L296.019 47.9862H305.965L320.981 56.2523Z" fill="#2E353A"/>
<path d="M301.853 24.7419H300.163V41.2817H301.853V24.7419Z" fill="#2E353A"/>
<path d="M184.196 77.3251L180.951 79.348" stroke="#2E353A" stroke-width="0.344392" stroke-linecap="round" stroke-linejoin="round"/>
<path d="M238.979 43.1134L188.561 74.5943" stroke="#2E353A" stroke-width="0.344392" stroke-linecap="round" stroke-linejoin="round"/>
<path d="M245.637 45.2449L205.24 70.4599" stroke="#2E353A" stroke-width="0.344392" stroke-linecap="round" stroke-linejoin="round"/>
<path d="M263.278 34.224L251.074 41.8385" stroke="#2E353A" stroke-width="0.344392" stroke-linecap="round" stroke-linejoin="round"/>
<path d="M200.126 166.482C200.126 166.482 198.825 175.218 199.737 179.848C200.649 184.477 204.045 207.123 204.972 216.374C205.899 225.625 210.326 239.657 210.588 240.324C210.85 240.991 210.199 242.832 210.199 243.628C210.199 244.423 210.461 246.279 210.461 246.279C210.461 246.279 206.669 248.787 204.71 249.984C202.751 251.181 203.671 251.704 205.495 251.962C207.32 252.219 233.165 251.962 233.165 251.962C233.165 251.962 233.815 251.833 233.03 250.643C232.245 249.454 226.891 245.749 226.891 245.749C226.787 244.869 226.744 243.983 226.763 243.097C226.763 241.248 225.193 237.937 225.193 237.937C225.193 237.937 228.072 216.768 227.436 211.207C226.801 205.646 226.524 199.963 227.571 194.933C228.618 189.902 227.048 167.543 227.309 166.482C227.443 165.715 227.352 164.925 227.048 164.209C227.048 164.209 218.822 167.513 211.897 168.043C207.907 168.413 203.887 167.88 200.126 166.482Z" fill="#2E353A" stroke="#2E353A" stroke-width="0.688784" stroke-miterlimit="10" stroke-linecap="round"/>
<path d="M233.04 250.643C232.254 249.454 226.9 245.749 226.9 245.749C226.9 245.749 226.9 245.65 226.9 245.483C223.686 246.558 220.684 248.196 218.031 250.325C218.031 250.325 218.457 249.749 216.049 247.741C214.447 246.518 212.438 245.974 210.448 246.226C210.448 246.226 206.656 248.734 204.697 249.931C202.738 251.128 203.658 251.651 205.482 251.908C207.307 252.166 233.152 251.908 233.152 251.908C233.152 251.908 233.825 251.84 233.04 250.643Z" fill="white" stroke="#2E353A" stroke-width="0.688784" stroke-linecap="round" stroke-linejoin="round"/>
<path d="M204.877 250.803C204.877 250.803 209.685 251.159 211.675 250.568" stroke="#2E353A" stroke-width="0.516588" stroke-linecap="round" stroke-linejoin="round"/>
<path d="M198.713 129.955C198.713 129.955 194.974 150.412 194.01 153.488C193.045 156.565 193.419 163.717 196.253 162.883C199.087 162.05 199.992 157.769 200.239 156.58C200.486 155.39 200.71 134.607 200.71 131.016C200.71 127.425 198.713 129.955 198.713 129.955Z" fill="#FFCF23" stroke="#2E353A" stroke-width="0.688784" stroke-linecap="round" stroke-linejoin="round"/>
<path d="M212.332 122.07C212.332 122.07 202.685 124.941 201.115 125.275C199.544 125.608 198.767 127.987 198.684 129.957C198.602 131.927 198.931 152.043 198.849 158.044C198.767 164.044 197.959 166.09 200.629 168.302C203.299 170.515 210.844 170.931 217.732 170.439C224.619 169.946 227.707 167.81 227.707 164.696C227.707 161.582 227.221 146.792 227.221 146.792C227.221 146.792 227.969 138.17 229.652 134.473C231.334 130.775 232.322 129.624 231.028 128.313C229.734 127.002 221.702 122.32 218.547 121.411C216.46 120.931 214.276 121.163 212.332 122.07Z" fill="#FFCF23" stroke="#2E353A" stroke-width="0.688784" stroke-linecap="round" stroke-linejoin="round"/>
<path d="M210.469 127.819L211.359 133.57L217.842 129.706L215.008 125.023C215.008 125.023 211.037 126.258 210.469 127.819Z" fill="#2E353A" stroke="#2E353A" stroke-width="0.688784" stroke-linecap="round" stroke-linejoin="round"/>
<path d="M212.84 119.09C211.56 120.219 210.539 121.618 209.849 123.189C208.944 125.515 207.06 129.189 207.83 129.394C208.6 129.598 210.896 127.636 211.382 127.636C211.868 127.636 212.84 130.03 213.124 130.106C214.124 129.828 215.102 129.473 216.048 129.045C216.048 129.045 216.467 132.076 217.372 132.152C218.277 132.228 221.343 127.492 221.904 123.961C222.465 120.431 220.648 119.87 220.296 119.794C219.945 119.719 215.839 117.893 212.84 119.09Z" fill="#FFCF23" stroke="#2E353A" stroke-width="0.688784" stroke-linecap="round" stroke-linejoin="round"/>
<path d="M212.357 107.583C212.357 107.583 212.222 104.34 212.222 102.363C212.222 100.385 212.499 99.3321 213.68 98.9002C214.862 98.4684 215.213 100.317 215.176 101.302C215.139 102.287 212.357 107.583 212.357 107.583Z" fill="#2E353A" stroke="#2E353A" stroke-width="0.688784" stroke-linecap="round" stroke-linejoin="round"/>
<path d="M212.355 106.81C212.355 106.81 212.287 104.409 211.45 105.681C210.612 106.954 210.896 109.917 211.45 109.636C212.003 109.356 212.355 106.81 212.355 106.81Z" fill="white" stroke="#2E353A" stroke-width="0.688784" stroke-linecap="round" stroke-linejoin="round"/>
<path d="M212.5 118.956C212.5 118.956 212.291 124.669 212.149 126.927C212.007 129.185 212.777 130.458 214.101 129.958C215.424 129.458 218.632 125.154 219.605 123.464C220.253 122.294 220.789 121.064 221.205 119.79C221.205 119.79 216.404 121.282 212.5 118.956Z" fill="white" stroke="#2E353A" stroke-width="0.688784" stroke-linecap="round" stroke-linejoin="round"/>
<path d="M214.086 100.599C214.086 100.599 211.581 109.002 210.886 112.032C210.19 115.063 210.534 117.616 211.79 119.609C212.379 120.527 213.201 121.267 214.169 121.752C215.138 122.238 216.217 122.45 217.294 122.367C219.538 122.291 222.312 121.731 223.98 118.2C224.867 116.249 225.636 114.245 226.283 112.199C226.627 111.495 227.884 107.82 228.579 105.494C229.275 103.168 227.899 100.364 225.236 98.7885C224.429 98.2809 218.985 94.7957 214.086 100.599Z" fill="white" stroke="#2E353A" stroke-width="0.688784" stroke-linecap="round" stroke-linejoin="round"/>
<path d="M226.796 111.405C226.796 111.405 228.539 109.988 229.04 111.048C229.541 112.109 228.621 114.011 227.439 114.647C227.154 114.838 226.829 114.957 226.489 114.994C226.149 115.031 225.806 114.985 225.488 114.859C225.488 114.859 226.049 112.177 226.796 111.405Z" fill="white" stroke="#2E353A" stroke-width="0.688784" stroke-linecap="round" stroke-linejoin="round"/>
<path d="M229.077 97.6358L228.329 96.7872C228.329 96.7872 228.262 96.219 226.026 95.378C223.79 94.537 221.217 94.6657 220.313 93.5368C219.408 92.4079 218.361 92.1276 215.713 92.5519C213.066 92.9762 211.974 95.7265 211.974 97.9843C211.974 100.242 216.783 103.424 220.126 103.917C223.468 104.409 226.751 103.349 226.048 103.985C225.345 104.621 223.334 106.879 224.029 107.66C224.725 108.44 225.143 108.925 225.143 109.849C225.143 110.478 225.016 111.933 225.046 112.812C224.777 113.365 224.059 114.842 223.895 115.085C223.73 115.327 221.733 113.675 220.544 113.039C219.994 112.695 219.377 112.478 218.735 112.403C218.735 112.403 218.667 113.463 218.181 113.6C217.695 113.736 216.02 113.744 215.526 113.251C215.373 113.034 215.263 112.789 215.204 112.528C215.145 112.268 215.138 111.999 215.182 111.736C213.478 111.798 211.859 112.509 210.651 113.729C210.37 115.756 210.79 117.82 211.84 119.57C212.428 120.488 213.25 121.228 214.219 121.713C215.187 122.199 216.266 122.411 217.344 122.328C219.587 122.252 222.362 121.692 224.029 118.161C224.843 116.436 225.518 114.647 226.048 112.812C226.267 112.484 226.441 112.127 226.564 111.751C227.21 110.277 228.053 108.901 229.07 107.66C230.427 105.774 231.16 103.501 231.163 101.166C231.181 100.438 230.994 99.7199 230.625 99.0949C230.256 98.4699 229.719 97.9639 229.077 97.6358Z" fill="#2E353A" stroke="#2E353A" stroke-width="0.688784" stroke-linecap="round" stroke-linejoin="round"/>
<path d="M222.684 98.0393C222.684 98.0393 218.197 96.3345 217.449 99.5546C216.702 102.775 224.18 103.722 230.349 102.585" stroke="white" stroke-width="0.516588" stroke-linecap="round" stroke-linejoin="round"/>
<path d="M224.926 106.372C224.926 106.372 226.235 106.751 229.226 105.804" stroke="white" stroke-width="0.516588" stroke-linecap="round" stroke-linejoin="round"/>
<path d="M216.747 106.814L216.471 108.435C216.471 108.435 214.661 112.534 215.147 113.027C215.633 113.519 218.213 114.087 218.422 113.239C218.534 112.846 218.604 112.442 218.632 112.034L217.794 111.822" stroke="#2E353A" stroke-width="0.688784" stroke-linecap="round" stroke-linejoin="round"/>
<path d="M219.678 107.446C219.678 107.446 222.251 106.81 222.879 108.999" stroke="#2E353A" stroke-width="0.688784" stroke-linecap="round" stroke-linejoin="round"/>
<path d="M216.194 106.107C215.892 105.813 215.504 105.627 215.089 105.577C214.673 105.526 214.253 105.614 213.891 105.826" stroke="#2E353A" stroke-width="0.688784" stroke-linecap="round" stroke-linejoin="round"/>
<path d="M220.717 109.912C220.658 110.336 220.411 110.669 220.164 110.616C219.917 110.563 219.76 110.207 219.82 109.783C219.88 109.359 220.119 109.025 220.373 109.078C220.628 109.131 220.77 109.487 220.717 109.912Z" fill="#2E353A"/>
<path d="M214.899 108.146C214.84 108.57 214.593 108.903 214.346 108.85C214.099 108.797 213.942 108.449 214.002 108.017C214.062 107.585 214.301 107.259 214.555 107.312C214.81 107.365 214.952 107.721 214.899 108.146Z" fill="#2E353A"/>
<path d="M220.021 115.136C217.105 118.644 214.786 115.75 214.584 115L220.021 115.136Z" fill="white"/>
<path d="M211.361 133.573C211.361 133.573 207.958 147.287 207.308 153.856C206.922 157.566 206.733 161.293 206.739 165.024L208.444 168.054L210.957 165.024C210.957 165.024 210.875 150.408 210.875 145.726C210.875 141.044 211.361 133.573 211.361 133.573Z" fill="#2E353A" stroke="#2E353A" stroke-width="0.688784" stroke-linecap="round" stroke-linejoin="round"/>
<path d="M227.425 136.186C227.425 136.186 225.338 140.951 226.123 143.33C226.909 145.709 233.564 155.635 234.215 156.036C234.866 156.438 239.966 157.62 240.616 154.582C241.267 151.543 235.785 133.541 234.088 130.897C232.39 128.253 231.096 128.511 230.431 129.041" fill="#FFCF23"/>
<path d="M227.425 136.186C227.425 136.186 225.338 140.951 226.123 143.33C226.909 145.709 233.564 155.635 234.215 156.036C234.866 156.438 239.966 157.62 240.616 154.582C241.267 151.543 235.785 133.541 234.088 130.897C232.39 128.253 231.096 128.511 230.431 129.041" stroke="#2E353A" stroke-width="0.688784" stroke-linecap="round" stroke-linejoin="round"/>
<path d="M209.399 146.111L210.184 167.28L226.12 166.492L225.724 145.717L209.399 146.111Z" fill="white" stroke="#2E353A" stroke-width="0.688784" stroke-linecap="round" stroke-linejoin="round"/>
<path d="M237.482 150.878C237.482 150.878 233.436 151.272 231.08 152.598C228.725 153.924 219.586 155.901 219.586 155.901L220.11 161.061C224.228 161.594 228.397 161.594 232.516 161.061C238.394 160.137 241.789 160.402 242.051 158.682C242.313 156.962 240.091 150.476 240.091 150.476" fill="#FFCF23"/>
<path d="M237.482 150.878C237.482 150.878 233.436 151.272 231.08 152.598C228.725 153.924 219.586 155.901 219.586 155.901L220.11 161.061C224.228 161.594 228.397 161.594 232.516 161.061C238.394 160.137 241.789 160.402 242.051 158.682C242.313 156.962 240.091 150.476 240.091 150.476" stroke="#2E353A" stroke-width="0.688784" stroke-linecap="round" stroke-linejoin="round"/>
<path d="M222.989 155.37L223.244 161.325" stroke="#2E353A" stroke-width="0.688784" stroke-linecap="round" stroke-linejoin="round"/>
<path d="M219.986 156.431L215.581 152.862C215.581 152.862 212.59 151.271 211.925 151.271C210.565 151.417 209.215 151.637 207.879 151.93C207.355 152.066 207.617 152.726 208.529 153.127C209.109 153.368 209.728 153.502 210.354 153.521C210.354 153.521 206.181 154.445 206.181 155.506C206.181 156.567 208.006 157.09 208.006 157.09C208.006 157.09 207.482 159.605 208.657 160.537C209.831 161.469 211.012 161.855 213.099 161.295C215.185 160.734 220.151 161.03 220.151 161.03L219.986 156.431Z" fill="white" stroke="#2E353A" stroke-width="0.688784" stroke-linecap="round" stroke-linejoin="round"/>
<path d="M197.998 154.203C197.998 154.203 194.947 150.521 194.012 147.665C193.078 144.808 190.961 139.33 190.961 139.33L187.559 139.209C187.559 139.209 187.91 149.907 189.802 155.976C191.694 162.045 194.14 165.129 195.433 164.538C196.727 163.947 198.604 161.091 198.604 161.091" fill="#FFCF23"/>
<path d="M197.998 154.203C197.998 154.203 194.947 150.521 194.012 147.665C193.078 144.808 190.961 139.33 190.961 139.33L187.559 139.209C187.559 139.209 187.91 149.907 189.802 155.976C191.694 162.045 194.14 165.129 195.433 164.538C196.727 163.947 198.604 161.091 198.604 161.091" stroke="#2E353A" stroke-width="0.688784" stroke-linecap="round" stroke-linejoin="round"/>
<path d="M194.485 125.913C193.601 126.569 193.01 127.552 192.84 128.648C192.6 129.595 192.137 129.951 190.596 129.838C190.328 129.797 190.055 129.809 189.792 129.876C189.528 129.942 189.281 130.06 189.063 130.224C189.003 129.976 188.968 129.722 188.958 129.466C188.958 128.618 190.387 126.754 191.037 126.216C191.688 125.678 192.638 124.89 192.533 124.17C192.428 123.451 189.744 125.011 188.973 125.557C188.203 126.102 187.784 128.322 187.784 128.322C187.387 129.688 187.351 131.136 187.68 132.52C187.597 132.702 187.523 132.876 187.44 133.08C186.386 135.694 187.56 139.263 187.56 139.263L190.963 139.384C190.963 139.384 190.611 137.604 191.194 136.884C191.777 135.951 192.446 135.076 193.191 134.27C194.126 133.437 194.597 130.944 194.597 130.345C194.704 129.24 194.982 128.158 195.42 127.14C195.891 126.027 195.539 125.201 194.485 125.913Z" fill="white" stroke="#2E353A" stroke-width="0.688784" stroke-linecap="round" stroke-linejoin="round"/>
<path d="M186.895 130.562C186.895 130.562 187.313 128.342 188.084 127.796C188.854 127.251 191.531 125.69 191.643 126.417C191.755 127.145 190.813 127.933 190.148 128.455C189.482 128.978 188.069 130.865 188.069 131.706C188.126 132.408 188.287 133.098 188.547 133.752C188.547 133.752 187.799 135.138 187.239 135.312C186.678 135.487 186.244 132.789 186.895 130.562Z" fill="white" stroke="#2E353A" stroke-width="0.688784" stroke-linecap="round" stroke-linejoin="round"/>
<path d="M187.01 131.892C187.01 131.892 187.429 129.665 188.199 129.127C188.97 128.589 191.639 127.02 191.759 127.74C191.879 128.46 190.929 129.255 190.263 129.786C189.598 130.316 188.184 132.195 188.184 133.036C188.241 133.739 188.403 134.428 188.663 135.082C188.663 135.082 187.915 136.461 187.354 136.643C186.793 136.824 186.36 134.12 187.01 131.892Z" fill="white" stroke="#2E353A" stroke-width="0.688784" stroke-linecap="round" stroke-linejoin="round"/>
<path d="M187.163 137.848C187.163 137.848 186.213 134.537 186.333 133.218C186.452 131.9 186.923 130.748 187.582 130.688C188.24 130.627 191.022 129.604 191.022 130.385C191.022 131.165 188.471 132.014 188.471 132.014C188.471 132.014 190.072 134.12 190.012 135.196C189.948 135.965 189.811 136.727 189.601 137.469" fill="white"/>
<path d="M187.163 137.848C187.163 137.848 186.213 134.537 186.333 133.218C186.452 131.9 186.923 130.748 187.582 130.688C188.24 130.627 191.022 129.604 191.022 130.385C191.022 131.165 188.471 132.014 188.471 132.014C188.471 132.014 190.072 134.12 190.012 135.196C189.948 135.965 189.811 136.727 189.601 137.469" stroke="#2E353A" stroke-width="0.688784" stroke-linecap="round" stroke-linejoin="round"/>
<path d="M208.232 178.926L211.171 181.108L218.029 249.389" stroke="white" stroke-width="0.516588" stroke-linecap="round" stroke-linejoin="round"/>
<path d="M115.786 145.599C115.786 145.599 118.104 151.516 118.209 153.637C118.313 155.759 117.775 155.418 118.65 158.183C119.525 160.949 122.067 167.556 123.503 172.912C124.641 177.283 125.197 181.788 125.156 186.308H108.846C108.846 186.308 110.057 182.959 106.752 173.587C103.447 164.214 102.13 158.646 102.13 155.979C102.13 153.312 100.695 150.622 100.141 147.606C99.5878 144.591 101.353 144.924 101.353 144.924L114.686 145.038C114.686 145.038 115.569 144.924 115.786 145.599Z" fill="#2E353A" stroke="#2E353A" stroke-width="0.688784" stroke-linecap="round" stroke-linejoin="round"/>
<path d="M100.053 146.27C100.18 144.709 101.354 144.929 101.354 144.929L114.687 145.043C114.687 145.043 115.57 144.929 115.787 145.603C115.787 145.603 118.105 151.521 118.21 153.642C118.243 154.201 118.228 154.761 118.165 155.317L117.881 155.756C117.881 155.756 117.439 159.666 112.152 159.893C106.865 160.12 103.926 157.658 102.79 155.309C101.653 152.96 101.249 149.172 100.367 146.975C100.277 146.717 100.165 146.528 100.053 146.27Z" fill="white" stroke="#2E353A" stroke-width="0.688784" stroke-linecap="round" stroke-linejoin="round"/>
<path d="M102.13 155.983C102.13 153.301 100.694 150.627 100.141 147.611C99.7593 145.528 100.485 145.043 100.971 144.944C101.158 145.013 101.838 145.414 102.676 148.058C103.67 151.18 103.117 155.309 103.67 158.666C104.224 162.022 106.976 169.387 108.957 174.857C110.588 179.357 110.954 183.706 110.289 186.351H108.845C108.845 186.351 110.057 183.002 106.751 173.629C103.446 164.257 102.13 158.65 102.13 155.983Z" fill="white" stroke="#2E353A" stroke-width="0.688784" stroke-linecap="round" stroke-linejoin="round"/>
<path d="M183.739 186.145H170.472C170.232 186.123 170.008 186.012 169.846 185.831C169.683 185.651 169.592 185.416 169.592 185.171C169.592 184.927 169.683 184.692 169.846 184.511C170.008 184.331 170.232 184.219 170.472 184.198H183.739C184.091 184.204 184.44 184.126 184.757 183.971C185.074 183.815 185.35 183.586 185.564 183.302C185.777 183.018 185.921 182.687 185.985 182.335C186.049 181.984 186.03 181.623 185.93 181.281L181.218 164.195C181.15 163.947 181.182 163.682 181.307 163.457C181.431 163.233 181.639 163.068 181.884 162.998C182.129 162.929 182.391 162.961 182.613 163.088C182.834 163.214 182.997 163.425 183.066 163.673L187.777 180.758C187.95 181.389 187.976 182.052 187.855 182.695C187.733 183.338 187.466 183.944 187.075 184.465C186.684 184.987 186.18 185.41 185.601 185.701C185.022 185.992 184.385 186.144 183.739 186.145Z" fill="white" stroke="#2E353A" stroke-width="0.688784" stroke-linecap="round" stroke-linejoin="round"/>
<path d="M182.079 141.731L179.072 141.365L174.413 180.717L177.42 181.082L182.079 141.731Z" fill="white" stroke="#2E353A" stroke-width="0.688784" stroke-linecap="round" stroke-linejoin="round"/>
<path d="M182.095 141.72C185.037 154.992 183.392 168.884 177.436 181.073L182.095 141.72Z" fill="white" stroke="#2E353A" stroke-width="0.688784" stroke-linecap="round" stroke-linejoin="round"/>
<path d="M192.46 186.053H61.2172V244.015H192.46V186.053Z" fill="#2E353A"/>
<path opacity="0.72" d="M192.457 186.058H61.2145V244.019H192.457V186.058Z" fill="white"/>
<path d="M192.46 186.053H61.2172V244.015H192.46V186.053Z" stroke="#2E353A" stroke-width="0.688784" stroke-linecap="round" stroke-linejoin="round"/>
<path d="M192.487 187.697H61.229V189.622H192.487V187.697Z" fill="#2E353A"/>
<path d="M193.581 184.918H57.8514V187.949H193.581V184.918Z" fill="white" stroke="#2E353A" stroke-width="0.688784" stroke-linecap="round" stroke-linejoin="round"/>
<path d="M323.735 140.53L308.987 140.659C308.987 140.659 308.015 140.53 307.768 141.273C307.768 141.273 305.211 147.819 305.084 150.168C304.957 152.516 305.577 152.137 304.598 155.229C303.618 158.32 300.821 165.601 299.236 171.534C297.105 179.504 296.551 187.96 296.417 196.18C296.417 197.499 295.616 208.856 297.643 208.856C299.326 208.856 314.843 210.94 315.03 207.909C315.778 195.832 313.624 184.027 317.767 172.299C319.375 167.753 321.214 162.919 322.583 158.146C323.951 153.372 324.183 148.41 325.073 143.523C325.686 140.159 323.735 140.53 323.735 140.53Z" fill="#2E353A" stroke="#2E353A" stroke-width="0.688784" stroke-linecap="round" stroke-linejoin="round"/>
<path d="M325.176 141.981C325.034 140.261 323.733 140.504 323.733 140.504L308.986 140.633C308.986 140.633 308.014 140.504 307.767 141.246C307.767 141.246 305.209 147.793 305.082 150.141C305.051 150.76 305.068 151.381 305.135 151.998L305.449 152.482C305.449 152.482 305.935 156.809 311.79 157.028C317.646 157.248 320.929 154.558 322.148 151.967C323.366 149.376 323.853 145.148 324.832 142.709C324.929 142.504 325.049 142.254 325.176 141.981Z" fill="white" stroke="#2E353A" stroke-width="0.688784" stroke-linecap="round" stroke-linejoin="round"/>
<path d="M321.766 146.835C320.779 150.442 321.37 151.449 320.383 157.662C319.395 163.875 315.836 170.883 314.445 177.301C313.054 183.718 313.697 206.365 313.854 207.365C313.928 207.897 313.958 208.434 313.944 208.971C314.602 208.721 315.006 208.372 315.036 207.903C315.783 195.826 313.63 184.021 317.773 172.293C319.381 167.747 321.22 162.913 322.589 158.139C323.957 153.366 324.189 148.403 325.079 143.517C325.453 141.471 324.862 140.819 324.331 140.63C323.221 142.58 322.359 144.665 321.766 146.835Z" fill="white" stroke="#2E353A" stroke-width="0.688784" stroke-linecap="round" stroke-linejoin="round"/>
<path d="M281.596 147.196C279.408 148.199 277.291 149.356 275.262 150.659C273.43 152.015 273.767 155.349 273.767 156.212C273.767 157.076 268.891 165.107 269.743 167.948C270.596 170.79 272.667 178.321 272.794 180.071C272.921 181.821 272.548 186.738 272.548 186.738H295.588C295.53 182.366 295.735 177.994 296.201 173.646C296.949 168.092 298.519 166.115 298.519 157.599C298.519 149.083 289.374 147.469 287.063 147.219C285.244 147.078 283.417 147.07 281.596 147.196Z" fill="white" stroke="#2E353A" stroke-width="0.688784" stroke-linecap="round" stroke-linejoin="round"/>
<path d="M269.774 167.951C270.522 170.519 272.316 176.921 272.765 179.399C272.765 178.338 272.765 177.315 272.728 176.467C272.608 172.891 272.728 167.822 276.265 159.548C278.98 153.191 280.542 149.032 281.118 147.426C279.102 148.355 277.155 149.431 275.293 150.646C273.461 152.002 273.797 155.336 273.797 156.199C273.797 157.063 268.921 165.109 269.774 167.951Z" fill="#FFCF23" stroke="#2E353A" stroke-width="0.688784" stroke-linecap="round" stroke-linejoin="round"/>
<path d="M251.373 185.729C251.373 185.729 249.78 188.169 248.658 189.722C247.536 191.275 245.726 194.268 246.983 194.397C248.239 194.526 249.638 193.268 251.036 192.556C251.984 191.956 252.718 191.064 253.13 190.01C253.13 190.01 252.711 192.7 253.691 192.132C254.67 191.563 254.67 189.586 254.67 188.305C254.704 187.218 254.796 186.133 254.947 185.055C254.947 185.055 253.107 183.426 251.373 185.729Z" fill="white" stroke="#2E353A" stroke-width="0.688784" stroke-linecap="round" stroke-linejoin="round"/>
<path d="M252.118 188.881C252.118 188.881 245.32 188.881 244.213 189.525C243.106 190.169 239.315 208.255 236.159 215.619C236.159 215.619 233.631 222.021 231.575 225.067C230.827 226.135 227.462 227.469 225.091 228.098C222.721 228.727 221.778 229.219 222.1 229.863C222.422 230.507 227.335 231.621 229.526 231.947C231.717 232.273 233.16 231.621 233.796 231.621C234.432 231.621 235.217 232.424 236.481 231.947C237.744 231.469 236.952 228.098 236.952 226.181C236.952 224.264 239.322 217.377 242.007 214.49C244.692 211.604 249.911 200.564 251.018 197.2C252.125 193.836 252.439 193.041 252.439 193.041" fill="white"/>
<path d="M252.118 188.881C252.118 188.881 245.32 188.881 244.213 189.525C243.106 190.169 239.315 208.255 236.159 215.619C236.159 215.619 233.631 222.021 231.575 225.067C230.827 226.135 227.462 227.469 225.091 228.098C222.721 228.727 221.778 229.219 222.1 229.863C222.422 230.507 227.335 231.621 229.526 231.947C231.717 232.273 233.16 231.621 233.796 231.621C234.432 231.621 235.217 232.424 236.481 231.947C237.744 231.469 236.952 228.098 236.952 226.181C236.952 224.264 239.322 217.377 242.007 214.49C244.692 211.604 249.911 200.564 251.018 197.2C252.125 193.836 252.439 193.041 252.439 193.041" stroke="#2E353A" stroke-width="0.688784" stroke-linecap="round" stroke-linejoin="round"/>
<path d="M250.48 192.751C249.248 193.278 248.203 194.173 247.484 195.317C246.766 196.46 246.407 197.798 246.457 199.153C246.457 204.108 253.643 235.559 253.643 237.301C253.73 238.839 253.462 240.377 252.863 241.793C252.263 243.209 251.348 244.464 250.189 245.461C249.673 245.939 246.674 248.075 247.018 249.06C247.586 250.682 251.602 249.106 252.582 248.681C254.354 247.924 256.321 244.757 258.243 244.893C260.284 245.014 260.538 244.022 260.538 241.976C260.538 239.93 258.295 237.377 258.026 234.46C257.756 231.543 256.822 221.262 257.682 216.344C258.474 211.798 254.503 200.335 254.503 200.335C254.503 200.335 266.708 207.911 277.469 205.267C288.23 202.623 267.433 198.009 264.278 195.675C261.122 193.342 253.068 190.985 250.48 192.751Z" fill="white" stroke="#2E353A" stroke-width="0.688784" stroke-linecap="round" stroke-linejoin="round"/>
<path d="M246.739 192.406C246.739 192.406 252.116 198.331 258.944 201.082L261.314 189.398C261.314 189.398 251.196 187.633 244.242 189.558" fill="white"/>
<path d="M246.739 192.406C246.739 192.406 252.116 198.331 258.944 201.082L261.314 189.398C261.314 189.398 251.196 187.633 244.242 189.558" stroke="#2E353A" stroke-width="0.688784" stroke-linecap="round" stroke-linejoin="round"/>
<path d="M295.589 186.687C295.531 182.314 295.736 177.942 296.203 173.595C296.95 168.041 298.521 166.063 298.521 157.547C298.521 149.615 290.601 147.698 287.64 147.243C286.95 148.386 286.388 149.603 285.965 150.872C285.718 152.107 280.476 162.851 279.235 170.882C278.262 177.299 279.077 184.179 279.444 186.687H272.534L272.856 189.202L259.918 188.627L256.703 201.696C256.703 201.696 263.672 204.727 268.713 206.818C273.753 208.909 283.893 210.864 289.973 208.924C294.984 207.333 298.715 204.59 298.035 198.87C297.525 194.752 296.708 190.679 295.589 186.687Z" fill="#FFCF23" stroke="#2E353A" stroke-width="0.688784" stroke-linecap="round" stroke-linejoin="round"/>
<path d="M281.086 147.441L274.767 156.707L275.499 158.806L273.428 161.155L273.062 167.951" stroke="#2E353A" stroke-width="0.688784" stroke-linecap="round" stroke-linejoin="round"/>
<path d="M286.954 150.905L286.588 158.314L284.03 159.921L285.003 161.898L280.007 171.407" stroke="#2E353A" stroke-width="0.688784" stroke-linecap="round" stroke-linejoin="round"/>
<path d="M276.472 125.319C276.472 125.319 275.029 128.608 275.149 129.585C275.268 130.562 275.037 131.714 274.102 132.085C273.167 132.456 272.15 133.199 272.606 134.01C272.932 134.502 273.378 134.901 273.9 135.169C273.9 135.169 273.287 139.23 273.661 140.298C274.034 141.367 274.775 143.397 275.986 143.246C277.198 143.094 280.234 142.836 280.234 142.836C280.878 144.838 280.979 146.979 280.526 149.034C279.778 152.618 277.115 155.952 280.039 156.687C282.963 157.421 284.676 153.603 286.022 150.883C287.368 148.163 288.071 144.602 288.677 142.549C289.283 140.495 290.172 138.381 290.172 138.381C288.858 137.971 287.662 137.242 286.688 136.259C285.713 135.275 284.989 134.067 284.579 132.737C282.889 127.971 282.986 124.721 280.451 124.046C279.738 123.826 278.977 123.829 278.266 124.056C277.556 124.284 276.93 124.724 276.472 125.319Z" fill="white" stroke="#2E353A" stroke-width="0.688784" stroke-linecap="round" stroke-linejoin="round"/>
<path d="M278.684 139.441C278.684 139.441 278.938 141.525 281.249 140.365" stroke="#2E353A" stroke-width="0.688784" stroke-linecap="round" stroke-linejoin="round"/>
<path d="M281.452 121.8C281.452 121.8 278.85 121.626 277.115 121.467C275.38 121.308 274.692 123.74 275.096 125.081C275.5 126.422 275.896 126.596 275.896 126.596C275.896 126.596 278.304 125.18 278.543 126.142C278.782 127.104 276.554 129.006 277.728 130.604C278.902 132.203 280.779 133.453 279.814 134.575C278.85 135.696 279.336 136.749 280.188 136.643C281.041 136.537 282.185 134.9 282.649 136.704C283.112 138.507 280.951 139.901 281.415 140.719C281.878 141.537 286.313 142.591 287.554 141.689C288.796 140.787 291.884 139.908 293.343 134.749C294.801 129.589 293.343 125.914 290.276 122.687C287.21 119.459 281.968 121.982 281.968 121.982L281.452 121.8Z" fill="#2E353A" stroke="#2E353A" stroke-width="0.688784" stroke-linecap="round" stroke-linejoin="round"/>
<path d="M286.193 125.942C286.678 126.18 287.133 126.478 287.546 126.829" stroke="white" stroke-width="0.516588" stroke-linecap="round" stroke-linejoin="round"/>
<path d="M278.575 125.127C280.716 124.746 282.914 124.857 285.006 125.453" stroke="white" stroke-width="0.516588" stroke-linecap="round" stroke-linejoin="round"/>
<path d="M251.367 185.733L251.734 184.869C252.1 184.005 256.011 183.27 259.878 182.71C266.137 181.808 269.196 180.793 272.822 180.05C277.309 179.126 282.081 177.952 282.081 177.952C282.081 177.952 290.127 179.8 288.811 182.498C287.495 185.195 283.808 185.71 283.808 185.71H253.252C253.321 186.078 253.253 186.46 253.061 186.78C252.869 187.1 252.567 187.337 252.212 187.445" fill="white"/>
<path d="M251.367 185.733L251.734 184.869C252.1 184.005 256.011 183.27 259.878 182.71C266.137 181.808 269.196 180.793 272.822 180.05C277.309 179.126 282.081 177.952 282.081 177.952C282.081 177.952 290.127 179.8 288.811 182.498C287.495 185.195 283.808 185.71 283.808 185.71H253.252C253.321 186.078 253.253 186.46 253.061 186.78C252.869 187.1 252.567 187.337 252.212 187.445" stroke="#2E353A" stroke-width="0.688784" stroke-linecap="round" stroke-linejoin="round"/>
<path d="M287.088 163.252C287.088 163.252 285.503 170.42 284.523 172.268C283.543 174.117 281.479 173.503 281.599 174.617C281.704 175.382 281.91 176.128 282.212 176.837C282.212 176.837 280.716 176.837 280.716 177.458C280.716 178.08 282.421 180.3 284.62 181.406C286.819 182.512 288.397 183.755 289.369 182.52C290.341 181.285 291.321 178.936 291.201 178.443C291.081 177.951 292.053 178.815 292.906 177.686C293.216 177.289 293.443 176.833 293.571 176.344C293.7 175.855 293.728 175.345 293.654 174.844C293.654 173.859 296.817 165.836 297.184 165.093" fill="#FFCF23"/>
<path d="M287.088 163.252C287.088 163.252 285.503 170.42 284.523 172.268C283.543 174.117 281.479 173.503 281.599 174.617C281.704 175.382 281.91 176.128 282.212 176.837C282.212 176.837 280.716 176.837 280.716 177.458C280.716 178.08 282.421 180.3 284.62 181.406C286.819 182.512 288.397 183.755 289.369 182.52C290.341 181.285 291.321 178.936 291.201 178.443C291.081 177.951 292.053 178.815 292.906 177.686C293.216 177.289 293.443 176.833 293.571 176.344C293.7 175.855 293.728 175.345 293.654 174.844C293.654 173.859 296.817 165.836 297.184 165.093" stroke="#2E353A" stroke-width="0.688784" stroke-linecap="round" stroke-linejoin="round"/>
<path d="M284.752 175.965C286.853 176.298 288.914 176.854 290.899 177.624" stroke="#2E353A" stroke-width="0.516588" stroke-linecap="round" stroke-linejoin="round"/>
<path d="M282.914 175.552C282.914 175.552 285.157 179.287 288.65 179.908" stroke="#2E353A" stroke-width="0.516588" stroke-linecap="round" stroke-linejoin="round"/>
<path d="M291.758 130.377C291.758 130.377 291.998 134.082 288.834 139.885C285.671 145.689 281.274 156.804 284.445 162.85C287.615 168.896 296.268 167.669 298.706 162.236C301.143 156.804 299.558 142.969 297.001 137.165C294.443 131.362 293.344 129.263 293.344 129.263C293.344 129.263 291.848 128.52 291.758 130.377Z" fill="#2E353A" stroke="#2E353A" stroke-width="0.688784" stroke-linecap="round" stroke-linejoin="round"/>
<path d="M292.926 163.642C294.105 163.629 295.244 163.204 296.149 162.437" stroke="white" stroke-width="0.516588" stroke-linecap="round" stroke-linejoin="round"/>
<path d="M292.412 132.702C293.076 139.979 292.313 147.318 290.168 154.295C288.8 158.523 289.002 161.41 290.699 162.812" stroke="white" stroke-width="0.516588" stroke-linecap="round" stroke-linejoin="round"/>
<path d="M292.034 137.246C292.034 137.246 288.295 146.906 285.303 153.536C282.312 160.165 284.929 164.332 289.416 165.279" stroke="white" stroke-width="0.516588" stroke-linecap="round" stroke-linejoin="round"/>
<path d="M279.492 186.689C279.492 186.689 278.939 192.993 280.09 193.865C281.242 194.736 289.573 197.365 295.047 195.615" stroke="#2E353A" stroke-width="0.688784" stroke-linecap="round" stroke-linejoin="round"/>
<path d="M272.9 189.228L278.075 190.106" stroke="#2E353A" stroke-width="0.688784" stroke-linecap="round" stroke-linejoin="round"/>
<path d="M252.581 248.664C254.353 247.906 256.32 244.739 258.242 244.875C260.284 244.997 260.538 244.004 260.538 241.958C260.476 241.114 260.245 240.291 259.857 239.541C259.805 239.632 259.753 239.716 259.7 239.814C258.511 242.189 256.477 244.019 254.009 244.936C252.992 245.323 251.871 245.323 250.854 244.936L250.614 245.034C250.48 245.178 250.338 245.315 250.188 245.459C249.672 245.936 246.673 248.073 247.017 249.058C247.586 250.664 251.601 249.088 252.581 248.664Z" fill="#FFCF23" stroke="#2E353A" stroke-width="0.688784" stroke-linecap="round" stroke-linejoin="round"/>
<path d="M227.252 227.424C226.505 227.697 225.757 227.932 225.091 228.106C222.721 228.75 221.778 229.227 222.1 229.871C222.422 230.515 227.335 231.629 229.526 231.955C231.717 232.281 233.16 231.629 233.796 231.629C234.432 231.629 235.217 232.432 236.481 231.955C237.542 231.546 237.154 229.121 237.004 227.22C235.345 227.759 233.632 228.113 231.896 228.273C228.681 228.53 227.537 227.735 227.252 227.424Z" fill="#FFCF23" stroke="#2E353A" stroke-width="0.688784" stroke-linecap="round" stroke-linejoin="round"/>
<path d="M293.275 238.026L293.178 237.95V224.001H295.152V215.182H287.831V224.001H289.813V238.208L272.306 243.86V245.269C272.334 245.675 272.513 246.055 272.806 246.333C273.1 246.611 273.486 246.765 273.888 246.765C274.29 246.765 274.676 246.611 274.97 246.333C275.264 246.055 275.442 245.675 275.47 245.269V245.027L290.112 243.299V245.428C290.112 245.8 290.258 246.156 290.517 246.419C290.777 246.682 291.129 246.83 291.496 246.83C291.862 246.83 292.214 246.682 292.474 246.419C292.733 246.156 292.879 245.8 292.879 245.428V243.231L308.112 245.027V245.231C308.14 245.637 308.318 246.017 308.612 246.295C308.906 246.573 309.292 246.727 309.694 246.727C310.095 246.727 310.482 246.573 310.776 246.295C311.069 246.017 311.248 245.637 311.275 245.231V243.822L293.275 238.026Z" fill="#2E353A" stroke="#2E353A" stroke-width="0.688784" stroke-linecap="round" stroke-linejoin="round"/>
<path d="M313.162 206.579H271.658C270.006 206.579 268.667 207.936 268.667 209.61V213.777C268.667 215.45 270.006 216.807 271.658 216.807H313.162C314.814 216.807 316.154 215.45 316.154 213.777V209.61C316.154 207.936 314.814 206.579 313.162 206.579Z" fill="#2E353A" stroke="#2E353A" stroke-width="0.688784" stroke-linecap="round" stroke-linejoin="round"/>
<path d="M229.592 183.852H250.128V159.819H229.592V183.852Z" fill="white" stroke="#2E353A" stroke-width="0.688784" stroke-linecap="round" stroke-linejoin="round"/>
<path d="M251.722 184.935H228.532V163.236H239.51L251.722 184.935Z" fill="white" stroke="#2E353A" stroke-width="0.688784" stroke-linecap="round" stroke-linejoin="round"/>
<path d="M223.558 186.143H236.825C237.065 186.122 237.288 186.01 237.451 185.83C237.614 185.649 237.704 185.414 237.704 185.17C237.704 184.925 237.614 184.69 237.451 184.509C237.288 184.329 237.065 184.217 236.825 184.196H223.558C223.241 184.194 222.928 184.126 222.639 183.995C222.349 183.865 222.089 183.675 221.876 183.438C221.616 183.151 221.433 182.801 221.345 182.421C221.258 182.042 221.268 181.646 221.375 181.271L226.078 164.186C226.147 163.938 226.115 163.672 225.99 163.448C225.865 163.223 225.658 163.058 225.413 162.989C225.168 162.92 224.906 162.952 224.684 163.078C224.463 163.205 224.3 163.415 224.231 163.663L219.52 180.749C219.347 181.38 219.321 182.042 219.442 182.685C219.564 183.329 219.831 183.934 220.222 184.456C220.612 184.977 221.117 185.4 221.696 185.692C222.274 185.983 222.912 186.135 223.558 186.136V186.143Z" fill="white" stroke="#2E353A" stroke-width="0.688784" stroke-linecap="round" stroke-linejoin="round"/>
<path d="M229.838 181.089L232.845 180.723L228.186 141.372L225.179 141.737L229.838 181.089Z" fill="white" stroke="#2E353A" stroke-width="0.688784" stroke-linecap="round" stroke-linejoin="round"/>
<path d="M225.209 141.716C222.265 154.986 223.907 168.879 229.861 181.069L225.209 141.716Z" fill="white" stroke="#2E353A" stroke-width="0.688784" stroke-linecap="round" stroke-linejoin="round"/>
<path d="M333.596 186.053H212.262V255.379H333.596V186.053Z" fill="#2E353A"/>
<path opacity="0.72" d="M333.592 186.059H212.258V255.385H333.592V186.059Z" fill="white"/>
<path d="M333.596 186.053H212.262V255.379H333.596V186.053Z" stroke="#2E353A" stroke-width="0.688784" stroke-linecap="round" stroke-linejoin="round"/>
<path d="M333.504 187.722H212.319V189.639H333.504V187.722Z" fill="#2E353A"/>
<path d="M334.478 184.917H209.614V187.948H334.478V184.917Z" fill="white" stroke="#2E353A" stroke-width="0.688784" stroke-linecap="round" stroke-linejoin="round"/>
<path d="M135.029 179.149L133.159 180.665C133.159 180.665 127.835 183.506 126.803 184.354C125.771 185.203 126.526 186.059 127.087 187.105C127.648 188.15 130.355 189.279 131.289 189.279C132.224 189.279 136.524 187.196 137.182 185.968C137.84 184.741 138.491 180.377 138.491 180.377L135.029 179.149Z" fill="white" stroke="#2E353A" stroke-width="0.688784" stroke-linecap="round" stroke-linejoin="round"/>
<path d="M134.067 183.405L133.79 185.678C133.79 185.678 129.954 187.951 130.328 188.618C130.702 189.285 131.076 189.088 133.319 188.429C135.563 187.769 137.058 186.534 137.156 185.966" stroke="#2E353A" stroke-width="0.688784" stroke-linecap="round" stroke-linejoin="round"/>
<path d="M129.986 182.933L130.921 187.381" stroke="#2E353A" stroke-width="0.688784" stroke-linecap="round" stroke-linejoin="round"/>
<path d="M127.928 183.976L129.895 188.809" stroke="#2E353A" stroke-width="0.688784" stroke-linecap="round" stroke-linejoin="round"/>
<path d="M127.086 184.73C127.086 184.73 127.55 187.382 128.672 188.238" stroke="#2E353A" stroke-width="0.688784" stroke-linecap="round" stroke-linejoin="round"/>
<path d="M135.69 176.118L134.942 179.528L138.494 180.377L140.079 176.588L135.69 176.118Z" fill="#FFCF23" stroke="#2E353A" stroke-width="0.688784" stroke-linecap="round" stroke-linejoin="round"/>
<path d="M130.326 137.708C130.021 139.933 130.119 142.195 130.618 144.383C131.455 147.323 135.008 161.908 135.479 162.946C135.95 163.984 135.853 165.598 135.568 167.303C135.284 169.007 136.413 173.084 136.413 173.364C136.413 173.644 134.821 174.788 134.731 175.925C134.641 177.061 136.503 177.819 138.186 178.008C139.868 178.198 140.99 178.008 142.022 173.273C143.054 168.538 140.055 162.188 138.186 154.71C136.316 147.232 133.796 141.732 133.422 140.216C133.048 138.701 130.894 135.958 130.326 137.708Z" fill="#FFCF23" stroke="#2E353A" stroke-width="0.688784" stroke-linecap="round" stroke-linejoin="round"/>
<path d="M149.9 241.113C149.9 241.113 151.77 243.636 151.396 244.393C151.022 245.151 147.156 246.288 146.408 246.924C145.307 248.034 143.929 248.82 142.422 249.197C140.051 249.826 134.315 250.834 134.944 249.826C135.572 248.818 142.669 243.636 142.669 243.636C145.034 242.669 147.448 241.827 149.9 241.113Z" fill="white" stroke="#2E353A" stroke-width="0.688784" stroke-linecap="round" stroke-linejoin="round"/>
<path d="M150.922 243.827C150.922 243.827 146.727 245.342 145.381 246.403C144.585 247.037 143.734 247.598 142.838 248.077" stroke="#2E353A" stroke-width="0.516588" stroke-linecap="round" stroke-linejoin="round"/>
<path d="M146.274 233.159L149.893 241.114C149.893 241.114 149.766 241.622 147.522 242.63C145.976 243.262 144.329 243.604 142.662 243.638L141.039 237.705L146.274 233.159Z" fill="#2E353A" stroke="#2E353A" stroke-width="0.688784" stroke-linecap="round" stroke-linejoin="round"/>
<path d="M140.177 174.191C140.177 174.191 137.305 175.956 137.186 176.714C137.229 177.822 137.394 178.923 137.679 179.994C137.679 179.994 131.824 192.374 130.081 195.526C128.339 198.678 125.841 204.868 128.331 208.785C130.822 212.703 138.307 231.136 138.307 231.136L135.81 245.282L142.166 246.926C142.166 246.926 146.032 236.319 147.401 232.402C148.769 228.485 152.015 218.385 152.516 214.847C153.017 211.308 153.383 206.262 153.511 205.884C153.638 205.505 164.481 189.465 165.977 185.806C167.472 182.146 167.345 174.441 166.598 172.796C165.85 171.152 140.177 174.191 140.177 174.191Z" fill="#2E353A" stroke="#2E353A" stroke-width="0.688784" stroke-linecap="round" stroke-linejoin="round"/>
<path d="M147.651 178.479L144.286 180.123L147.898 182.517L142.289 181.76L148.144 184.033" stroke="white" stroke-width="0.516588" stroke-linecap="round" stroke-linejoin="round"/>
<path d="M156.874 180.121L150.017 182.894C150.017 182.894 158.617 181.25 162.483 181.379" stroke="#2E353A" stroke-width="0.688784" stroke-linecap="round" stroke-linejoin="round"/>
<path d="M149.022 184.668C149.022 184.668 140.422 203.739 140.422 207.269C140.422 210.8 139.173 230.257 139.173 230.257" stroke="white" stroke-width="0.516588" stroke-linecap="round" stroke-linejoin="round"/>
<path d="M142.098 130.773C142.098 130.773 130.604 136.516 130.349 137.713C130.095 138.91 131.449 142.335 131.449 142.335C131.449 142.335 138.546 165.724 139.136 167.61C139.727 169.497 139.981 169.921 139.391 170.861C138.8 171.8 138.037 173.52 138.882 174.459C139.727 175.399 145.396 177.119 149.03 177.119C152.664 177.119 159.178 176.005 163.403 174.975C167.628 173.944 167.464 172.065 167.292 170.095C167.12 168.125 164.674 134.372 164.674 133.084C164.674 131.796 155.701 129.917 152.664 129.742C149.628 129.568 143.115 129.742 142.098 130.773Z" fill="#FFCF23" stroke="#2E353A" stroke-width="0.688784" stroke-linecap="round" stroke-linejoin="round"/>
<path d="M143.344 136.604L146.253 144.939L150.927 136.491C150.927 136.491 149.663 132.399 146.253 132.657C142.843 132.914 143.344 136.604 143.344 136.604Z" fill="#2E353A" stroke="#2E353A" stroke-width="0.688784" stroke-linecap="round" stroke-linejoin="round"/>
<path d="M146.246 144.922C146.246 144.922 144.75 168.084 144.75 169.235C144.75 170.387 143.614 174.1 143.614 174.1L146.141 177.039C146.141 177.039 150.18 174.1 150.815 171.925C151.451 169.751 146.246 144.922 146.246 144.922Z" fill="#2E353A" stroke="#2E353A" stroke-width="0.688784" stroke-linecap="round" stroke-linejoin="round"/>
<path d="M142.098 130C142.098 130 141.507 133.599 141.844 135.145C142.18 136.69 140.745 140.198 141.425 140.623C142.106 141.047 144.379 136.425 144.379 136.425L146.922 140.797L148.612 136.168C148.612 136.168 150.975 140.88 151.655 140.456C152.336 140.032 151.229 137.115 152.246 135.66C152.779 134.758 153.121 133.753 153.25 132.709C153.378 131.666 153.291 130.606 152.994 129.599C152.396 127.288 149.95 127.288 147.916 127.538C145.882 127.788 143.534 127.773 142.098 130Z" fill="#FFCF23" stroke="#2E353A" stroke-width="0.688784" stroke-linecap="round" stroke-linejoin="round"/>
<path d="M142.095 130.77C142.095 130.77 144.802 134.559 145.311 136.339C145.819 138.12 146.574 141.908 146.918 140.794C147.262 139.68 147.083 135.4 149.117 132.998C151.151 130.596 150.613 128.884 150.613 128.884C150.613 128.884 148.018 132.134 142.095 130.77Z" fill="white" stroke="#2E353A" stroke-width="0.688784" stroke-linecap="round" stroke-linejoin="round"/>
<path d="M136.69 123.923C136.69 123.923 139.981 130.515 143.368 132.258C146.756 134 150.301 132.174 151.228 129.522C152.155 126.871 151.31 123.461 151.31 123.461C151.31 123.461 153.172 122.347 153.426 120.893C153.681 119.438 153.935 118.923 151.991 117.809C151.244 117.325 150.449 116.921 149.62 116.604C149.62 116.604 149.538 113.695 147.848 112.755C146.158 111.816 142.613 112.324 140.489 114.634C138.365 116.945 136.69 123.923 136.69 123.923Z" fill="white" stroke="#2E353A" stroke-width="0.688784" stroke-linecap="round" stroke-linejoin="round"/>
<path d="M142.289 123.23C142.878 124.081 143.36 125.002 143.725 125.973C143.897 126.829 143.216 127.86 144.233 127.86C144.533 127.859 144.83 127.798 145.106 127.68C145.382 127.561 145.632 127.388 145.841 127.17" stroke="#2E353A" stroke-width="0.688784" stroke-linecap="round" stroke-linejoin="round"/>
<path d="M144.204 120.635C144.204 120.635 144.63 119.12 146.604 119.416" stroke="#2E353A" stroke-width="0.688784" stroke-linecap="round" stroke-linejoin="round"/>
<path d="M140.951 121.989C140.951 121.989 139.455 121.564 138.049 123.353" stroke="#2E353A" stroke-width="0.688784" stroke-linecap="round" stroke-linejoin="round"/>
<path d="M144.908 127.868L145.476 129.573C146.288 129.411 147.037 129.019 147.637 128.442C148.237 127.865 148.662 127.127 148.864 126.315" stroke="#2E353A" stroke-width="0.688784" stroke-linecap="round" stroke-linejoin="round"/>
<path d="M142.687 124.992C142.687 125.458 142.55 125.914 142.295 126.301C142.039 126.689 141.676 126.991 141.251 127.169C140.826 127.347 140.359 127.394 139.907 127.303C139.456 127.212 139.042 126.988 138.717 126.658C138.391 126.329 138.17 125.909 138.08 125.452C137.99 124.995 138.036 124.521 138.212 124.09C138.388 123.66 138.687 123.292 139.069 123.033C139.451 122.774 139.901 122.636 140.361 122.636C140.667 122.636 140.969 122.697 141.251 122.815C141.533 122.934 141.79 123.107 142.006 123.326C142.222 123.545 142.393 123.805 142.51 124.09C142.627 124.376 142.687 124.683 142.687 124.992V124.992Z" stroke="#2E353A" stroke-width="0.344392" stroke-linecap="round" stroke-linejoin="round"/>
<path d="M148.519 121.773L151.061 119.462" stroke="#2E353A" stroke-width="0.344392" stroke-linecap="round" stroke-linejoin="round"/>
<path d="M148.614 122.506C148.614 122.972 148.477 123.427 148.222 123.815C147.966 124.202 147.603 124.504 147.178 124.683C146.753 124.861 146.285 124.908 145.834 124.817C145.383 124.726 144.969 124.501 144.643 124.172C144.318 123.842 144.097 123.423 144.007 122.965C143.917 122.508 143.963 122.035 144.139 121.604C144.315 121.173 144.613 120.805 144.996 120.547C145.378 120.288 145.828 120.149 146.288 120.149C146.905 120.149 147.496 120.398 147.933 120.84C148.369 121.281 148.614 121.881 148.614 122.506V122.506Z" stroke="#2E353A" stroke-width="0.344392" stroke-linecap="round" stroke-linejoin="round"/>
<path d="M146.977 122.238C147.096 122.503 147.052 122.791 146.872 122.874C146.693 122.958 146.453 122.799 146.334 122.526C146.214 122.253 146.259 121.973 146.438 121.889C146.618 121.806 146.857 121.965 146.977 122.238Z" fill="#2E353A"/>
<path d="M141.769 124.356C141.889 124.629 141.844 124.916 141.664 124.992C141.485 125.068 141.246 124.924 141.126 124.651C141.006 124.378 141.051 124.098 141.231 124.015C141.41 123.931 141.649 124.083 141.769 124.356Z" fill="#2E353A"/>
<path d="M142.289 124.091C142.289 124.091 143.216 122.894 144.061 123.409" stroke="#2E353A" stroke-width="0.344392" stroke-linecap="round" stroke-linejoin="round"/>
<path d="M143.708 116.223C143.708 116.223 140.836 119.39 138.637 122.284C137.843 123.432 136.965 124.518 136.013 125.535C135.491 124.559 135.038 123.546 134.659 122.504C134.39 121.688 134.081 120.886 133.732 120.102L132.984 121.815C132.984 121.815 130.785 113.48 133.156 109.654C135.526 105.828 140.881 104.82 144.942 106.275C149.002 107.73 149.556 111.541 150.318 113.511C151.081 115.481 151.754 117.958 151.754 117.958L150.655 120.36C150.655 120.36 148.628 118.564 147.611 117.617C146.978 117.005 146.512 116.238 146.258 115.39C146.258 115.39 144.568 117.451 144.059 118.049C143.786 118.382 143.437 118.642 143.042 118.807L143.708 116.223Z" fill="#2E353A" stroke="#2E353A" stroke-width="0.688784" stroke-linecap="round" stroke-linejoin="round"/>
<path d="M144.492 108.14C143.574 111.964 141.666 115.471 138.966 118.3" stroke="white" stroke-width="0.516588" stroke-linecap="round" stroke-linejoin="round"/>
<path d="M145.512 108.762C145.709 110.959 145.357 113.171 144.488 115.194" stroke="white" stroke-width="0.516588" stroke-linecap="round" stroke-linejoin="round"/>
<path d="M163.979 132.247C163.979 132.247 167.239 133.111 168.376 134.694C169.513 136.278 177.17 158.121 177.455 161.857C177.739 165.592 176.602 173.35 176.886 174.214C177.17 175.078 178.023 176.229 177.17 176.661C176.395 177.146 175.679 177.724 175.039 178.381C173.188 178.29 171.343 178.097 169.513 177.805C168.66 177.518 167.524 175.654 168.376 174.502C168.993 173.728 169.343 172.769 169.371 171.774C169.371 171.199 167.598 164.13 167.598 162.682C167.603 161.366 167.534 160.051 167.389 158.743C166.889 156.636 166.275 154.56 165.549 152.522C163.273 148.336 162.142 143.609 162.274 138.831" fill="#FFCF23"/>
<path d="M163.979 132.247C163.979 132.247 167.239 133.111 168.376 134.694C169.513 136.278 177.17 158.121 177.455 161.857C177.739 165.592 176.602 173.35 176.886 174.214C177.17 175.078 178.023 176.229 177.17 176.661C176.395 177.146 175.679 177.724 175.039 178.381C173.188 178.29 171.343 178.097 169.513 177.805C168.66 177.518 167.524 175.654 168.376 174.502C168.993 173.728 169.343 172.769 169.371 171.774C169.371 171.199 167.598 164.13 167.598 162.682C167.603 161.366 167.534 160.051 167.389 158.743C166.889 156.636 166.275 154.56 165.549 152.522C163.273 148.336 162.142 143.609 162.274 138.831" stroke="#2E353A" stroke-width="0.688784" stroke-linecap="round" stroke-linejoin="round"/>
<path d="M169.544 177.804L169.26 180.539L173.942 181.251L175.071 178.379L169.544 177.804Z" fill="#FFCF23" stroke="#2E353A" stroke-width="0.688784" stroke-linecap="round" stroke-linejoin="round"/>
<path d="M169.259 180.54C169.259 180.54 163.868 182.979 163.441 183.699C163.015 184.419 162.163 187.866 161.594 188.298C161.026 188.73 160.465 189.306 162.02 189.162C163.576 189.018 164.01 188.154 164.01 188.154C163.936 188.685 163.936 189.223 164.01 189.753C165.178 189.896 166.355 189.97 167.532 189.973C167.884 190.02 168.241 190.02 168.594 189.973C168.594 189.973 168.31 190.662 168.841 190.889C169.372 191.117 169.342 190.602 169.686 190.132C170.099 189.35 170.452 188.537 170.74 187.7C170.913 187.273 171.039 186.829 171.114 186.374C171.968 185.907 172.747 185.311 173.425 184.608C174.173 183.692 173.769 181.04 173.769 181.04L169.259 180.54Z" fill="white" stroke="#2E353A" stroke-width="0.688784" stroke-linecap="round" stroke-linejoin="round"/>
<path d="M164.01 188.16L164.294 184.546" stroke="#2E353A" stroke-width="0.688784" stroke-linecap="round" stroke-linejoin="round"/>
<path d="M165.411 189.948L165.875 184.834" stroke="#2E353A" stroke-width="0.688784" stroke-linecap="round" stroke-linejoin="round"/>
<path d="M167.19 189.843L167.938 185.108" stroke="#2E353A" stroke-width="0.688784" stroke-linecap="round" stroke-linejoin="round"/>
<path d="M168.622 189.947C168.622 189.947 169.243 185.87 169.37 185.401" stroke="#2E353A" stroke-width="0.688784" stroke-linecap="round" stroke-linejoin="round"/>
<path d="M135.808 245.283C135.808 245.283 133.692 247.177 133.318 247.427C132.944 247.677 126.087 251.473 126.214 252.48C126.341 253.488 133.445 252.988 137.431 251.973C141.417 250.957 141.671 250.586 141.791 249.957C141.911 249.329 142.165 246.927 142.165 246.927L135.808 245.283Z" fill="white" stroke="#2E353A" stroke-width="0.688784" stroke-linecap="round" stroke-linejoin="round"/>
<path d="M127.566 252.017C127.566 252.017 136.996 251.865 140.743 249.44" stroke="#2E353A" stroke-width="0.516588" stroke-linecap="round" stroke-linejoin="round"/>
<path d="M85.0542 246.495C85.0542 246.495 93.0111 248.669 94.9105 250.336C96.81 252.003 91.1191 252.511 87.5819 252.382C84.0447 252.253 83.6708 251.23 81.1431 251.23C78.6155 251.23 76.3421 252.382 75.9607 250.079C75.5793 247.775 78.7426 246.881 80.8889 246.366C82.2673 246.069 83.6963 246.113 85.0542 246.495Z" fill="white" stroke="#2E353A" stroke-width="0.688784" stroke-linecap="round" stroke-linejoin="round"/>
<path d="M82.7557 250.2C82.7557 250.2 86.6519 252.776 93.5393 251.261" stroke="#2E353A" stroke-width="0.516588" stroke-linecap="round" stroke-linejoin="round"/>
<path d="M77.0957 247.777C79.0277 249.046 81.0556 250.158 83.1605 251.103C85.9424 252.255 87.9615 252.619 86.6977 253.664C85.4339 254.71 85.0525 254.816 81.8967 255.452C78.7409 256.089 72.4218 254.43 71.7936 254.43C71.1654 254.43 70.5298 255.187 68.8023 254.558C67.0748 253.929 66.7832 253.043 67.4114 250.975C68.0395 248.906 76.0861 247.133 77.0957 247.777Z" fill="white" stroke="#2E353A" stroke-width="0.688784" stroke-linecap="round" stroke-linejoin="round"/>
<path d="M70.6349 253.078C75.4083 254.789 80.5899 254.948 85.4567 253.532" stroke="#2E353A" stroke-width="0.516588" stroke-linecap="round" stroke-linejoin="round"/>
<path d="M94.6539 159.099L96.1496 175.222C96.1496 175.222 93.9958 198.384 91.3486 205.93C88.7013 213.477 86.2933 221.796 85.4108 224.872C84.5284 227.948 83.646 239.972 84.4013 242.397C84.8273 243.542 85.0402 244.757 85.0295 245.98V246.496C85.0295 246.496 85.538 246.882 83.7656 247.905C82.4982 248.579 81.1363 249.051 79.7274 249.307L77.0726 247.791C77.0726 247.791 73.2887 250.602 71.8977 251.375C70.4382 251.985 68.9117 252.415 67.3509 252.655C66.7705 251.728 66.4309 250.668 66.3638 249.572V244.586C66.3638 242.791 65.1 233.979 65.2271 228.592C65.3543 223.205 66.3638 217.326 67.3734 214.644C68.3829 211.961 71.793 203.764 71.793 203.764C71.6278 200.292 71.0759 196.851 70.1478 193.505C68.5101 186.981 68.1287 183.655 65.9824 176.617C63.8362 169.578 68.1287 159.19 68.1287 159.19C68.1287 159.19 78.1046 160.978 83.5413 160.706C87.2831 160.484 91.0002 159.947 94.6539 159.099Z" fill="#2E353A" stroke="#2E353A" stroke-width="0.688784" stroke-linecap="round" stroke-linejoin="round"/>
<path d="M75.7369 172.918C76.2891 173.91 76.922 174.852 77.6289 175.737" stroke="white" stroke-width="0.516588" stroke-linecap="round" stroke-linejoin="round"/>
<path d="M82.533 163.068L86.6983 163.197L86.5712 162.166" stroke="white" stroke-width="0.516588" stroke-linecap="round" stroke-linejoin="round"/>
<path d="M88.2133 162.444V163.467C88.2133 163.467 91.743 164.368 94.5249 162.83" stroke="white" stroke-width="0.516588" stroke-linecap="round" stroke-linejoin="round"/>
<path d="M92.2537 164.718L91.2442 168.688L92.8819 170.961C92.8819 170.961 90.4889 175.182 90.4889 175.568" stroke="white" stroke-width="0.516588" stroke-linecap="round" stroke-linejoin="round"/>
<path d="M93.0095 176.371L88.8441 179.864C88.8441 179.864 86.3165 201.617 84.9255 207.246C83.5346 212.876 78.3596 231.173 77.7315 235.28C77.3792 237.268 77.1295 239.273 76.9836 241.288C76.9836 241.674 77.7315 243.084 77.7315 243.849V246.796" stroke="white" stroke-width="0.516588" stroke-linecap="round" stroke-linejoin="round"/>
<path d="M80.6333 161.405C80.6333 161.405 88.2162 162.428 91.6263 162.163C95.0363 161.898 95.5374 160.504 95.9188 159.223C96.3002 157.943 91.372 127.492 91.1178 125.697C90.8635 123.901 91.2449 120.961 88.8743 119.938C86.5037 118.915 81.3961 120.696 80.5361 124.166C79.6761 127.636 82.4355 147.707 81.6728 152.056C81.1653 155.152 80.8184 158.272 80.6333 161.405Z" fill="white" stroke="#2E353A" stroke-width="0.688784" stroke-linecap="round" stroke-linejoin="round"/>
<path d="M87.1946 125.958L89.094 129.413L89.7222 158.075L91.9956 163.576L93.8876 156.795L90.2307 129.155L90.7318 125.064L89.2212 121.738L87.1946 125.958Z" fill="#2E353A" stroke="#2E353A" stroke-width="0.688784" stroke-linecap="round" stroke-linejoin="round"/>
<path d="M89.7258 124.551L91.9992 128.521L90.8625 121.224L88.5891 122.634L89.7258 124.551Z" fill="white" stroke="#2E353A" stroke-width="0.688784" stroke-linecap="round" stroke-linejoin="round"/>
<path d="M84.1697 113.289L83.5415 116.229L88.7164 125.571C88.7164 125.571 90.2644 122.085 90.8627 121.222C91.4609 120.358 93.854 116.562 93.854 116.562C93.854 116.562 90.0176 116.873 89.367 114.569C88.7164 112.266 89.367 109.069 86.9665 108.811C84.566 108.554 84.1697 113.289 84.1697 113.289Z" fill="white" stroke="#2E353A" stroke-width="0.688784" stroke-linecap="round" stroke-linejoin="round"/>
<path d="M86.6801 111.477L86.9269 112.341C86.7912 112.767 86.7516 113.218 86.8112 113.661C86.8707 114.105 87.0278 114.529 87.2709 114.902C88.1085 115.986 92.8123 118.599 94.8688 117.986C96.9253 117.372 97.5535 111.326 97.5535 111.326C97.5535 111.326 99.5202 111.28 99.3183 110.136C99.1164 108.992 97.9722 107.742 97.8227 106.439C97.6731 105.136 98.3985 104.802 98.0994 103.295C97.9102 101.795 97.1409 100.432 95.9606 99.5064C94.5996 98.4456 87.1587 101.848 84.9527 104.234C82.7466 106.621 82.2904 109.151 82.8363 110.591C83.3822 112.031 86.6801 111.477 86.6801 111.477Z" fill="white" stroke="#2E353A" stroke-width="0.688784" stroke-linecap="round" stroke-linejoin="round"/>
<path d="M96.1948 107.018C96.1948 107.488 95.9929 107.852 95.8059 107.844C95.619 107.837 95.4993 107.443 95.5292 106.98C95.5591 106.518 95.7311 106.147 95.9181 106.155C96.105 106.162 96.2247 106.556 96.1948 107.018Z" fill="#2E353A"/>
<path d="M96.72 104.855C96.72 104.855 95.7778 103.977 94.8206 105.416" stroke="#2E353A" stroke-width="0.688784" stroke-linecap="round" stroke-linejoin="round"/>
<path d="M94.9892 113.193C94.5228 113.065 94.1155 112.775 93.8375 112.375" stroke="#2E353A" stroke-width="0.688784" stroke-linecap="round" stroke-linejoin="round"/>
<path d="M87.5988 106.01L87.352 108.352L88.8102 107.92C88.8102 107.92 88.0624 109.753 89.0944 108.905C90.1264 108.056 91.5847 105.23 92.0408 104.965C92.497 104.7 95.0321 102.207 96.797 100.487C98.5618 98.7672 99.3097 96.4185 98.7114 95.2593C98.1131 94.1 90.8742 89.0464 84.2635 92.5999C77.6527 96.1533 75.8654 101.351 76.5609 104.215C77.2564 107.079 82.5435 114.565 83.5231 114.678C84.5028 114.792 86.6789 111.481 86.6789 111.481C86.6789 111.481 83.8297 110.723 84.4355 109.488C85.0412 108.253 87.5988 106.01 87.5988 106.01Z" fill="#2E353A" stroke="#2E353A" stroke-width="0.688784" stroke-linecap="round" stroke-linejoin="round"/>
<path d="M83.2857 106.649C82.4213 107.271 81.5113 107.826 80.5636 108.308" stroke="white" stroke-width="0.516588" stroke-linecap="round" stroke-linejoin="round"/>
<path d="M95.0817 94.2859C92.4209 97.9833 89.3885 101.391 86.0331 104.454" stroke="white" stroke-width="0.516588" stroke-linecap="round" stroke-linejoin="round"/>
<path d="M81.2912 104.736C81.0071 105.002 80.7154 105.274 80.4088 105.547" stroke="white" stroke-width="0.516588" stroke-linecap="round" stroke-linejoin="round"/>
<path d="M89.6279 94.6063C87.6774 97.7744 85.3657 100.699 82.7405 103.319" stroke="white" stroke-width="0.516588" stroke-linecap="round" stroke-linejoin="round"/>
<path d="M83.2858 115.209L89.7245 124.551L85.0506 129.286L81.7677 116.49L83.2858 115.209Z" fill="white" stroke="#2E353A" stroke-width="0.688784" stroke-linecap="round" stroke-linejoin="round"/>
<path d="M80.0035 117.261L71.1643 120.201C71.1643 120.201 64.217 153.728 63.686 154.622C63.1551 155.516 54.0915 172.048 55.2282 173.813C56.3648 175.579 67.1933 181.496 68.1057 181.11C69.018 180.723 75.4343 168.313 79.323 164.729C83.2117 161.145 87.1976 156.667 87.6986 151.682L84.2885 136.961L83.9071 127.747L80.0035 117.261Z" fill="#FFCF23" stroke="#2E353A" stroke-width="0.688784" stroke-linecap="round" stroke-linejoin="round"/>
<path d="M82.5313 116.491L80.0037 117.264L79.368 129.803L83.668 132.235L81.1404 136.069L87.7063 151.684L85.0515 127.5L82.5313 116.491Z" fill="#FFCF23" stroke="#2E353A" stroke-width="0.688784" stroke-linecap="round" stroke-linejoin="round"/>
<path d="M74.3573 170.601L64.2692 179.496C64.2692 179.496 65.2638 180.708 68.1279 181.11C68.1279 181.11 72.6149 174.897 74.3573 170.601Z" fill="#FFCF23" stroke="#2E353A" stroke-width="0.688784" stroke-linecap="round" stroke-linejoin="round"/>
<path d="M75.9566 163.198C77.6474 163.228 79.3352 163.354 81.0119 163.577C81.8943 163.835 85.3044 167.419 85.3044 167.419C85.3044 167.419 85.3044 167.805 84.0405 168.176C82.7767 168.548 80.5033 166.896 80.5033 166.896L75.5827 171.631L72.5465 167.798L75.9566 163.198Z" fill="white" stroke="#2E353A" stroke-width="0.688784" stroke-linecap="round" stroke-linejoin="round"/>
<path d="M75.5837 161.787L76.7204 163.318L72.5475 167.796L72.0465 166.136L75.5837 161.787Z" fill="white" stroke="#2E353A" stroke-width="0.688784" stroke-linecap="round" stroke-linejoin="round"/>
<path d="M78.7266 118.283C78.7266 118.283 66.8512 118.283 65.9687 119.306C65.0863 120.329 55.7385 148.991 55.7385 150.65C55.7385 152.31 71.7793 167.546 71.7793 167.546L76.3261 161.917L67.2475 147.453L74.449 131.716" fill="#FFCF23"/>
<path d="M78.7266 118.283C78.7266 118.283 66.8512 118.283 65.9687 119.306C65.0863 120.329 55.7385 148.991 55.7385 150.65C55.7385 152.31 71.7793 167.546 71.7793 167.546L76.3261 161.917L67.2475 147.453L74.449 131.716" stroke="#2E353A" stroke-width="0.688784" stroke-linecap="round" stroke-linejoin="round"/>
</g>
<defs>
<clipPath id="clip0_20_903">
<rect width="380" height="264" fill="white" transform="translate(0 0.800049)"/>
</clipPath>
</defs>
</svg>
