<svg width="288" height="291" viewBox="0 0 288 291" fill="none" xmlns="http://www.w3.org/2000/svg">
<path d="M263.81 77.1686C248.579 47.7221 219.669 27.3185 188.547 19.5881C158.835 12.2177 123.064 12.5778 100.701 36.8611C85.9743 52.8505 80.064 75.1126 67.0797 92.3798C60.6191 100.964 52.5362 104.89 44.0692 110.896C23.4434 125.538 8.26927 149.101 11.577 175.748C17.1376 220.301 57.2541 244.23 97.5655 246.919C150.844 250.468 188.839 243.254 221.114 222.357C237.882 211.502 254.598 198.62 264.83 180.795C280.308 153.84 279.672 119.84 269.663 90.8987C268.04 86.1854 266.084 81.5968 263.81 77.1686Z" fill="#FFCF23"/>
<path opacity="0.8" d="M263.81 77.1686C248.579 47.7221 219.669 27.3185 188.547 19.5881C158.835 12.2177 123.064 12.5778 100.701 36.8611C85.9743 52.8505 80.064 75.1126 67.0797 92.3798C60.6191 100.964 52.5362 104.89 44.0692 110.896C23.4434 125.538 8.26927 149.101 11.577 175.748C17.1376 220.301 57.2541 244.23 97.5655 246.919C150.844 250.468 188.839 243.254 221.114 222.357C237.882 211.502 254.598 198.62 264.83 180.795C280.308 153.84 279.672 119.84 269.663 90.8987C268.04 86.1854 266.084 81.5968 263.81 77.1686Z" fill="white"/>
<path d="M141.765 272.877H136.29V31.5783C136.29 30.8435 136.578 30.1389 137.091 29.6193C137.604 29.0998 138.299 28.8079 139.024 28.8079C139.384 28.8071 139.74 28.8782 140.073 29.0171C140.405 29.156 140.707 29.3599 140.962 29.6172C141.216 29.8746 141.418 30.1802 141.556 30.5167C141.694 30.8532 141.765 31.214 141.765 31.5783V272.877Z" fill="#FFCF23" stroke="#2E353A" stroke-width="0.754286" stroke-linecap="round" stroke-linejoin="round"/>
<path d="M136.135 60.9504H88.1587V78.0666H136.135V60.9504Z" fill="#2E353A" stroke="#2E353A" stroke-width="0.754286" stroke-linecap="round" stroke-linejoin="round"/>
<path d="M189.831 42.6017H141.855V59.7179H189.831V42.6017Z" fill="#2E353A" stroke="#2E353A" stroke-width="0.754286" stroke-linecap="round" stroke-linejoin="round"/>
<path d="M141.855 89.769L168.644 93.219V69.2029L141.855 72.6528V89.769Z" fill="#2E353A" stroke="#2E353A" stroke-width="0.754286" stroke-linecap="round" stroke-linejoin="round"/>
<path d="M163.244 81.6656L157.333 75.0619V77.9427L144.985 78.4363V84.709L157.333 85.3304V88.2112L163.244 81.6656Z" fill="#FFCF23" stroke="#2E353A" stroke-width="0.754286" stroke-linecap="round" stroke-linejoin="round"/>
<path d="M182.515 49.9137L173.401 44.5819V46.9167H149.364V52.9106H173.401V55.2512L182.515 49.9137Z" fill="#FFCF23" stroke="#2E353A" stroke-width="0.754286" stroke-linecap="round" stroke-linejoin="round"/>
<path d="M95.8519 69.6326L104.967 64.3009V66.6357H129.003V72.6296H104.967V74.9644L95.8519 69.6326Z" fill="#FFCF23" stroke="#2E353A" stroke-width="0.754286" stroke-linecap="round" stroke-linejoin="round"/>
<path d="M213.559 78.1261C224.539 78.1261 233.44 69.1081 233.44 57.9839C233.44 46.8597 224.539 37.8418 213.559 37.8418C202.58 37.8418 193.679 46.8597 193.679 57.9839C193.679 69.1081 202.58 78.1261 213.559 78.1261Z" stroke="#2E353A" stroke-width="0.754286" stroke-linecap="round" stroke-linejoin="round"/>
<path d="M226.635 71.2844C225.301 72.6276 223.774 73.7594 222.107 74.6414" stroke="#2E353A" stroke-width="0.754286" stroke-linecap="round" stroke-linejoin="round"/>
<path d="M219.458 75.7862C215.336 77.1911 210.858 77.0829 206.806 75.4807C202.755 73.8786 199.389 70.8843 197.296 67.0216C195.203 63.159 194.517 58.6739 195.358 54.3508C196.199 50.0277 198.514 46.1417 201.897 43.3727C205.28 40.6036 209.516 39.1277 213.865 39.2031C218.213 39.2784 222.397 40.9003 225.684 43.7849C228.972 46.6696 231.154 50.6335 231.849 54.9832C232.543 59.3329 231.706 63.7917 229.485 67.5795" stroke="#2E353A" stroke-width="0.754286" stroke-linecap="round" stroke-linejoin="round"/>
<path d="M213.557 59.4703C214.368 59.4703 215.025 58.8046 215.025 57.9834C215.025 57.1623 214.368 56.4966 213.557 56.4966C212.747 56.4966 212.09 57.1623 212.09 57.9834C212.09 58.8046 212.747 59.4703 213.557 59.4703Z" fill="#2E353A" stroke="#2E353A" stroke-width="0.754286" stroke-linecap="round" stroke-linejoin="round"/>
<path d="M215.669 66.3306L213.559 57.9845L225.873 49.4409" stroke="#2E353A" stroke-width="0.754286" stroke-linecap="round" stroke-linejoin="round"/>
<path d="M82.9189 110.245V139.999H61.0435" stroke="#2E353A" stroke-width="0.754286" stroke-linecap="round" stroke-linejoin="round"/>
<path d="M43.0946 135.329V102.125H82.9188V107.619" stroke="#2E353A" stroke-width="0.754286" stroke-linecap="round" stroke-linejoin="round"/>
<path d="M57.9018 139.997H43.0946V137.575" stroke="#2E353A" stroke-width="0.754286" stroke-linecap="round" stroke-linejoin="round"/>
<path d="M49.4052 111.446H45.5186V115.383H49.4052V111.446Z" stroke="#2E353A" stroke-width="0.754286" stroke-linecap="round" stroke-linejoin="round"/>
<path d="M54.588 111.446H50.7013V115.383H54.588V111.446Z" stroke="#2E353A" stroke-width="0.754286" stroke-linecap="round" stroke-linejoin="round"/>
<path d="M59.7706 111.446H55.8839V115.383H59.7706V111.446Z" stroke="#2E353A" stroke-width="0.754286" stroke-linecap="round" stroke-linejoin="round"/>
<path d="M64.9533 111.446H61.0667V115.383H64.9533V111.446Z" stroke="#2E353A" stroke-width="0.754286" stroke-linecap="round" stroke-linejoin="round"/>
<path d="M70.1359 111.446H66.2493V115.383H70.1359V111.446Z" stroke="#2E353A" stroke-width="0.754286" stroke-linecap="round" stroke-linejoin="round"/>
<path d="M75.3187 111.446H71.432V115.383H75.3187V111.446Z" stroke="#2E353A" stroke-width="0.754286" stroke-linecap="round" stroke-linejoin="round"/>
<path d="M80.4994 111.446H76.6127V115.383H80.4994V111.446Z" stroke="#2E353A" stroke-width="0.754286" stroke-linecap="round" stroke-linejoin="round"/>
<path d="M49.4052 117.661H45.5186V121.599H49.4052V117.661Z" stroke="#2E353A" stroke-width="0.754286" stroke-linecap="round" stroke-linejoin="round"/>
<path d="M54.588 117.661H50.7013V121.599H54.588V117.661Z" stroke="#2E353A" stroke-width="0.754286" stroke-linecap="round" stroke-linejoin="round"/>
<path d="M59.7706 117.661H55.8839V121.599H59.7706V117.661Z" stroke="#2E353A" stroke-width="0.754286" stroke-linecap="round" stroke-linejoin="round"/>
<path d="M64.9533 117.661H61.0667V121.599H64.9533V117.661Z" stroke="#2E353A" stroke-width="0.754286" stroke-linecap="round" stroke-linejoin="round"/>
<path d="M70.1359 117.661H66.2493V121.599H70.1359V117.661Z" stroke="#2E353A" stroke-width="0.754286" stroke-linecap="round" stroke-linejoin="round"/>
<path d="M75.3187 117.661H71.432V121.599H75.3187V117.661Z" stroke="#2E353A" stroke-width="0.754286" stroke-linecap="round" stroke-linejoin="round"/>
<path d="M80.4994 117.661H76.6127V121.599H80.4994V117.661Z" stroke="#2E353A" stroke-width="0.754286" stroke-linecap="round" stroke-linejoin="round"/>
<path d="M49.4052 123.877H45.5186V127.815H49.4052V123.877Z" stroke="#2E353A" stroke-width="0.754286" stroke-linecap="round" stroke-linejoin="round"/>
<path d="M54.588 123.877H50.7013V127.815H54.588V123.877Z" stroke="#2E353A" stroke-width="0.754286" stroke-linecap="round" stroke-linejoin="round"/>
<path d="M59.7706 123.877H55.8839V127.815H59.7706V123.877Z" stroke="#2E353A" stroke-width="0.754286" stroke-linecap="round" stroke-linejoin="round"/>
<path d="M64.9533 123.877H61.0667V127.815H64.9533V123.877Z" stroke="#2E353A" stroke-width="0.754286" stroke-linecap="round" stroke-linejoin="round"/>
<path d="M70.1359 123.877H66.2493V127.815H70.1359V123.877Z" stroke="#2E353A" stroke-width="0.754286" stroke-linecap="round" stroke-linejoin="round"/>
<path d="M75.3187 123.877H71.432V127.815H75.3187V123.877Z" stroke="#2E353A" stroke-width="0.754286" stroke-linecap="round" stroke-linejoin="round"/>
<path d="M80.4994 123.877H76.6127V127.815H80.4994V123.877Z" stroke="#2E353A" stroke-width="0.754286" stroke-linecap="round" stroke-linejoin="round"/>
<path d="M49.4052 130.091H45.5186V134.029H49.4052V130.091Z" stroke="#2E353A" stroke-width="0.754286" stroke-linecap="round" stroke-linejoin="round"/>
<path d="M54.588 130.091H50.7013V134.029H54.588V130.091Z" stroke="#2E353A" stroke-width="0.754286" stroke-linecap="round" stroke-linejoin="round"/>
<path d="M59.7706 130.091H55.8839V134.029H59.7706V130.091Z" stroke="#2E353A" stroke-width="0.754286" stroke-linecap="round" stroke-linejoin="round"/>
<path d="M64.9533 130.091H61.0667V134.029H64.9533V130.091Z" stroke="#2E353A" stroke-width="0.754286" stroke-linecap="round" stroke-linejoin="round"/>
<path d="M70.1359 130.091H66.2493V134.029H70.1359V130.091Z" stroke="#2E353A" stroke-width="0.754286" stroke-linecap="round" stroke-linejoin="round"/>
<path d="M75.3187 130.091H71.432V134.029H75.3187V130.091Z" stroke="#2E353A" stroke-width="0.754286" stroke-linecap="round" stroke-linejoin="round"/>
<path d="M80.4994 130.091H76.6127V134.029H80.4994V130.091Z" stroke="#2E353A" stroke-width="0.754286" stroke-linecap="round" stroke-linejoin="round"/>
<path d="M50.1413 104.803H48.4215V98.4139H50.1413V104.803ZM57.0204 98.4139H55.3006V104.803H57.0204V98.4139ZM63.8995 98.4139H62.1797V104.803H63.8995V98.4139ZM70.7785 98.4139H69.0588V104.803H70.7785V98.4139ZM77.6576 98.4139H75.9379V104.803H77.6576V98.4139Z" fill="#2E353A" stroke="#2E353A" stroke-width="0.754286" stroke-linecap="round" stroke-linejoin="round"/>
<path d="M63.0107 165.461C60.0059 165.46 57.0682 166.361 54.5693 168.052C52.0703 169.742 50.1223 172.146 48.9716 174.958C47.8209 177.77 47.5193 180.865 48.1048 183.851C48.6903 186.837 50.1367 189.58 52.261 191.733C54.3853 193.886 57.0922 195.353 60.0391 195.947C62.9861 196.542 66.0409 196.237 68.8171 195.072C71.5933 193.908 73.9662 191.935 75.6357 189.404C77.3051 186.872 78.1962 183.896 78.1962 180.852C78.197 178.831 77.8048 176.83 77.042 174.963C76.2791 173.095 75.1607 171.399 73.7505 169.969C72.3403 168.54 70.666 167.406 68.8233 166.633C66.9805 165.859 65.0053 165.461 63.0107 165.461V165.461ZM63.0107 190.586C61.1088 190.587 59.2493 190.017 57.6675 188.947C56.0857 187.877 54.8526 186.356 54.1243 184.576C53.396 182.796 53.2051 180.837 53.5758 178.948C53.9466 177.058 54.8623 175.322 56.2071 173.959C57.552 172.597 59.2654 171.669 61.1308 171.293C62.9962 170.918 64.9296 171.111 66.6865 171.849C68.4434 172.587 69.9448 173.836 71.0007 175.439C72.0566 177.041 72.6196 178.925 72.6185 180.852C72.6169 183.433 71.6042 185.908 69.8027 187.734C68.0012 189.559 65.5583 190.585 63.0107 190.586V190.586Z" stroke="#2E353A" stroke-width="0.754286" stroke-linecap="round" stroke-linejoin="round"/>
<path d="M63.3193 165.467V171.13C65.1872 171.188 66.9976 171.798 68.5283 172.884C70.059 173.97 71.2435 175.485 71.9363 177.243C72.629 179.002 72.8 180.927 72.4281 182.782C72.0563 184.638 71.1578 186.343 69.843 187.688L74.2284 191.219C76.1945 189.037 77.4985 186.326 77.9845 183.413C78.4706 180.499 78.1182 177.505 76.9694 174.789C75.8206 172.073 73.9241 169.749 71.5065 168.096C69.0889 166.443 66.2525 165.53 63.3365 165.467H63.3193Z" stroke="#2E353A" stroke-width="0.754286" stroke-linecap="round" stroke-linejoin="round"/>
<path d="M57.4268 180.219H68.2785" stroke="#2E353A" stroke-width="0.754286" stroke-linecap="round" stroke-linejoin="round"/>
<path d="M57.4268 183.048H68.2785" stroke="#2E353A" stroke-width="0.754286" stroke-linecap="round" stroke-linejoin="round"/>
<path d="M200.791 111.773H230.342" stroke="#2E353A" stroke-width="0.754286" stroke-linecap="round" stroke-linejoin="round"/>
<path d="M189.018 111.773H192.056" stroke="#2E353A" stroke-width="0.754286" stroke-linecap="round" stroke-linejoin="round"/>
<path d="M210.635 116.523H230.344" stroke="#2E353A" stroke-width="0.754286" stroke-linecap="round" stroke-linejoin="round"/>
<path d="M189.018 116.523H192.297" stroke="#2E353A" stroke-width="0.754286" stroke-linecap="round" stroke-linejoin="round"/>
<path d="M220.11 121.273H230.342" stroke="#2E353A" stroke-width="0.754286" stroke-linecap="round" stroke-linejoin="round"/>
<path d="M189.018 121.273H192.056" stroke="#2E353A" stroke-width="0.754286" stroke-linecap="round" stroke-linejoin="round"/>
<path d="M228.515 126.019H230.343" stroke="#2E353A" stroke-width="0.754286" stroke-linecap="round" stroke-linejoin="round"/>
<path d="M189.018 126.019H192.056" stroke="#2E353A" stroke-width="0.754286" stroke-linecap="round" stroke-linejoin="round"/>
<path d="M228.515 131.549H230.343" stroke="#2E353A" stroke-width="0.754286" stroke-linecap="round" stroke-linejoin="round"/>
<path d="M189.018 131.549H192.056" stroke="#2E353A" stroke-width="0.754286" stroke-linecap="round" stroke-linejoin="round"/>
<path d="M228.515 137.076H230.343" stroke="#2E353A" stroke-width="0.754286" stroke-linecap="round" stroke-linejoin="round"/>
<path d="M189.018 137.076H192.056" stroke="#2E353A" stroke-width="0.754286" stroke-linecap="round" stroke-linejoin="round"/>
<path d="M199.687 108.485H192.836V137.583H199.687V108.485Z" stroke="#2E353A" stroke-width="0.754286" stroke-linecap="round" stroke-linejoin="round"/>
<path d="M209.059 113.962H202.209V137.583H209.059V113.962Z" stroke="#2E353A" stroke-width="0.754286" stroke-linecap="round" stroke-linejoin="round"/>
<path d="M218.438 119.078H211.587V137.583H218.438V119.078Z" stroke="#2E353A" stroke-width="0.754286" stroke-linecap="round" stroke-linejoin="round"/>
<path d="M227.814 125.658H220.964V137.588H227.814V125.658Z" stroke="#2E353A" stroke-width="0.754286" stroke-linecap="round" stroke-linejoin="round"/>
<path d="M73.0651 43.2147C69.5831 40.5774 65.2314 39.4021 60.9157 39.9335C56.6 40.4649 52.6528 42.662 49.8956 46.0676C47.1385 49.4732 45.7838 53.8249 46.1136 58.2168C46.4434 62.6088 48.4322 66.7028 51.6661 69.6466C54.9 72.5904 59.1299 74.1573 63.4752 74.0211C67.8206 73.8849 71.9468 72.0562 74.9949 68.9155C78.0431 65.7748 79.7784 61.5642 79.8396 57.1599C79.9009 52.7557 78.2833 48.4972 75.3238 45.2708" stroke="white" stroke-width="0.754286" stroke-linecap="round" stroke-linejoin="round"/>
<path d="M55.0803 64.7048C57.0623 66.7648 59.7512 67.9725 62.5888 68.0772C65.4264 68.1819 68.1948 67.1755 70.3194 65.2669C72.444 63.3583 73.7616 60.6941 73.9988 57.8273C74.2359 54.9605 73.3743 52.1113 71.5929 49.871C69.8115 47.6308 67.247 46.1715 64.4318 45.7962C61.6166 45.4209 58.7668 46.1584 56.474 47.8555C54.1812 49.5526 52.6215 52.0791 52.1186 54.9104C51.6157 57.7418 52.2083 60.6606 53.7733 63.0611" stroke="white" stroke-width="0.754286" stroke-linecap="round" stroke-linejoin="round"/>
<path d="M63.009 62.7404C66.1972 62.7404 68.7817 60.1219 68.7817 56.8917C68.7817 53.6616 66.1972 51.0431 63.009 51.0431C59.8209 51.0431 57.2363 53.6616 57.2363 56.8917C57.2363 60.1219 59.8209 62.7404 63.009 62.7404Z" stroke="white" stroke-width="0.754286" stroke-linecap="round" stroke-linejoin="round"/>
<path d="M209.861 173.202C211.712 173.469 212.561 174.945 212.561 177.001V177.425H210.973V176.89C210.973 175.525 210.428 174.683 209.207 174.683C207.986 174.683 207.459 175.525 207.459 176.89C207.459 180.375 212.584 180.375 212.584 184.737C212.584 186.81 211.712 188.291 209.861 188.559V189.72H208.462V188.559C206.564 188.291 205.716 186.816 205.716 184.737V183.784H207.31V184.847C207.31 186.235 207.883 187.031 209.098 187.031C210.314 187.031 210.881 186.235 210.881 184.847C210.881 181.397 205.779 181.362 205.779 177.001C205.779 174.881 206.633 173.516 208.462 173.202V171.965H209.861V173.202Z" fill="#2E353A"/>
<path d="M214.727 193.925C215.801 193.455 216.812 192.85 217.737 192.125" stroke="#2E353A" stroke-width="0.754286" stroke-linecap="round" stroke-linejoin="round"/>
<path d="M204.192 167.517C200.868 168.776 198.136 171.261 196.544 174.474C194.952 177.687 194.617 181.391 195.607 184.843C196.596 188.296 198.837 191.242 201.881 193.091C204.924 194.94 208.544 195.556 212.017 194.815" stroke="#2E353A" stroke-width="0.754286" stroke-linecap="round" stroke-linejoin="round"/>
<path d="M219.508 190.481C221.552 188.22 222.821 185.352 223.128 182.303C223.436 179.253 222.764 176.185 221.214 173.552C219.663 170.92 217.317 168.864 214.522 167.69C211.727 166.516 208.633 166.286 205.699 167.034" stroke="#2E353A" stroke-width="0.754286" stroke-linecap="round" stroke-linejoin="round"/>
<path d="M216.981 189.409C221.652 185.026 221.931 177.636 217.604 172.904C213.277 168.171 205.983 167.889 201.313 172.272C196.642 176.656 196.363 184.046 200.69 188.778C205.016 193.51 212.31 193.793 216.981 189.409Z" stroke="#2E353A" stroke-width="0.754286" stroke-linecap="round" stroke-linejoin="round"/>
<path d="M153.174 129.281L153.581 129.235C155.3 129.02 162.042 128.102 165.9 126.557C170.348 124.774 180.489 125.715 180.489 125.715L184.938 128.968L179.87 132.325C179.87 132.325 172.727 129.909 167.763 130.118C162.799 130.327 160.42 131.796 157.313 131.587C154.205 131.378 150.382 129.264 150.382 129.264L153.174 129.281Z" fill="#2E353A" stroke="#2E353A" stroke-width="0.754286" stroke-linecap="round" stroke-linejoin="round"/>
<path d="M134.147 119.082V125.825H145.119V118.02L134.147 119.082Z" fill="white" stroke="#2E353A" stroke-width="0.754286" stroke-linecap="round" stroke-linejoin="round"/>
<path d="M131.15 112.538C131.15 112.538 128.553 110.796 129.43 113.851C130.307 116.906 131.15 118.097 132.463 117.951C133.775 117.806 134.486 117.371 134.051 116.209C133.615 115.047 131.15 112.538 131.15 112.538Z" fill="white" stroke="#2E353A" stroke-width="0.754286" stroke-linecap="round" stroke-linejoin="round"/>
<path d="M148.513 112.538C148.513 112.538 151.109 110.796 150.232 113.851C149.355 116.906 148.513 118.097 147.2 117.951C145.887 117.806 145.182 117.371 145.612 116.209C146.042 115.047 148.513 112.538 148.513 112.538Z" fill="white" stroke="#2E353A" stroke-width="0.754286" stroke-linecap="round" stroke-linejoin="round"/>
<path d="M136.785 98.4935C136.785 98.4935 132.451 99.9513 131.006 104.052C129.562 108.152 130.863 113.118 131.579 115.168C132.296 117.218 135.77 121.168 135.77 121.168H143.566C145.417 119.303 146.932 117.125 148.043 114.733C149.631 111.074 149.631 105.951 149.631 105.951C149.631 105.951 150.927 106.392 150.927 104.633C150.927 102.873 146.914 99.5157 146.914 99.5157C146.914 99.5157 148.794 98.7839 147.487 97.7733C146.18 96.7627 141.566 97.1925 141.566 97.1925C141.566 97.1925 140.969 94.1084 136.785 98.4935Z" fill="#2E353A" stroke="#2E353A" stroke-width="0.754286" stroke-linecap="round" stroke-linejoin="round"/>
<path d="M153.868 266.57L155.055 267.319C155.81 267.325 156.541 267.589 157.13 268.068C157.869 268.823 157.594 272.552 157.594 272.552C157.594 272.552 157.021 272.994 154.183 272.994C151.346 272.994 145.149 273.691 144.576 272.639C144.002 271.588 144.679 267.168 144.679 267.168L153.868 266.57Z" fill="#858585" stroke="#2E353A" stroke-width="0.754286" stroke-linecap="round" stroke-linejoin="round"/>
<path d="M121.397 172.093C121.397 172.093 120.497 178.702 120.497 180.067C120.497 181.432 120.199 193.135 120.199 193.135C120.199 193.135 120.348 223.918 120.348 224.498C120.348 225.079 117.825 233.512 118.72 239.222C119.614 244.931 121.385 266.856 121.385 266.856C121.385 266.856 120.812 271.665 121.236 272.112C121.66 272.56 127.169 273.164 128.356 272.565C129.543 271.967 128.798 266.107 128.798 266.107C129.21 264.688 129.46 263.227 129.543 261.751V256.942C129.543 255.443 130.282 242.073 131.022 236.817C131.761 231.561 132.208 224.498 132.208 224.498L135.321 192.055L137.694 191.904C137.694 191.904 140.658 226.752 140.807 229.307C140.956 231.863 140.372 236.986 141.707 242.834C143.043 248.683 143.782 264.614 143.782 264.614C143.782 264.614 143.484 266.118 143.782 266.717C144.081 267.315 144.82 269.121 144.82 269.121C145.855 269.217 146.897 269.217 147.933 269.121C149.598 269.039 151.225 268.591 152.702 267.809C153.235 267.373 153.616 266.776 153.789 266.105C153.962 265.434 153.919 264.724 153.665 264.08C152.777 261.879 152.381 261.46 152.381 261.46C152.381 261.46 153.717 242.538 153.717 237.88C153.717 233.222 152.978 227.519 152.978 227.065C152.978 226.612 153.866 192.798 153.866 189.366C153.866 185.933 153.568 176.588 152.083 172.523C150.598 168.457 126.86 169.52 124.51 169.671C123.816 169.73 123.155 169.99 122.603 170.42C122.051 170.849 121.632 171.43 121.397 172.093Z" fill="#2E353A" stroke="#2E353A" stroke-width="0.754286" stroke-linecap="round" stroke-linejoin="round"/>
<path d="M130.146 191.839L142.895 191.241" stroke="#757575" stroke-width="0.754286" stroke-linecap="round" stroke-linejoin="round"/>
<path d="M137.557 125.529L129.532 127.481C129.532 127.481 117.963 133.19 115.447 134.689C112.93 136.187 102.99 156.469 103.437 157.52C103.884 158.571 105.81 159.924 107.736 160.226C109.663 160.528 119.471 149.284 119.471 149.284C119.471 149.284 122.286 163.403 122.286 164.002C122.286 164.6 120.658 171.813 121.397 173.016C122.137 174.218 150.605 173.016 150.605 173.016C150.605 173.016 152.68 173.167 152.978 171.215C153.276 169.264 152.405 163.554 152.405 163.554L155.666 146.281C155.666 146.281 161.898 155.853 163.296 157.392C165.721 160.07 168.737 158.949 170.342 156.945C171.746 155.202 170.491 151.834 170.049 150.783C169.608 149.731 161.72 131.86 159.352 131.088C156.985 130.315 147.045 126.732 147.045 126.732L137.557 125.529Z" fill="white" stroke="#2E353A" stroke-width="0.754286" stroke-linecap="round" stroke-linejoin="round"/>
<path d="M129.555 127.481C129.555 127.481 139.352 127.277 140.98 127.277C142.608 127.277 148.587 127.213 148.587 127.213L147.079 123.961C144.51 123.323 141.871 123.019 139.226 123.055C136.392 123.049 133.581 123.559 130.925 124.559L129.555 127.481Z" fill="white" stroke="#2E353A" stroke-width="0.754286" stroke-linecap="round" stroke-linejoin="round"/>
<path d="M116.457 141.339L119.472 149.261L114.284 144.004" stroke="#2E353A" stroke-width="0.754286" stroke-linecap="round" stroke-linejoin="round"/>
<path d="M115.471 138.742L115.826 139.689" stroke="#2E353A" stroke-width="0.754286" stroke-linecap="round" stroke-linejoin="round"/>
<path d="M132.153 162.671C131.659 163.093 131.138 163.481 130.594 163.833" stroke="#2E353A" stroke-width="0.754286" stroke-linecap="round" stroke-linejoin="round"/>
<path d="M145.721 139.945C145.721 139.945 140.304 154.959 133.047 161.882" stroke="#2E353A" stroke-width="0.754286" stroke-linecap="round" stroke-linejoin="round"/>
<path d="M159.056 137.692L155.645 146.259L161.131 140.247" stroke="#2E353A" stroke-width="0.754286" stroke-linecap="round" stroke-linejoin="round"/>
<path d="M102.153 161.277C102.997 163.65 104.488 165.733 106.452 167.283C109.714 169.838 118.49 178.248 118.49 178.248C118.4 178.695 118.4 179.155 118.49 179.602C118.639 180.351 121.013 182.302 121.013 182.302V180.804L121.586 179.602L122.159 178.097C122.821 177.838 123.466 177.537 124.091 177.197C124.378 176.991 124.628 176.738 124.831 176.448C125.711 176.609 126.602 176.708 127.496 176.744C128.534 176.744 130.019 175.693 129.13 175.397C128.242 175.1 127.353 175.397 126.166 174.816C124.98 174.235 124.383 173.614 123.197 173.614H120.084L111.898 160.075L102.153 161.277Z" fill="white" stroke="#2E353A" stroke-width="0.754286" stroke-linecap="round" stroke-linejoin="round"/>
<path d="M105.633 152.043C105.633 152.043 103.914 152.566 103.461 153.013C103.008 153.46 100.789 156.922 101.236 158.722C101.684 160.523 102.274 163.078 106.126 163.827C109.979 164.577 112.06 162.927 112.358 162.48C112.656 162.033 113.384 156.713 112.788 156.713C112.191 156.713 110.575 158.722 110.575 158.722C110.575 158.722 106.161 157.712 105.272 156.98C104.384 156.248 105.633 152.043 105.633 152.043Z" fill="white" stroke="#2E353A" stroke-width="0.754286" stroke-linecap="round" stroke-linejoin="round"/>
<path d="M173.651 161.278C172.806 163.651 171.315 165.733 169.351 167.283C166.09 169.839 157.313 178.249 157.313 178.249C157.403 178.695 157.403 179.155 157.313 179.602C157.164 180.351 153.902 182.663 153.902 182.663V180.473L153.673 179.091L153.61 178.098C152.948 177.838 152.303 177.537 151.678 177.197C151.392 176.992 151.142 176.738 150.938 176.448C150.058 176.609 149.167 176.708 148.273 176.744C147.235 176.744 145.75 175.693 146.639 175.397C147.528 175.101 148.416 175.397 149.603 174.816C150.789 174.235 151.386 173.614 152.572 173.614H155.685L163.837 160.099L173.651 161.278Z" fill="white" stroke="#2E353A" stroke-width="0.754286" stroke-linecap="round" stroke-linejoin="round"/>
<path d="M170.761 152.769C170.761 152.769 171.873 152.554 172.314 153.001C172.756 153.448 174.986 156.91 174.538 158.71C174.091 160.511 173.501 163.066 169.649 163.816C165.796 164.565 163.715 162.915 163.417 162.468C163.119 162.021 162.884 156.904 163.274 157.357C163.824 157.93 164.478 158.389 165.2 158.71C165.2 158.71 169.786 158.472 170.514 155.841C170.714 154.83 170.797 153.799 170.761 152.769Z" fill="white" stroke="#2E353A" stroke-width="0.754286" stroke-linecap="round" stroke-linejoin="round"/>
<path d="M128.37 272.577C129.304 272.101 129.04 268.355 128.886 266.798C127.832 267.299 126.705 267.627 125.549 267.768C124.104 267.969 122.636 267.65 121.399 266.868C121.399 266.868 120.923 272.066 121.324 272.554C121.726 273.042 127.183 273.175 128.37 272.577Z" fill="#858585" stroke="#2E353A" stroke-width="0.754286" stroke-linecap="round" stroke-linejoin="round"/>
<path d="M273.123 272.996H276.998" stroke="#2E353A" stroke-width="0.754286" stroke-linecap="round" stroke-linejoin="round"/>
<path d="M68.2683 272.996H267.831" stroke="#2E353A" stroke-width="0.754286" stroke-linecap="round" stroke-linejoin="round"/>
<path d="M23.6172 272.996H62.977" stroke="#2E353A" stroke-width="0.754286" stroke-linecap="round" stroke-linejoin="round"/>
</svg>
