<svg width="350" height="250" viewBox="0 0 350 250" fill="none" xmlns="http://www.w3.org/2000/svg">
<g clip-path="url(#clip0_32_132)">
<path d="M133.451 34.9382C124.03 37.9709 115.011 42.1355 106.594 47.3407C99.0751 52.0854 92.2254 57.815 86.227 64.3769C56.0958 97.3978 49.3027 149.532 74.3029 187.414C88.0905 208.309 115.294 229.721 141.717 227.423C160.403 225.798 177.722 216.286 196.792 217.979C216.434 219.742 234.251 222.386 252.528 212.407C272.101 201.736 284.409 180.583 288.665 158.699C293.941 131.539 290.22 100.042 278.069 75.1677C254.19 26.3194 184.188 18.1979 133.451 34.9382Z" fill="#FFC100"/>
<path opacity="0.8" d="M133.451 34.9382C124.03 37.9709 115.011 42.1355 106.594 47.3407C99.0751 52.0854 92.2254 57.815 86.227 64.3769C56.0958 97.3978 49.3027 149.532 74.3029 187.414C88.0905 208.309 115.294 229.721 141.717 227.423C160.403 225.798 177.722 216.286 196.792 217.979C216.434 219.742 234.251 222.386 252.528 212.407C272.101 201.736 284.409 180.583 288.665 158.699C293.941 131.539 290.22 100.042 278.069 75.1677C254.19 26.3194 184.188 18.1979 133.451 34.9382Z" fill="white"/>
<path d="M61.251 180.268H288.752" stroke="#2E353A" stroke-width="0.899385" stroke-linecap="round" stroke-linejoin="round"/>
<path opacity="0.28" d="M162.053 216.399L184.113 228.676L184.951 236.23L212.236 217.759L213.439 207.012L162.053 216.399Z" fill="black"/>
<path d="M187.161 224.848L162.053 216.399L189.037 202.089L213.439 207.012L187.161 224.848Z" fill="white"/>
<path opacity="0.15" d="M187.161 224.848L162.053 216.399L189.037 202.089L213.439 207.012L187.161 224.848Z" fill="black"/>
<path d="M187.161 224.848L162.053 216.399L189.037 202.089L213.439 207.012L187.161 224.848Z" stroke="#2E353A" stroke-width="0.899385" stroke-linecap="round" stroke-linejoin="round"/>
<path d="M192.09 208.655L184.642 206.849L176.112 211.369L183.641 213.352L192.09 208.655Z" stroke="#2E353A" stroke-width="0.899385" stroke-linecap="round" stroke-linejoin="round"/>
<path d="M196.78 206.313L174.959 218.042L187.293 222.267L207.615 208.479L196.78 206.313Z" fill="#2E353A"/>
<path d="M198.889 191.531L187.161 224.848L213.439 207.012L223.764 179.091L198.889 191.531Z" fill="white"/>
<path opacity="0.15" d="M198.889 191.531L187.161 224.848L213.439 207.012L223.764 179.091L198.889 191.531Z" fill="black"/>
<path d="M198.889 191.531L187.161 224.848L213.439 207.012L223.764 179.091L198.889 191.531Z" stroke="#2E353A" stroke-width="0.899385" stroke-linecap="round" stroke-linejoin="round"/>
<path d="M114.301 225.515L130.115 248.073L155.468 238.774L138.023 219.238L114.301 225.515Z" fill="white" stroke="#2E353A" stroke-width="0.899385" stroke-linecap="round" stroke-linejoin="round"/>
<path d="M149.884 219.471L172.441 238.308L141.278 250.635L122.441 226.68L149.884 219.471Z" fill="white" stroke="#2E353A" stroke-width="0.899385" stroke-linecap="round" stroke-linejoin="round"/>
<path d="M235.012 9H185.421V72.9831H235.012V9Z" fill="#FFC100"/>
<path opacity="0.5" d="M235.012 9H185.421V72.9831H235.012V9Z" fill="white"/>
<path d="M228.395 17.5306H192.031V64.4524H228.395V17.5306Z" fill="white"/>
<path d="M282.872 51.5526H250.229V93.6771H282.872V51.5526Z" fill="#FFC100"/>
<path opacity="0.5" d="M282.872 51.5526H250.229V93.6771H282.872V51.5526Z" fill="white"/>
<path d="M278.522 57.1683H254.579V88.0613H278.522V57.1683Z" fill="white"/>
<path d="M168.914 51.5526H136.271V93.6771H168.914V51.5526Z" fill="#FFC100"/>
<path opacity="0.5" d="M168.914 51.5526H136.271V93.6771H168.914V51.5526Z" fill="white"/>
<path d="M164.57 57.1683H140.627V88.0613H164.57V57.1683Z" fill="white"/>
<path opacity="0.28" d="M283.105 181.42H195.261V183.668H283.105V181.42Z" fill="black"/>
<path d="M256.443 118.665H265.886L273.309 136.054H263.865L256.443 118.665Z" fill="#2E353A" stroke="#2E353A" stroke-width="0.899385" stroke-linecap="round" stroke-linejoin="round"/>
<path d="M268.996 114.044H254.472L246.099 136.053H260.623L268.996 114.044Z" fill="white" stroke="#2E353A" stroke-width="0.899385" stroke-linecap="round" stroke-linejoin="round"/>
<path d="M266.245 116.688H255.209L248.85 133.409H259.887L266.245 116.688Z" fill="white" stroke="#2E353A" stroke-width="0.899385" stroke-linecap="round" stroke-linejoin="round"/>
<path d="M231.883 101.226C231.883 101.226 236.548 99.2678 231.726 99.1419C226.903 99.0159 220.715 105.897 221.155 105.236C221.596 104.575 223.195 99.8533 220.217 103.007C217.239 106.162 215.181 116.084 215.181 116.084C215.55 114.044 215.723 111.974 215.697 109.901C215.603 106.841 213.556 99.1041 210.44 98.506C208.4 98.1094 209.263 100.477 210.1 102.17C209.005 100.458 206.845 97.889 203.433 97.1335C198.182 95.9877 194.38 101.163 191.156 103.706C187.933 106.25 192.592 104.298 196.193 103.259C199.794 102.22 199.97 104.298 199.97 104.298C199.97 104.298 195.267 103.883 195.217 106.048C195.167 108.214 205.29 103.272 207.903 109.568C210.516 115.863 210.843 123.387 210.843 123.387L214.173 122.228C214.605 121.399 214.961 120.533 215.237 119.641C215.508 118.57 219.128 117.532 221.886 116.14C224.643 114.749 220.337 114.163 220.948 113.905C221.558 113.647 227.564 113.76 230.391 113.062C233.218 112.363 225.185 109.75 225.185 109.75C225.185 109.75 239.665 112.501 239.665 108.944C239.665 105.387 231.883 101.226 231.883 101.226Z" fill="#FFC100"/>
<path d="M207.695 108.736C204.617 106.319 205.057 109.618 205.057 109.618C202.755 108.48 200.176 108.021 197.622 108.296C193.215 108.736 194.543 109.618 194.543 109.618C194.543 109.618 192.781 108.957 189.702 112.917C186.623 116.877 187.064 119.741 188.16 118.86C189.255 117.979 196.086 114.239 196.086 114.239C196.086 114.239 190.804 117.979 193.662 119.08C195.809 119.905 200.304 118.01 202.419 117.009C201.16 117.695 199.656 118.784 202.029 119.08C205.548 119.521 209.508 124.117 209.508 124.117L210.61 122.134C210.61 122.134 210.799 111.16 207.695 108.736Z" fill="#FFC100"/>
<path d="M216.893 136.249H205.8L204.415 121.504H218.278L216.893 136.249Z" fill="#2E353A" stroke="#2E353A" stroke-width="0.899385" stroke-linecap="round" stroke-linejoin="round"/>
<path d="M199.448 182.925H197.691L196.81 145.296H200.329L199.448 182.925Z" fill="#2E353A" stroke="#2E353A" stroke-width="0.899385" stroke-linecap="round" stroke-linejoin="round"/>
<path d="M280.215 182.925H278.452L277.571 145.296H281.097L280.215 182.925Z" fill="#2E353A" stroke="#2E353A" stroke-width="0.899385" stroke-linecap="round" stroke-linejoin="round"/>
<path d="M282.412 137.369H195.488V148.154H211.913L212.984 148.374C218.266 149.476 222.005 152.781 230.372 152.334C234.949 152.095 237.537 150.672 238.953 149.426C240.37 150.685 242.957 152.095 247.534 152.334C255.895 152.775 259.641 149.476 264.923 148.374L265.993 148.154H282.412V137.369Z" fill="white" stroke="#2E353A" stroke-width="0.899385" stroke-linecap="round" stroke-linejoin="round"/>
<path d="M282.412 137.369H195.488V139.913H282.412V137.369Z" fill="#2E353A" stroke="#2E353A" stroke-width="0.899385" stroke-linecap="round" stroke-linejoin="round"/>
<path d="M285.126 135.783H192.623V138.144H285.126V135.783Z" fill="white" stroke="#2E353A" stroke-width="0.899385" stroke-linecap="round" stroke-linejoin="round"/>
<path opacity="0.28" d="M129.547 212.023C158.187 212.023 181.404 205.329 181.404 197.071C181.404 188.813 158.187 182.119 129.547 182.119C100.906 182.119 77.689 188.813 77.689 197.071C77.689 205.329 100.906 212.023 129.547 212.023Z" fill="black"/>
<path d="M193.385 173.462C193.385 173.462 190.332 168.766 180.712 169.943C171.092 171.12 150.442 175.093 142.22 176.509C133.998 177.926 121.343 187.055 118.529 192.935C115.715 198.815 117.824 202.322 135.66 203.26C153.495 204.198 178.105 189.649 185.874 185.166C193.643 180.683 192.913 175.804 193.385 173.462Z" fill="#2E353A" stroke="#2E353A" stroke-width="0.899385" stroke-linecap="round" stroke-linejoin="round"/>
<path d="M145.236 107.433C145.236 107.433 140.249 117.034 138.405 118.885C137.423 119.961 136.222 120.814 134.883 121.388C133.544 121.961 132.098 122.241 130.642 122.209C126.953 122.209 113.814 120.459 109.382 128.958C104.949 137.457 103.86 162.659 104.049 164.138C104.238 165.618 92.7799 175.408 93.1513 187.432C93.5227 199.457 106.265 206.269 124.183 203.688C142.1 201.107 146.715 187.798 146.715 180.041C146.715 172.285 150.593 168.035 154.843 159.895C159.092 151.755 165.369 143.274 163.336 136.066C161.302 128.857 153.552 125.533 150.965 124.608C148.377 123.682 155.768 115.164 153.917 110.94C152.066 106.715 148.377 105.028 145.236 107.433Z" fill="#FFC100"/>
<path opacity="0.13" d="M144.637 160.802C136.774 163.717 130.277 160.997 121.633 158.472C112.989 155.948 116.678 149.734 116.678 143.331C116.678 136.928 109.123 145.661 109.123 145.661L104.899 150.105C104.375 154.765 104.095 159.449 104.062 164.138C104.225 165.461 95.0904 173.425 93.422 183.655C97.666 184.149 101.936 184.387 106.209 184.367C123.975 184.367 145.198 175.244 147.269 170.969C149.214 166.946 152.394 157.119 152.765 155.941C152.564 156.433 151.412 158.29 144.637 160.802Z" fill="black"/>
<path d="M145.236 107.433C145.236 107.433 140.249 117.034 138.405 118.885C137.423 119.961 136.222 120.814 134.883 121.388C133.544 121.961 132.098 122.241 130.642 122.209C126.953 122.209 113.814 120.459 109.382 128.958C104.949 137.457 103.86 162.659 104.049 164.138C104.238 165.618 92.7799 175.408 93.1513 187.432C93.5227 199.457 106.265 206.269 124.183 203.688C142.1 201.107 146.715 187.798 146.715 180.041C146.715 172.285 150.593 168.035 154.843 159.895C159.092 151.755 165.369 143.274 163.336 136.066C161.302 128.857 153.552 125.533 150.965 124.608C148.377 123.682 155.768 115.164 153.917 110.94C152.066 106.715 148.377 105.028 145.236 107.433Z" stroke="#2E353A" stroke-width="0.899385" stroke-linecap="round" stroke-linejoin="round"/>
<path d="M157.613 144.93C157.613 144.93 153.363 147.7 152.992 150.282C152.621 152.863 153.546 158.409 150.039 161.368C146.533 164.327 143.945 164.321 143.945 164.321" stroke="#2E353A" stroke-width="0.899385" stroke-linecap="round" stroke-linejoin="round"/>
<path d="M112.454 154.078C112.454 154.078 112.454 160.739 120.399 161.249" stroke="#2E353A" stroke-width="0.899385" stroke-linecap="round" stroke-linejoin="round"/>
<path d="M136.806 144.59C137.967 147.334 138.908 150.165 139.62 153.058" stroke="#2E353A" stroke-width="0.899385" stroke-linecap="round" stroke-linejoin="round"/>
<path d="M146.986 176.679C147.924 170.875 151.248 166.77 154.843 159.889C155.409 158.8 156.02 157.704 156.637 156.603C153.275 157.918 152.721 157.062 152.721 157.062C151.128 160.777 149 162.193 149 162.193L143.215 178.115L146.986 176.679Z" fill="white" stroke="#2E353A" stroke-width="0.899385" stroke-linecap="round" stroke-linejoin="round"/>
<path d="M95.3358 177.466C93.8556 180.571 93.1082 183.974 93.1512 187.414C93.5163 199.42 106.265 206.25 124.183 203.669C142.1 201.088 146.715 187.779 146.715 180.023C146.703 177.64 147.115 175.274 147.93 173.034C114.223 180.57 100.668 179.317 95.3358 177.466Z" fill="#2E353A" stroke="#2E353A" stroke-width="0.899385" stroke-linecap="round" stroke-linejoin="round"/>
<path d="M133.991 163.547L129.377 153.473C129.342 153.398 129.293 153.331 129.232 153.274C129.171 153.218 129.1 153.174 129.022 153.146C128.865 153.088 128.691 153.095 128.539 153.165C128.387 153.235 128.269 153.363 128.212 153.52C128.154 153.677 128.161 153.85 128.231 154.002L132.852 164.038L133.991 163.547Z" fill="white" stroke="#2E353A" stroke-width="0.899385" stroke-linecap="round" stroke-linejoin="round"/>
<path d="M132.852 164.069L133.966 164.988L133.992 163.547L132.852 164.069Z" stroke="#2E353A" stroke-width="0.899385" stroke-linecap="round" stroke-linejoin="round"/>
<path d="M128.539 153.196C128.464 153.231 128.396 153.28 128.34 153.341C128.283 153.402 128.24 153.473 128.211 153.551C128.182 153.629 128.169 153.712 128.173 153.794C128.176 153.877 128.196 153.959 128.231 154.034L128.697 155.047L129.842 154.525L129.377 153.505C129.342 153.43 129.293 153.362 129.232 153.306C129.171 153.249 129.1 153.205 129.022 153.177C128.944 153.148 128.862 153.135 128.779 153.138C128.696 153.142 128.614 153.162 128.539 153.196Z" fill="white" stroke="#2E353A" stroke-width="0.899385" stroke-linecap="round" stroke-linejoin="round"/>
<path d="M127.318 123.317C124.916 122.489 122.358 122.208 119.833 122.496C117.308 122.784 114.88 123.632 112.725 124.979C105.34 129.594 98.7736 143.312 96.0035 148.116C93.2334 152.919 84.0416 173.462 86.1507 173.928C87.2462 174.174 121.778 167.632 124.737 167.462C127.696 167.293 131.75 165.429 131.75 165.429C131.75 165.429 133.601 167.462 134.527 166.537C135.452 165.612 132.858 160.814 131.568 159.335C130.277 157.855 128.615 157.301 127.69 158.044C126.764 158.787 121.041 164.138 121.041 164.138L98.8176 163.37L117.163 139.384" fill="#FFC100"/>
<path opacity="0.13" d="M130.258 160.997C127.438 158.636 125.423 162.325 123.144 164.189C120.865 166.052 116.936 165.845 104.937 165.845C92.9373 165.845 92.5155 166.26 91.483 166.877C90.4505 167.494 93.5543 158.189 101.21 149.495C108.865 140.8 113.625 133.567 113.625 127.976C113.625 126.175 112.995 125.458 112.158 125.344C104.994 130.28 98.6853 143.438 95.9844 148.116C93.2143 152.92 84.0226 173.462 86.1317 173.928C87.2271 174.174 121.759 167.633 124.718 167.463C127.677 167.293 131.731 165.429 131.731 165.429C131.996 165.708 132.282 165.964 132.588 166.197C132.883 164.39 132.065 162.502 130.258 160.997Z" fill="black"/>
<path d="M127.318 123.317C124.916 122.489 122.358 122.208 119.833 122.496C117.308 122.784 114.88 123.632 112.725 124.979C105.34 129.594 98.7736 143.312 96.0035 148.116C93.2334 152.919 84.0416 173.462 86.1507 173.928C87.2462 174.174 121.778 167.632 124.737 167.462C127.696 167.293 131.75 165.429 131.75 165.429C131.75 165.429 133.601 167.462 134.527 166.537C135.452 165.612 132.858 160.814 131.568 159.335C130.277 157.855 128.615 157.301 127.69 158.044C126.764 158.787 121.041 164.138 121.041 164.138L98.8176 163.37L117.163 139.384" stroke="#2E353A" stroke-width="0.899385" stroke-linecap="round" stroke-linejoin="round"/>
<path d="M131.75 165.429C131.75 165.429 133.601 167.463 134.527 166.537C135.452 165.612 132.858 160.814 131.568 159.335C130.277 157.855 128.615 157.301 127.69 158.044C126.764 158.787 121.041 164.138 121.041 164.138L98.8174 163.37L104.377 156.099C100.717 155.26 97.2965 153.6 94.3727 151.245C90.7149 158.661 84.3562 173.532 86.1505 173.909C87.246 174.155 121.778 167.614 124.737 167.444C127.696 167.274 131.75 165.429 131.75 165.429Z" fill="white"/>
<path d="M130.258 160.997C127.438 158.636 125.423 162.325 123.144 164.189C120.865 166.052 116.936 165.845 104.937 165.845C92.9372 165.845 92.5154 166.26 91.4829 166.877C90.6141 167.4 92.6728 160.89 97.9171 153.656C96.6579 152.973 95.465 152.174 94.3538 151.27C90.696 158.686 84.3373 173.557 86.1316 173.935C87.227 174.18 121.759 167.639 124.718 167.469C127.677 167.299 131.731 165.435 131.731 165.435C131.996 165.714 132.282 165.971 132.588 166.203C132.883 164.39 132.065 162.502 130.258 160.997Z" fill="#FFC100"/>
<path opacity="0.7" d="M130.258 160.997C127.438 158.636 125.423 162.325 123.144 164.189C120.865 166.052 116.936 165.845 104.937 165.845C92.9372 165.845 92.5154 166.26 91.4829 166.877C90.6141 167.4 92.6728 160.89 97.9171 153.656C96.6579 152.973 95.465 152.174 94.3538 151.27C90.696 158.686 84.3373 173.557 86.1316 173.935C87.227 174.18 121.759 167.639 124.718 167.469C127.677 167.299 131.731 165.435 131.731 165.435C131.996 165.714 132.282 165.971 132.588 166.203C132.883 164.39 132.065 162.502 130.258 160.997Z" fill="white"/>
<path d="M131.75 165.429C131.75 165.429 133.601 167.463 134.527 166.537C135.452 165.612 132.858 160.814 131.568 159.335C130.277 157.855 128.615 157.301 127.69 158.044C126.764 158.787 121.041 164.138 121.041 164.138L98.8174 163.37L104.377 156.099C100.717 155.26 97.2965 153.6 94.3727 151.245C90.7149 158.661 84.3562 173.532 86.1505 173.909C87.246 174.155 121.778 167.614 124.737 167.444C127.696 167.274 131.75 165.429 131.75 165.429Z" stroke="#2E353A" stroke-width="0.899385" stroke-linecap="round" stroke-linejoin="round"/>
<path d="M130.642 164.138L115.684 179.097L139.324 182.056L152.438 170.787L130.642 164.138Z" fill="white"/>
<path opacity="0.36" d="M130.642 164.138L115.684 179.097L139.324 182.056L152.438 170.787L130.642 164.138Z" fill="black"/>
<path d="M130.642 164.138L115.684 179.097L139.324 182.056L152.438 170.787L130.642 164.138Z" stroke="#2E353A" stroke-width="0.899385" stroke-linecap="round" stroke-linejoin="round"/>
<path d="M130.277 160.997L130.642 164.138L115.684 179.097L114.947 177.435L130.277 160.997Z" fill="white" stroke="#2E353A" stroke-width="0.899385" stroke-linecap="round" stroke-linejoin="round"/>
<path d="M130.642 164.138L152.438 170.787L153.552 168.571L130.277 160.997L130.642 164.138Z" fill="white" stroke="#2E353A" stroke-width="0.899385" stroke-linecap="round" stroke-linejoin="round"/>
<path d="M146.841 177.107C146.841 177.107 143.114 177.554 143.215 178.115C143.315 178.675 146.362 178.562 147.036 178.562C147.71 178.562 148.799 176.982 146.841 177.107Z" fill="white" stroke="#2E353A" stroke-width="0.899385" stroke-linecap="round" stroke-linejoin="round"/>
<path d="M148.157 175.641C148.157 175.641 143.46 176.138 143.58 176.755C143.7 177.372 147.54 177.246 148.402 177.246C149.265 177.246 150.625 175.515 148.157 175.641Z" fill="white" stroke="#2E353A" stroke-width="0.899385" stroke-linecap="round" stroke-linejoin="round"/>
<path d="M149.775 174.155C149.775 174.155 145.078 174.652 145.198 175.269C145.318 175.886 149.158 175.767 150.02 175.767C150.883 175.767 152.237 174.035 149.775 174.155Z" fill="white" stroke="#2E353A" stroke-width="0.899385" stroke-linecap="round" stroke-linejoin="round"/>
<path d="M150.008 172.675C150.008 172.675 145.311 173.166 145.437 173.79C145.563 174.413 149.391 174.281 150.253 174.281C151.116 174.281 152.482 172.575 150.008 172.675Z" fill="white" stroke="#2E353A" stroke-width="0.899385" stroke-linecap="round" stroke-linejoin="round"/>
<path d="M94.3223 189.397C94.3223 189.397 92.2132 184.234 98.7859 179.777C105.359 175.319 129.956 172.499 135.823 174.847C141.691 177.196 163.984 195.497 163.984 195.497L161.164 198.311C161.164 198.311 144.033 198.777 136.762 196.901C129.49 195.025 126.644 194.118 126.644 194.118C126.644 194.118 120.544 202.8 112.095 203.033" fill="#2E353A"/>
<path d="M94.3223 189.397C94.3223 189.397 92.2132 184.234 98.7859 179.777C105.359 175.319 129.956 172.499 135.823 174.847C141.691 177.196 163.984 195.497 163.984 195.497L161.164 198.311C161.164 198.311 144.033 198.777 136.762 196.901C129.49 195.025 126.644 194.118 126.644 194.118C126.644 194.118 120.544 202.8 112.095 203.033" stroke="#2E353A" stroke-width="0.899385" stroke-linecap="round" stroke-linejoin="round"/>
<path d="M161.239 200.446C166.189 202.448 171.404 203.72 176.72 204.223C185.169 204.928 187.75 198.123 187.75 196.039C187.75 193.955 184.231 194.396 180.712 194.861C177.192 195.327 168.511 195.799 166.395 195.567C164.28 195.334 158.658 196.221 161.239 200.446Z" fill="white" stroke="#2E353A" stroke-width="0.899385" stroke-linecap="round" stroke-linejoin="round"/>
<path d="M181.65 172.757C181.65 172.757 171.577 172.518 166.162 177.92C160.748 183.321 148.799 198.33 145.985 201.151C143.171 203.971 131.908 203.26 129.559 203.039C127.211 202.819 124.863 201.151 121.583 202.567C118.303 203.984 114.072 206.345 113.367 209.373C112.662 212.401 112.196 213.597 113.6 213.83C115.004 214.063 122.521 212.867 126.481 212.867C130.441 212.867 140.092 212.162 145.727 210.525C151.361 208.888 167.547 199.256 173.881 195.504C180.214 191.751 191.509 184.946 193.36 178.612C195.211 172.279 190.306 170.868 187.492 171.334" fill="#2E353A"/>
<path d="M181.65 172.757C181.65 172.757 171.577 172.518 166.162 177.92C160.748 183.321 148.799 198.33 145.985 201.151C143.171 203.971 131.908 203.26 129.559 203.039C127.211 202.819 124.863 201.151 121.583 202.567C118.303 203.984 114.072 206.345 113.367 209.373C112.662 212.401 112.196 213.597 113.6 213.83C115.004 214.063 122.521 212.867 126.481 212.867C130.441 212.867 140.092 212.162 145.727 210.525C151.361 208.888 167.547 199.256 173.881 195.504C180.214 191.751 191.509 184.946 193.36 178.612C195.211 172.279 190.306 170.868 187.492 171.334" stroke="#2E353A" stroke-width="0.899385" stroke-linecap="round" stroke-linejoin="round"/>
<path d="M148.988 199.684C148.988 199.684 162.523 179.538 169.449 175.76C176.374 171.983 183.929 172.612 183.929 172.612" stroke="white" stroke-width="0.899385" stroke-linecap="round" stroke-linejoin="round"/>
<path d="M143.775 202.334C139.444 203.726 131.486 203.216 129.559 203.027C127.211 202.794 124.863 201.138 121.583 202.555C118.303 203.971 114.072 206.332 113.367 209.36C112.662 212.389 112.196 213.585 113.6 213.818C115.004 214.051 122.521 212.867 126.481 212.867C130.441 212.867 140.092 212.162 145.727 210.525C147.319 210.008 148.872 209.377 150.373 208.636C148.761 205.696 145.821 203.556 143.775 202.334Z" fill="white" stroke="#2E353A" stroke-width="0.899385" stroke-linecap="round" stroke-linejoin="round"/>
<path d="M136.598 203.027C136.598 203.027 140.822 204.916 141.761 207.012C142.699 209.109 143.404 211.003 143.404 211.709C143.404 212.414 151.147 210.538 153.477 208.189C155.806 205.841 149.699 199.508 147.609 199.508C145.519 199.508 145.028 200.213 142.447 200.912C139.866 201.61 136.126 201.151 136.598 203.027Z" fill="white" stroke="#2E353A" stroke-width="0.899385" stroke-linecap="round" stroke-linejoin="round"/>
<path d="M126.481 194.61C126.481 194.61 121.318 192.028 121.085 188.742" stroke="white" stroke-width="0.899385" stroke-linecap="round" stroke-linejoin="round"/>
<path d="M116.88 202.202C120.974 200.458 124.792 198.125 128.212 195.277C128.212 195.277 138.285 198.425 144.896 198.425" stroke="white" stroke-width="0.899385" stroke-linecap="round" stroke-linejoin="round"/>
<path d="M154.402 126.138C153.293 125.549 152.145 125.037 150.965 124.608C148.377 123.689 155.768 115.164 153.917 110.94C152.066 106.715 148.377 105.028 145.236 107.433C145.236 107.433 140.249 117.034 138.405 118.885C137.423 119.961 136.222 120.814 134.883 121.388C133.545 121.961 132.098 122.241 130.642 122.209C129.943 122.218 129.245 122.27 128.552 122.366C128.199 126.459 128.483 136.261 138.77 139.019C148.459 141.612 152.602 133.617 154.402 126.138Z" fill="white"/>
<path d="M145.235 107.433C145.235 107.433 140.249 117.034 138.405 118.885C137.423 119.961 136.222 120.814 134.883 121.388C133.544 121.961 132.098 122.241 130.642 122.209C129.943 122.218 129.245 122.27 128.552 122.367C128.508 122.883 128.476 123.493 128.47 124.173C129.502 126.849 131.492 130.337 134.961 131.099C140.753 132.358 144.889 128.203 145.72 126.755C146.463 125.445 149.749 112.142 148.868 106.382C148.223 106.305 147.569 106.359 146.945 106.54C146.321 106.72 145.74 107.024 145.235 107.433Z" fill="#FFC100"/>
<path opacity="0.7" d="M145.235 107.433C145.235 107.433 140.249 117.034 138.405 118.885C137.423 119.961 136.222 120.814 134.883 121.388C133.544 121.961 132.098 122.241 130.642 122.209C129.943 122.218 129.245 122.27 128.552 122.367C128.508 122.883 128.476 123.493 128.47 124.173C129.502 126.849 131.492 130.337 134.961 131.099C140.753 132.358 144.889 128.203 145.72 126.755C146.463 125.445 149.749 112.142 148.868 106.382C148.223 106.305 147.569 106.359 146.945 106.54C146.321 106.72 145.74 107.024 145.235 107.433Z" fill="white"/>
<path d="M154.402 126.138C153.293 125.549 152.145 125.037 150.965 124.608C148.377 123.689 155.768 115.164 153.917 110.94C152.066 106.715 148.377 105.028 145.236 107.433C145.236 107.433 140.249 117.034 138.405 118.885C137.423 119.961 136.222 120.814 134.883 121.388C133.545 121.961 132.098 122.241 130.642 122.209C129.943 122.218 129.245 122.27 128.552 122.366C128.199 126.459 128.483 136.261 138.77 139.019C148.459 141.612 152.602 133.617 154.402 126.138Z" stroke="#2E353A" stroke-width="0.899385" stroke-linecap="round" stroke-linejoin="round"/>
<path d="M145.116 128.158C145.116 128.158 142.837 129.229 142.094 132.565" stroke="#2E353A" stroke-width="0.899385" stroke-linecap="round" stroke-linejoin="round"/>
<path d="M150.776 95.9812C150.776 95.9812 151.884 92.2857 149.303 90.9951C146.722 89.7044 136.743 93.5763 134.527 100.042C132.311 106.508 141.729 109.095 146.898 105.4C152.067 101.704 151.147 96.7178 151.147 96.7178L150.776 95.9812Z" fill="#2E353A" stroke="#2E353A" stroke-width="0.899385" stroke-linecap="round" stroke-linejoin="round"/>
<path d="M134.526 100.042C134.526 100.042 132.443 105.633 136.289 108.453C140.136 111.274 145.771 105.891 145.771 105.891" stroke="#2E353A" stroke-width="0.899385" stroke-linecap="round" stroke-linejoin="round"/>
<path d="M145.425 113.71C145.425 113.71 141.175 109.095 144.109 100.804C147.043 92.5123 154.811 90.2837 164.079 90.7873C175.726 91.4169 176.802 103.574 176.437 106.527C176.207 108.338 175.836 110.13 175.329 111.884C175.329 111.884 179.944 117.607 177.356 121.12C174.769 124.633 165.722 122.965 162.209 118.161C158.696 113.357 148.176 114.837 147.622 115.208C147.068 115.58 145.425 113.71 145.425 113.71Z" fill="#2E353A" stroke="#2E353A" stroke-width="0.899385" stroke-linecap="round" stroke-linejoin="round"/>
<path d="M169.449 121.491C168.92 121.271 168.449 120.933 168.07 120.503" stroke="white" stroke-width="0.899385" stroke-linecap="round" stroke-linejoin="round"/>
<path d="M166.773 111.273C166.773 111.273 175.738 118.451 172.924 120.755C172.655 120.976 172.364 121.171 172.055 121.334" stroke="white" stroke-width="0.899385" stroke-linecap="round" stroke-linejoin="round"/>
<path d="M165.514 109.221C168.517 109.142 171.499 109.756 174.227 111.015" stroke="white" stroke-width="0.899385" stroke-linecap="round" stroke-linejoin="round"/>
<path d="M165.508 105.891L163.455 96.1512" stroke="white" stroke-width="0.899385" stroke-linecap="round" stroke-linejoin="round"/>
<path d="M147.949 105.79C147.603 105.67 147.256 105.538 146.898 105.4" stroke="white" stroke-width="0.899385" stroke-linecap="round" stroke-linejoin="round"/>
<path d="M164.74 104.613C164.74 104.613 159.703 108.466 151.204 106.697" stroke="white" stroke-width="0.899385" stroke-linecap="round" stroke-linejoin="round"/>
<path d="M163.713 100.766C163.713 100.766 160.641 102.302 155.529 102.302" stroke="white" stroke-width="0.899385" stroke-linecap="round" stroke-linejoin="round"/>
<path d="M143.573 114.081C143.573 114.081 143.019 119.25 143.945 122.763C144.87 126.276 145.053 131.816 148.352 132.37C151.651 132.924 162.574 126.824 164.607 124.608C166.038 123.119 166.833 121.132 166.823 119.067C166.823 117.959 164.979 110.203 164.979 110.203C161.868 110.908 158.713 111.403 155.535 111.683C152.096 112.015 148.626 111.571 145.38 110.386C145.38 110.386 142.849 112.048 143.573 114.081Z" fill="white"/>
<path d="M145.424 110.386C145.424 110.386 142.837 112.048 143.573 114.081C143.573 114.081 143.019 119.25 143.945 122.763C144.7 125.628 144.958 129.846 146.841 131.577C145.286 128.171 144.486 119.911 148.408 116.36C152.752 112.432 163.518 110.568 163.518 110.568V110.505C161.925 110.826 159.155 111.311 155.598 111.657C152.154 112 148.678 111.566 145.424 110.386Z" fill="#FFC100"/>
<path opacity="0.7" d="M145.424 110.386C145.424 110.386 142.837 112.048 143.573 114.081C143.573 114.081 143.019 119.25 143.945 122.763C144.7 125.628 144.958 129.846 146.841 131.577C145.286 128.171 144.486 119.911 148.408 116.36C152.752 112.432 163.518 110.568 163.518 110.568V110.505C161.925 110.826 159.155 111.311 155.598 111.657C152.154 112 148.678 111.566 145.424 110.386Z" fill="white"/>
<path d="M143.573 114.081C143.573 114.081 143.019 119.25 143.945 122.763C144.87 126.276 145.053 131.816 148.352 132.37C151.651 132.924 162.574 126.824 164.607 124.608C166.038 123.119 166.833 121.132 166.823 119.067C166.823 117.959 164.979 110.203 164.979 110.203C161.868 110.908 158.713 111.403 155.535 111.683C152.096 112.015 148.626 111.571 145.38 110.386C145.38 110.386 142.849 112.048 143.573 114.081Z" stroke="#2E353A" stroke-width="0.899385" stroke-linecap="round" stroke-linejoin="round"/>
<path d="M145.79 112.237C145.79 112.237 145.979 107.616 143.756 107.616C141.534 107.616 140.067 115.171 144.317 116.115" fill="white"/>
<path d="M145.79 112.237C145.79 112.237 145.979 107.616 143.756 107.616C141.534 107.616 140.067 115.171 144.317 116.115" fill="#FFC100"/>
<path opacity="0.7" d="M145.79 112.237C145.79 112.237 145.979 107.616 143.756 107.616C141.534 107.616 140.067 115.171 144.317 116.115" fill="white"/>
<path d="M145.79 112.237C145.79 112.237 145.979 107.616 143.756 107.616C141.534 107.616 140.067 115.171 144.317 116.115" stroke="#2E353A" stroke-width="0.899385" stroke-linecap="round" stroke-linejoin="round"/>
<path d="M159.848 120.365C159.848 120.365 155.441 127.378 154.49 127.378C153.54 127.378 153.011 125.905 153.011 125.905" stroke="#2E353A" stroke-width="0.899385" stroke-linecap="round" stroke-linejoin="round"/>
<path d="M151.519 117.588C151.602 118.408 151.99 119.166 152.605 119.714C153.221 120.262 154.019 120.559 154.843 120.547" stroke="#2E353A" stroke-width="0.899385" stroke-linecap="round" stroke-linejoin="round"/>
<path d="M159.458 123.317C159.458 123.317 159.646 125.716 162.782 124.979" stroke="#2E353A" stroke-width="0.899385" stroke-linecap="round" stroke-linejoin="round"/>
<path d="M158.167 117.959C158.167 117.959 156.876 114.635 153.917 114.453" stroke="#2E353A" stroke-width="1.34908" stroke-linecap="round" stroke-linejoin="round"/>
<path d="M164.633 121.838C163.336 119.622 160.754 120.176 160.754 120.176" stroke="#2E353A" stroke-width="1.34908" stroke-linecap="round" stroke-linejoin="round"/>
<path d="M149.315 126.698C149.361 127.185 149.564 127.644 149.893 128.007C150.222 128.369 150.66 128.614 151.141 128.706" stroke="#2E353A" stroke-width="0.899385" stroke-linecap="round" stroke-linejoin="round"/>
<path d="M162.435 129.216C162.435 129.216 162.945 132.03 166.018 126.396C169.09 120.761 165.004 110.203 165.004 110.203" stroke="#2E353A" stroke-width="0.899385" stroke-linecap="round" stroke-linejoin="round"/>
<path opacity="0.13" d="M152.753 155.967C152.769 155.931 152.782 155.892 152.791 155.853L152.753 155.967Z" fill="black"/>
</g>
<defs>
<clipPath id="clip0_32_132">
<rect width="350" height="250" fill="white"/>
</clipPath>
</defs>
</svg>
