<svg width="305" height="280" viewBox="0 0 305 280" fill="none" xmlns="http://www.w3.org/2000/svg">
<path d="M250.241 60.9672C239.905 51.1 228.061 42.9016 215.476 37.156C196.306 28.4032 175.19 24.1864 154.068 23.9344C92.3558 23.2064 87.6378 93.968 68.6864 103.807C49.735 113.646 15.3162 114.8 14.1306 154.157C13.3827 178.914 19.3046 204.366 35.9517 223.653C51.2003 241.315 73.6051 250.27 95.6694 256.883C120.47 264.32 146.741 271.6 172.806 266.588C199.558 261.442 218.358 240.766 240.325 226.794C254.157 217.997 266.572 208.734 275.115 194.617C276.136 192.937 277.091 191.212 278.003 189.465C289.439 167.53 291.677 142.229 285.372 118.49C279.717 97.1936 266.943 76.9048 250.241 60.9672Z" fill="#FFF5D3"/>
<path d="M175.409 177.817C176.485 178.506 179.385 178.976 179.391 178.976C179.397 178.976 179.148 177.122 179.111 177.005C178.746 175.672 177.178 173.286 175.5 173.191C175.221 173.182 174.944 173.227 174.685 173.323C174.427 173.419 174.193 173.564 174 173.749C173.806 173.934 173.657 174.155 173.563 174.396C173.468 174.638 173.43 174.895 173.451 175.151C173.499 176.238 174.49 177.223 175.409 177.817Z" fill="#2E353A"/>
<path d="M174.734 185.701C175.95 186.093 178.649 185.881 178.868 185.858C178.999 187.295 179.233 188.723 179.567 190.131C179.762 190.954 179.981 191.772 180.212 192.595C180.048 192.237 179.896 191.912 179.865 191.873C179.13 190.669 176.935 188.754 175.287 189.073C175.016 189.132 174.761 189.243 174.539 189.399C174.318 189.555 174.134 189.752 174.001 189.978C173.868 190.203 173.788 190.453 173.767 190.709C173.745 190.965 173.783 191.222 173.877 191.464C174.229 192.5 175.469 193.211 176.521 193.558C177.573 193.906 179.92 193.766 180.54 193.721C180.631 194.04 180.717 194.354 180.814 194.667C181.264 196.174 181.72 197.674 182.115 199.147C182.261 199.668 182.376 200.189 182.498 200.71C182.346 200.39 182.218 200.122 182.194 200.082C181.458 198.884 179.263 196.963 177.616 197.282C177.345 197.342 177.091 197.454 176.87 197.61C176.649 197.766 176.466 197.963 176.333 198.189C176.2 198.414 176.12 198.663 176.098 198.919C176.076 199.174 176.112 199.432 176.205 199.674C176.558 200.715 177.798 201.421 178.856 201.768C179.914 202.115 182.024 201.992 182.759 201.942C182.863 202.501 182.966 203.011 183.045 203.538C183.088 203.896 183.155 204.238 183.179 204.602C183.203 204.965 183.234 205.313 183.264 205.666C183.294 206.343 183.325 207.043 183.337 207.704C183.337 208.169 183.337 208.606 183.337 209.048C183.203 208.527 182.917 207.508 182.887 207.424C182.352 206.136 180.498 203.935 178.82 204.014C178.542 204.034 178.271 204.108 178.027 204.232C177.782 204.355 177.568 204.524 177.4 204.729C177.231 204.933 177.111 205.169 177.048 205.419C176.984 205.669 176.979 205.929 177.032 206.181C177.208 207.256 178.321 208.135 179.306 208.622C180.388 209.182 183.015 209.334 183.337 209.35C183.337 210.084 183.337 210.795 183.337 211.467C183.307 212.834 183.246 214.06 183.173 215.118L184.249 215.314C184.298 214.194 184.334 212.923 184.334 211.478C184.334 210.734 184.334 209.938 184.334 209.126C185.155 208.981 185.967 208.794 186.766 208.566C187.429 209.558 189.374 210.941 189.624 211.114C189.186 211.725 188.754 212.318 188.341 212.867C187.544 213.92 186.809 214.85 186.146 215.667L187.301 215.88C187.873 215.141 188.517 214.306 189.162 213.388C189.605 212.766 190.074 212.1 190.542 211.406C190.84 211.523 193.272 212.464 194.5 212.436C195.619 212.436 197.041 212.089 197.728 211.204C197.898 211 198.02 210.766 198.085 210.517C198.151 210.268 198.158 210.008 198.108 209.756C198.057 209.503 197.95 209.264 197.792 209.052C197.635 208.84 197.431 208.661 197.193 208.527C195.734 207.754 193.004 208.953 191.892 209.882C191.831 209.933 191.192 210.599 190.797 211.03L191.369 210.179C191.752 209.619 192.116 209.009 192.512 208.376L193.053 207.435C193.241 207.122 193.399 206.774 193.576 206.438C193.965 205.66 194.317 204.848 194.658 204.025C195.205 204.333 197.181 205.408 198.306 205.537C199.431 205.666 200.866 205.537 201.692 204.77C201.895 204.592 202.054 204.378 202.16 204.14C202.266 203.903 202.317 203.647 202.308 203.39C202.3 203.133 202.232 202.881 202.11 202.649C201.989 202.418 201.815 202.213 201.601 202.048C200.294 201.085 197.394 201.886 196.129 202.647C196.05 202.692 195.217 203.336 194.773 203.694C194.968 203.196 195.169 202.703 195.351 202.199C195.88 200.732 196.366 199.231 196.859 197.719C197.005 197.26 197.163 196.806 197.315 196.353C197.509 196.465 199.832 197.781 201.078 197.926C202.191 198.061 203.644 197.926 204.471 197.159C204.672 196.982 204.831 196.768 204.936 196.531C205.042 196.294 205.092 196.039 205.083 195.782C205.075 195.526 205.008 195.274 204.886 195.044C204.765 194.813 204.593 194.608 204.38 194.443C203.067 193.474 200.166 194.275 198.908 195.037C198.817 195.098 197.625 196.017 197.333 196.269C197.674 195.266 198.02 194.27 198.403 193.301C198.924 191.99 199.533 190.711 200.227 189.47C200.318 189.526 202.732 190.91 204.009 191.061C205.122 191.195 206.575 191.061 207.402 190.294C207.603 190.116 207.762 189.901 207.867 189.664C207.973 189.426 208.023 189.171 208.014 188.914C208.006 188.657 207.939 188.405 207.817 188.174C207.696 187.943 207.523 187.738 207.31 187.572C205.997 186.609 203.097 187.409 201.838 188.171C201.741 188.233 200.458 189.224 200.239 189.42C200.282 189.353 200.318 189.274 200.361 189.201C201.093 187.976 201.943 186.814 202.902 185.73C203.419 185.125 203.954 184.57 204.489 184.05C204.909 184.352 206.848 185.73 207.979 185.959C209.11 186.189 210.527 186.228 211.445 185.539C211.666 185.383 211.849 185.186 211.982 184.961C212.115 184.736 212.196 184.487 212.217 184.231C212.239 183.976 212.202 183.719 212.109 183.477C212.016 183.235 211.868 183.014 211.676 182.829C210.49 181.737 207.511 182.235 206.204 182.868C206.131 182.901 205.438 183.327 204.939 183.646C205.182 183.411 205.432 183.165 205.669 182.946C206.563 182.118 207.438 181.406 208.216 180.785C208.666 180.437 209.08 180.129 209.469 179.844C210.046 179.939 212.387 180.303 213.5 180.051C214.612 179.799 215.895 179.211 216.364 178.209C216.482 177.976 216.546 177.723 216.552 177.467C216.557 177.21 216.504 176.955 216.396 176.719C216.287 176.482 216.126 176.269 215.923 176.093C215.719 175.918 215.478 175.784 215.214 175.7C213.615 175.241 211.22 176.943 210.35 178.074C210.277 178.169 209.299 179.816 209.329 179.821H209.359C208.982 180.09 208.575 180.382 208.143 180.706C207.347 181.311 206.453 182 205.535 182.817C204.534 183.684 203.59 184.604 202.708 185.573C201.711 186.65 200.822 187.809 200.051 189.034C200.052 189.048 200.052 189.063 200.051 189.078C200.154 188.636 200.404 187.398 200.41 187.292C200.513 185.914 199.832 183.198 198.269 182.627C198.008 182.539 197.729 182.502 197.451 182.519C197.173 182.537 196.902 182.608 196.655 182.729C196.409 182.849 196.194 183.016 196.022 183.219C195.851 183.421 195.728 183.655 195.661 183.904C195.333 184.951 195.941 186.172 196.616 186.995C197.376 187.925 199.777 189.134 199.966 189.235C199.213 190.499 198.555 191.809 197.996 193.155C197.661 193.939 197.351 194.734 197.053 195.541C197.132 195.154 197.199 194.807 197.199 194.757C197.303 193.385 196.622 190.669 195.059 190.092C194.798 190.003 194.519 189.967 194.24 189.984C193.962 190.002 193.691 190.073 193.445 190.193C193.199 190.314 192.983 190.481 192.812 190.683C192.641 190.886 192.518 191.119 192.451 191.369C192.123 192.416 192.731 193.637 193.405 194.46C194.08 195.283 196.117 196.364 196.652 196.638C196.543 196.946 196.427 197.254 196.318 197.568C195.795 199.052 195.272 200.536 194.719 201.975C194.518 202.485 194.305 202.978 194.111 203.47C194.178 203.129 194.232 202.838 194.232 202.793C194.336 201.421 193.655 198.705 192.098 198.128C191.836 198.04 191.557 198.004 191.279 198.022C191.001 198.04 190.73 198.111 190.483 198.232C190.237 198.352 190.021 198.518 189.848 198.721C189.676 198.923 189.552 199.156 189.484 199.405C189.162 200.452 189.77 201.673 190.438 202.496C191.107 203.319 192.949 204.294 193.594 204.624C193.357 205.128 193.126 205.626 192.877 206.102C192.694 206.422 192.548 206.746 192.348 207.06L191.782 207.99C191.399 208.55 191.01 209.171 190.621 209.731L189.83 210.851C190.031 210.347 190.402 209.35 190.438 209.266C190.674 208.072 190.576 206.843 190.153 205.694C190.188 205.561 190.208 205.426 190.213 205.29C190.233 205.034 190.194 204.778 190.099 204.536C190.005 204.295 189.856 204.075 189.662 203.89C189.469 203.706 189.236 203.56 188.978 203.464C188.72 203.367 188.443 203.322 188.165 203.33C186.486 203.431 184.924 205.817 184.553 207.155C184.553 207.234 184.401 208.113 184.328 208.667C184.328 208.337 184.328 208.012 184.298 207.67C184.267 206.993 184.219 206.315 184.17 205.587L184.061 204.523C184.03 204.17 183.951 203.795 183.896 203.431C183.757 202.58 183.562 201.723 183.355 200.866C184 200.866 186.286 200.732 187.295 200.306C188.304 199.881 189.441 199.013 189.666 197.943C189.732 197.691 189.738 197.43 189.686 197.175C189.633 196.921 189.522 196.68 189.361 196.468C189.199 196.256 188.99 196.078 188.749 195.947C188.507 195.815 188.237 195.732 187.958 195.703C186.286 195.563 184.346 197.702 183.763 198.974C183.726 199.052 183.422 200.01 183.264 200.536C183.13 200.021 183.003 199.506 182.851 198.99C182.413 197.501 181.92 196.006 181.434 194.51L180.996 193.138C181.227 193.138 183.951 193.054 185.082 192.539C186.085 192.086 187.228 191.251 187.453 190.176C187.518 189.924 187.524 189.663 187.47 189.409C187.417 189.155 187.306 188.914 187.145 188.703C186.984 188.491 186.775 188.313 186.534 188.181C186.293 188.049 186.024 187.965 185.745 187.936C184.073 187.802 182.133 189.941 181.549 191.212C181.507 191.307 181.063 192.685 180.972 193.038C180.656 192.03 180.364 191.022 180.09 190.019C179.734 188.664 179.474 187.289 179.312 185.903C179.421 185.903 182.261 185.83 183.422 185.304C184.425 184.85 185.562 184.01 185.787 182.941C185.852 182.689 185.858 182.428 185.805 182.175C185.752 181.921 185.642 181.681 185.481 181.469C185.32 181.258 185.113 181.08 184.872 180.947C184.632 180.815 184.363 180.731 184.085 180.701C182.413 180.566 180.473 182.706 179.89 183.977C179.841 184.078 179.367 185.556 179.282 185.83C179.282 185.746 179.251 185.668 179.245 185.584C179.122 184.191 179.136 182.791 179.288 181.401C179.355 180.628 179.47 179.9 179.598 179.189C180.133 179.222 182.559 179.368 183.659 179.004C184.76 178.64 185.945 177.934 186.292 176.893C186.384 176.65 186.419 176.393 186.395 176.137C186.371 175.882 186.29 175.633 186.155 175.409C186.02 175.184 185.835 174.988 185.613 174.834C185.39 174.679 185.135 174.57 184.863 174.513C183.221 174.205 181.039 176.137 180.303 177.341C180.267 177.408 179.938 178.114 179.695 178.629C179.756 178.31 179.817 177.979 179.884 177.677C180.133 176.557 180.443 175.493 180.717 174.58C180.881 174.059 181.039 173.594 181.197 173.163C181.738 172.945 183.909 172.043 184.687 171.281C185.465 170.52 186.182 169.366 185.97 168.291C185.928 168.04 185.831 167.8 185.684 167.585C185.536 167.371 185.342 167.187 185.113 167.045C184.885 166.904 184.626 166.807 184.355 166.762C184.084 166.718 183.806 166.725 183.538 166.785C181.926 167.21 180.954 169.853 180.905 171.231C180.905 171.349 181.069 173.219 181.1 173.208H181.13C180.978 173.622 180.814 174.07 180.644 174.563C180.346 175.476 180.036 176.506 179.732 177.649C179.42 178.881 179.185 180.128 179.026 181.384C178.844 182.79 178.797 184.209 178.886 185.623C178.886 185.623 178.886 185.657 178.886 185.674C178.71 185.254 178.169 184.083 178.114 183.994C177.373 182.795 175.178 180.874 173.536 181.194C173.265 181.253 173.011 181.365 172.79 181.521C172.569 181.677 172.386 181.874 172.253 182.1C172.12 182.325 172.04 182.574 172.018 182.83C171.996 183.086 172.033 183.343 172.125 183.585C172.442 184.649 173.682 185.36 174.734 185.701Z" fill="#2E353A"/>
<path d="M204.495 183.77C204.495 183.77 205.401 182.09 205.444 181.983C205.936 180.678 206.052 177.895 204.72 176.943C204.494 176.794 204.235 176.69 203.962 176.639C203.689 176.588 203.407 176.591 203.135 176.647C202.863 176.703 202.607 176.811 202.384 176.964C202.16 177.118 201.975 177.313 201.838 177.537C201.23 178.466 201.455 179.777 201.869 180.751C202.355 181.899 204.495 183.764 204.495 183.77Z" fill="#2E353A"/>
<path d="M113.022 72.5312C114.171 72.6824 116.67 71.9712 116.67 71.9712C116.67 71.9712 115.679 70.5936 115.606 70.5152C114.736 69.5968 112.475 68.2752 111.113 68.8352C110.889 68.9304 110.69 69.0677 110.528 69.2382C110.366 69.4087 110.245 69.6086 110.172 69.8251C110.099 70.0415 110.077 70.2696 110.106 70.4946C110.135 70.7196 110.215 70.9365 110.34 71.1312C110.839 71.9824 112.049 72.3968 113.022 72.5312Z" fill="#2E353A"/>
<path d="M115.891 78.9936C116.992 78.8648 119.053 77.7 119.217 77.6104C119.936 78.6954 120.734 79.7339 121.607 80.7184C122.111 81.2784 122.634 81.8664 123.169 82.4264C122.883 82.2024 122.628 82.0064 122.561 81.984C121.467 81.3064 118.913 80.5952 117.746 81.424C117.558 81.5701 117.405 81.751 117.298 81.955C117.191 82.1589 117.131 82.3813 117.123 82.6077C117.115 82.8342 117.159 83.0597 117.251 83.2696C117.344 83.4795 117.483 83.6692 117.661 83.8264C118.39 84.5152 119.673 84.6216 120.652 84.5096C121.631 84.3976 123.425 83.4344 123.887 83.1768C124.093 83.3896 124.3 83.608 124.495 83.8208C125.498 84.84 126.501 85.8592 127.456 86.884C127.79 87.248 128.106 87.612 128.422 88.004C128.167 87.8024 127.954 87.64 127.918 87.6176C126.817 86.94 124.27 86.2288 123.102 87.0576C122.913 87.2033 122.76 87.384 122.652 87.5879C122.545 87.7919 122.485 88.0145 122.477 88.2412C122.469 88.468 122.513 88.6937 122.606 88.9037C122.699 89.1137 122.839 89.3033 123.017 89.46C123.741 90.1488 125.024 90.2552 126.009 90.1432C126.993 90.0312 128.605 89.1632 129.158 88.8552C129.468 89.2416 129.766 89.6224 130.07 90.0088C130.258 90.2776 130.459 90.524 130.635 90.7984L131.158 91.6048C131.474 92.1312 131.803 92.6688 132.095 93.1896C132.301 93.548 132.49 93.8952 132.703 94.2424C132.368 93.8784 131.712 93.184 131.645 93.1224C130.672 92.2992 128.264 91.2408 126.975 91.9184C126.765 92.036 126.585 92.193 126.445 92.3791C126.306 92.5652 126.21 92.7762 126.165 92.9986C126.119 93.2209 126.125 93.4496 126.182 93.6696C126.239 93.8897 126.346 94.0963 126.495 94.276C127.103 95.06 128.349 95.3456 129.34 95.396C130.423 95.396 132.569 94.6008 132.836 94.5C133.146 95.06 133.444 95.62 133.724 96.18C134.289 97.2664 134.764 98.2576 135.165 99.12L136.095 98.8792C135.657 97.9944 135.135 96.964 134.514 95.8272C134.198 95.2672 133.846 94.6176 133.475 93.9848C134.067 93.5664 134.633 93.1177 135.171 92.6408C136.236 93.1053 137.365 93.4313 138.527 93.6096C138.442 94.2536 138.357 94.8752 138.266 95.4632C138.089 96.5832 137.907 97.5856 137.737 98.4648L138.74 98.2072C138.874 97.4176 139.008 96.5272 139.135 95.5696C139.22 94.9144 139.299 94.22 139.372 93.5032C139.652 93.5032 141.975 93.3408 142.935 92.8648C143.805 92.4336 144.759 91.6664 144.948 90.7144C144.995 90.4922 144.99 90.2633 144.935 90.0428C144.879 89.8223 144.773 89.6151 144.625 89.4348C144.476 89.2545 144.288 89.1052 144.072 88.9966C143.856 88.8881 143.618 88.8227 143.373 88.8048C141.896 88.7264 140.254 90.6696 139.78 91.8008C139.749 91.868 139.537 92.6296 139.409 93.1112C139.409 92.8144 139.47 92.5512 139.494 92.232C139.543 91.6328 139.579 91.0392 139.622 90.3952V89.4544C139.622 89.1408 139.622 88.8048 139.622 88.48C139.622 87.7184 139.524 86.9512 139.439 86.1784C140.005 86.2232 142.023 86.3464 142.96 86.044C143.896 85.7416 144.984 85.1144 145.3 84.196C145.383 83.9843 145.417 83.7589 145.4 83.5343C145.383 83.3098 145.315 83.091 145.2 82.8922C145.086 82.6933 144.927 82.5187 144.735 82.3797C144.543 82.2406 144.321 82.1402 144.084 82.0848C142.631 81.8048 140.692 83.496 140.035 84.5488C139.999 84.616 139.616 85.4224 139.427 85.8704C139.366 85.4112 139.312 84.9464 139.239 84.4816C139.026 83.132 138.764 81.7712 138.509 80.416C138.43 80.0016 138.357 79.5872 138.284 79.1728C138.485 79.1728 140.88 79.38 141.932 79.044C142.862 78.7416 143.957 78.1144 144.279 77.196C144.362 76.9843 144.396 76.7589 144.379 76.5343C144.362 76.3098 144.293 76.091 144.179 75.8922C144.064 75.6933 143.906 75.5187 143.714 75.3797C143.522 75.2406 143.3 75.1402 143.063 75.0848C141.616 74.8048 139.676 76.496 139.02 77.5488C138.971 77.6328 138.412 78.792 138.302 79.0944C138.138 78.1816 137.986 77.2688 137.877 76.3672C137.717 75.1445 137.644 73.9137 137.658 72.6824C137.755 72.6824 140.254 72.9064 141.306 72.5536C142.236 72.2512 143.33 71.6296 143.653 70.7112C143.735 70.4976 143.768 70.2703 143.749 70.0442C143.73 69.8181 143.659 69.5983 143.542 69.399C143.424 69.1998 143.262 69.0257 143.067 68.888C142.871 68.7503 142.646 68.6521 142.406 68.6C140.959 68.32 139.014 70.0056 138.363 71.064C138.308 71.148 137.755 72.4024 137.64 72.632C137.64 72.5648 137.64 72.4864 137.64 72.4192C137.696 71.1853 137.866 69.9581 138.15 68.7512C138.302 68.0848 138.485 67.4576 138.679 66.8472C139.141 66.9312 141.251 67.2896 142.254 67.0712C143.257 66.8528 144.376 66.36 144.802 65.4808C144.912 65.2764 144.973 65.0531 144.983 64.8253C144.992 64.5975 144.949 64.3704 144.857 64.1589C144.764 63.9474 144.625 63.7563 144.446 63.5981C144.268 63.4399 144.056 63.3181 143.823 63.2408C142.412 62.8152 140.284 64.2992 139.506 65.2848C139.464 65.3352 139.099 65.9232 138.837 66.36C138.929 66.0856 139.02 65.8 139.111 65.5368C139.464 64.5568 139.847 63.6832 140.199 62.9048C140.4 62.468 140.588 62.076 140.777 61.7064C141.275 61.572 143.276 61.0064 144.042 60.396C144.808 59.7856 145.574 58.8616 145.507 57.8984C145.501 57.6722 145.443 57.4497 145.337 57.2455C145.231 57.0413 145.08 56.8598 144.893 56.713C144.706 56.5662 144.487 56.4572 144.252 56.3932C144.016 56.3292 143.769 56.3116 143.525 56.3416C142.06 56.5656 140.911 58.7832 140.716 59.9872C140.716 60.0936 140.631 61.7456 140.661 61.74H140.692C140.503 62.0928 140.309 62.468 140.084 62.86C139.719 63.6272 139.312 64.5008 138.935 65.4808C138.519 66.5284 138.172 67.5981 137.895 68.684C137.574 69.897 137.371 71.1339 137.287 72.38V72.4248C137.177 72.0384 136.837 70.9688 136.801 70.8848C136.29 69.7648 134.587 67.872 133.11 67.9896C132.865 68.0146 132.629 68.087 132.416 68.2022C132.204 68.3174 132.021 68.4726 131.878 68.6578C131.736 68.8429 131.638 69.0538 131.59 69.2764C131.542 69.4991 131.547 69.7285 131.602 69.9496C131.797 70.896 132.818 71.6296 133.681 72.0384C134.685 72.492 137.098 72.5984 137.287 72.5984C137.239 73.8708 137.282 75.1447 137.415 76.412C137.494 77.1512 137.591 77.8904 137.7 78.652C137.597 78.3216 137.5 78.0248 137.481 77.9856C136.971 76.8656 135.262 74.9728 133.791 75.0904C133.547 75.1156 133.311 75.1879 133.099 75.3027C132.887 75.4175 132.703 75.5721 132.56 75.7564C132.418 75.9408 132.319 76.1508 132.27 76.3728C132.221 76.5948 132.223 76.8237 132.277 77.0448C132.472 77.9912 133.493 78.7248 134.362 79.1392C135.232 79.5536 137.317 79.6488 137.858 79.6712C137.907 79.9512 137.95 80.2312 137.992 80.5224C138.217 81.8832 138.448 83.244 138.631 84.5824C138.691 85.0528 138.734 85.5232 138.783 85.988C138.691 85.6912 138.606 85.428 138.588 85.428C138.077 84.308 136.375 82.4096 134.897 82.5272C134.653 82.553 134.417 82.626 134.205 82.7414C133.994 82.8568 133.811 83.0121 133.668 83.197C133.526 83.382 133.428 83.5924 133.38 83.8147C133.332 84.037 133.335 84.2662 133.39 84.4872C133.584 85.4336 134.606 86.1672 135.469 86.576C136.332 86.9848 138.223 87.08 138.874 87.1024C138.904 87.584 138.935 88.0656 138.941 88.5304C138.941 88.8496 138.941 89.1576 138.941 89.4768C138.941 89.796 138.91 90.104 138.892 90.4176C138.843 91.0112 138.795 91.6272 138.728 92.2096C138.685 92.6184 138.637 92.9992 138.588 93.3912C138.527 92.9208 138.393 92.0024 138.375 91.924C138.051 90.8953 137.446 89.9603 136.618 89.208C136.586 89.0929 136.543 88.9805 136.49 88.872C136.396 88.6624 136.255 88.4736 136.076 88.3177C135.897 88.1619 135.685 88.0425 135.452 87.9675C135.22 87.8925 134.973 87.8634 134.727 87.8822C134.482 87.9011 134.244 87.9673 134.028 88.0768C132.751 88.7656 132.545 91.2128 132.812 92.4056C132.812 92.4728 133.104 93.2176 133.286 93.6824C133.134 93.4248 132.988 93.1728 132.824 92.904C132.514 92.3832 132.186 91.868 131.833 91.308L131.286 90.5128C131.11 90.244 130.891 89.9808 130.678 89.7064C130.198 89.0904 129.681 88.4856 129.146 87.8864C129.644 87.6344 131.401 86.7104 131.997 85.9824C132.593 85.2544 133.134 84.1792 132.849 83.2552C132.789 83.0363 132.679 82.8315 132.528 82.654C132.377 82.4764 132.186 82.3302 131.97 82.2246C131.753 82.119 131.515 82.0565 131.27 82.0411C131.026 82.0257 130.781 82.0578 130.55 82.1352C129.17 82.6392 128.562 85.0304 128.647 86.2456C128.647 86.324 128.824 87.1864 128.927 87.6624C128.599 87.304 128.276 86.9456 127.936 86.5928C126.951 85.5792 125.917 84.5824 124.896 83.58L123.966 82.656C124.142 82.5664 126.258 81.536 126.927 80.696C127.535 79.968 128.064 78.8928 127.778 77.9688C127.718 77.7492 127.608 77.5438 127.457 77.3658C127.305 77.1877 127.114 77.0411 126.897 76.9355C126.679 76.8299 126.44 76.7675 126.195 76.7526C125.95 76.7376 125.704 76.7704 125.473 76.8488C124.099 77.3472 123.491 79.744 123.577 80.9592C123.577 81.0488 123.826 82.2976 123.905 82.6112C123.224 81.9336 122.549 81.2504 121.911 80.5504C121.049 79.6103 120.253 78.6209 119.527 77.588C119.612 77.5488 121.825 76.468 122.506 75.6224C123.114 74.8944 123.643 73.8192 123.358 72.8952C123.298 72.6763 123.188 72.4715 123.037 72.294C122.886 72.1164 122.695 71.9702 122.479 71.8646C122.262 71.759 122.024 71.6965 121.779 71.6811C121.535 71.6657 121.29 71.6978 121.059 71.7752C119.685 72.2736 119.071 74.6704 119.162 75.8856C119.162 75.9808 119.43 77.3192 119.497 77.5656L119.363 77.3864C118.668 76.3317 118.076 75.2223 117.594 74.0712C117.32 73.4384 117.095 72.8224 116.895 72.212C117.326 72.0496 119.327 71.2768 120.014 70.588C120.701 69.8992 121.357 68.908 121.181 67.9616C121.149 67.737 121.066 67.5211 120.937 67.3282C120.808 67.1352 120.636 66.9693 120.433 66.8415C120.23 66.7136 120 66.6266 119.758 66.5861C119.516 66.5456 119.268 66.5525 119.029 66.6064C117.6 66.9648 116.712 69.2832 116.651 70.5264C116.651 70.5936 116.7 71.2712 116.743 71.764C116.651 71.4896 116.56 71.204 116.481 70.9408C116.183 69.944 115.983 69.02 115.806 68.1968C115.709 67.7264 115.636 67.3008 115.569 66.9032C115.904 66.5336 117.235 65.044 117.515 64.148C117.794 63.252 117.867 62.0872 117.241 61.348C117.1 61.1619 116.919 61.0053 116.708 60.8883C116.497 60.7714 116.261 60.6967 116.017 60.6692C115.772 60.6418 115.524 60.6621 115.289 60.7288C115.054 60.7956 114.836 60.9074 114.651 61.0568C113.563 61.9808 113.934 64.4168 114.487 65.5368C114.536 65.632 115.478 67.0432 115.49 67.0264C115.545 67.4128 115.606 67.8216 115.691 68.2696C115.843 69.0984 116.025 70.0336 116.299 71.036C116.579 72.1216 116.928 73.1911 117.345 74.2392C117.805 75.4152 118.379 76.551 119.059 77.6328C119.06 77.6458 119.06 77.6589 119.059 77.672C118.737 77.4032 117.843 76.6808 117.734 76.636C116.633 75.9584 114.086 75.2472 112.918 76.076C112.729 76.2217 112.576 76.4024 112.468 76.6063C112.361 76.8103 112.301 77.0329 112.293 77.2596C112.285 77.4864 112.329 77.7121 112.422 77.9221C112.515 78.1321 112.655 78.3217 112.833 78.4784C113.63 78.9992 114.906 79.1056 115.891 78.9936Z" fill="#2E353A"/>
<path d="M138.515 66.6064C138.515 66.6064 138.515 64.9264 138.515 64.848C138.345 63.644 137.244 61.404 135.785 61.1576C135.542 61.1236 135.294 61.1371 135.057 61.197C134.819 61.257 134.599 61.3622 134.408 61.5058C134.218 61.6494 134.063 61.8281 133.952 62.0305C133.842 62.2329 133.778 62.4545 133.767 62.6808C133.682 63.6384 134.442 64.596 135.177 65.2008C136.028 65.912 138.515 66.6064 138.515 66.6064Z" fill="#2E353A"/>
<path d="M35.678 231.627C36.7603 231.302 38.6268 229.701 38.6268 229.701C38.6268 229.701 37.1068 228.889 37.0035 228.85C35.7875 228.385 33.2035 228.138 32.255 229.152C32.1036 229.325 31.9934 229.525 31.9312 229.74C31.8691 229.955 31.8566 230.179 31.8944 230.399C31.9322 230.618 32.0195 230.828 32.1507 231.015C32.282 231.201 32.4542 231.36 32.6563 231.482C33.5257 232.019 34.7417 231.902 35.678 231.627Z" fill="#2E353A"/>
<path d="M41.2473 236.174C42.1593 235.614 43.424 233.772 43.5212 233.621C44.6655 234.29 45.8579 234.887 47.0902 235.407C47.8076 235.715 48.5372 236.001 49.2729 236.286L48.5494 236.124C47.2665 235.967 44.6825 236.365 44.0563 237.574C43.9598 237.778 43.9108 237.999 43.9126 238.221C43.9143 238.444 43.9668 238.663 44.0665 238.866C44.1662 239.069 44.3109 239.25 44.4914 239.398C44.6719 239.546 44.8841 239.657 45.1142 239.725C46.0809 240.038 47.2604 239.618 48.0691 239.131C48.8777 238.644 50.0025 237.076 50.2883 236.662L51.1395 236.975C52.5014 237.479 53.8694 237.972 55.1888 238.493C55.6569 238.678 56.1068 238.874 56.5628 239.053L55.9548 238.913C54.672 238.756 52.088 239.154 51.4617 240.363C51.3652 240.567 51.3163 240.788 51.318 241.01C51.3198 241.233 51.3722 241.452 51.4719 241.655C51.5716 241.858 51.7164 242.039 51.8969 242.187C52.0773 242.335 52.2895 242.446 52.5196 242.514C53.4864 242.827 54.6659 242.407 55.4745 241.92C56.2832 241.433 57.2985 240.016 57.639 239.523C58.095 239.736 58.5571 239.949 58.9888 240.173C59.2806 240.335 59.5968 240.47 59.8582 240.643L60.6972 241.147C61.2262 241.483 61.7673 241.825 62.2659 242.166C62.6185 242.396 62.9468 242.626 63.2812 242.855C62.8192 242.67 61.9072 242.295 61.8281 242.295C60.5817 241.965 57.9612 241.993 57.1465 243.102C57.0146 243.291 56.9277 243.504 56.8916 243.726C56.8555 243.948 56.871 244.175 56.9371 244.392C57.0032 244.608 57.1183 244.809 57.2749 244.982C57.4316 245.154 57.6261 245.294 57.8457 245.392C58.7456 245.84 59.9798 245.588 60.8857 245.218C61.8585 244.804 63.3542 243.225 63.5427 243.029C64.0899 243.41 64.6249 243.785 65.1174 244.149C66.1267 244.882 67.0083 245.56 67.7683 246.159L68.4736 245.599C67.6771 244.994 66.7225 244.3 65.6464 243.544C65.087 243.152 64.4851 242.749 63.8588 242.334C64.1904 241.733 64.4788 241.112 64.7222 240.475C65.8763 240.461 67.0225 240.297 68.127 239.988C68.358 240.587 68.5769 241.17 68.7715 241.724C69.1484 242.777 69.4646 243.734 69.726 244.574L70.486 243.953C70.2307 243.202 69.9328 242.368 69.5862 241.472C69.3552 240.862 69.0998 240.218 68.8262 239.557C69.0633 239.428 71.0393 238.37 71.6595 237.569C72.2796 236.768 72.7235 235.777 72.4195 234.875C72.356 234.661 72.2442 234.461 72.0913 234.289C71.9384 234.118 71.7478 233.977 71.532 233.878C71.3163 233.779 71.0802 233.722 70.8391 233.713C70.5981 233.703 70.3576 233.741 70.1334 233.822C68.7958 234.343 68.2608 236.706 68.3824 237.899C68.3824 237.966 68.5587 238.722 68.6742 239.198L68.3337 238.392C68.0966 237.832 67.8473 237.306 67.5798 236.712C67.44 236.432 67.294 236.152 67.1542 235.872C67.0144 235.592 66.838 235.312 66.68 235.021C66.2969 234.366 65.8713 233.716 65.464 233.078C65.9808 232.887 67.8169 232.187 68.504 231.543C69.191 230.899 69.8476 229.919 69.72 228.984C69.6919 228.763 69.6136 228.55 69.4902 228.359C69.3668 228.168 69.201 228.002 69.0037 227.874C68.8064 227.746 68.582 227.657 68.3451 227.614C68.1081 227.571 67.8639 227.574 67.6284 227.623C66.2239 227.954 65.312 230.216 65.2329 231.409C65.2329 231.487 65.2755 232.35 65.312 232.82C65.0444 232.434 64.7769 232.047 64.4912 231.666C63.6643 230.546 62.7948 229.477 61.9315 228.385C61.664 228.049 61.4086 227.713 61.1472 227.377C61.3296 227.315 63.5305 226.526 64.2905 225.809C65.0505 225.092 65.6403 224.185 65.5065 223.25C65.4784 223.029 65.4001 222.816 65.2767 222.624C65.1533 222.433 64.9876 222.268 64.7903 222.14C64.593 222.011 64.3686 221.923 64.1316 221.879C63.8947 221.836 63.6505 221.839 63.415 221.889C62.0105 222.219 61.0924 224.482 60.983 225.674C60.983 225.764 61.0499 227.002 61.0864 227.321C60.4784 226.582 59.9433 225.837 59.4204 225.081C58.7029 224.07 58.0591 223.017 57.4931 221.928C57.5782 221.894 59.8825 221.082 60.6608 220.349C61.3356 219.71 62.0105 218.725 61.8768 217.79C61.8535 217.556 61.774 217.33 61.6441 217.128C61.5143 216.927 61.3372 216.754 61.1258 216.623C60.9145 216.492 60.6742 216.407 60.4223 216.372C60.1704 216.337 59.9133 216.355 59.6697 216.423C58.2592 216.754 57.3472 219.016 57.2681 220.209C57.2681 220.304 57.3411 221.637 57.3715 221.889C57.3715 221.827 57.2985 221.766 57.2681 221.698C56.731 220.594 56.3037 219.447 55.9913 218.271C55.8089 217.622 55.6691 216.994 55.5536 216.384C55.9974 216.272 58.0281 215.746 58.8124 215.152C59.5968 214.558 60.3446 213.674 60.302 212.727C60.3002 212.505 60.2476 212.286 60.1477 212.083C60.0478 211.881 59.9029 211.7 59.7223 211.553C59.5417 211.406 59.3295 211.295 59.0994 211.228C58.8693 211.161 58.6265 211.14 58.3868 211.165C56.952 211.35 55.7724 213.511 55.5536 214.687C55.5536 214.749 55.4928 215.415 55.4684 215.897C55.4259 215.622 55.3651 215.337 55.3286 215.068C55.1705 214.066 55.0976 213.136 55.0428 212.318C55.0428 211.848 54.9942 211.428 54.982 211.03C55.359 210.711 56.8547 209.412 57.2438 208.572C57.6329 207.732 57.8518 206.606 57.3532 205.772C57.2398 205.576 57.0828 205.405 56.8925 205.268C56.7021 205.132 56.4828 205.035 56.2487 204.982C56.0147 204.929 55.7711 204.922 55.534 204.962C55.2969 205.001 55.0715 205.087 54.8726 205.212C53.6931 205.99 53.7235 208.404 54.1187 209.541C54.1552 209.636 54.8787 211.12 54.8969 211.103C54.8969 211.484 54.8969 211.893 54.8969 212.341C54.9334 213.164 54.9881 214.094 55.1219 215.102C55.2558 216.191 55.4588 217.271 55.7299 218.338C56.0245 219.535 56.4314 220.706 56.9459 221.838C56.947 221.851 56.947 221.865 56.9459 221.878C56.6662 221.581 55.8636 220.758 55.7907 220.713C54.8118 219.934 52.4163 218.949 51.176 219.643C50.9736 219.764 50.8009 219.922 50.6692 220.108C50.5374 220.294 50.4495 220.503 50.4111 220.722C50.3727 220.941 50.3846 221.165 50.4462 221.379C50.5078 221.594 50.6176 221.794 50.7686 221.967C51.3766 222.723 52.5926 222.975 53.5897 222.975C54.6841 222.975 56.8425 222.079 57.0128 222.006C57.5674 223.144 58.2053 224.246 58.9219 225.305C59.3353 225.926 59.7731 226.537 60.2169 227.147C59.9676 226.901 59.7488 226.677 59.7123 226.649C58.7334 225.865 56.3379 224.885 55.0976 225.574C54.8935 225.693 54.7193 225.852 54.5863 226.038C54.4534 226.224 54.3648 226.434 54.3263 226.654C54.2878 226.874 54.3004 227.099 54.3631 227.315C54.4258 227.53 54.5373 227.73 54.6902 227.903C55.2982 228.659 56.5142 228.906 57.5052 228.911C58.4963 228.917 60.3507 228.178 60.8371 227.976L61.36 228.676C62.199 229.796 63.038 230.888 63.8284 231.997C64.1081 232.383 64.3696 232.781 64.6249 233.173C64.406 232.949 64.2176 232.764 64.1872 232.742C63.2083 231.958 60.8128 230.972 59.5724 231.666C59.3685 231.786 59.1944 231.943 59.0615 232.129C58.9286 232.315 58.84 232.524 58.8015 232.744C58.7631 232.964 58.7755 233.188 58.8382 233.403C58.9009 233.618 59.0123 233.818 59.1651 233.99C59.7731 234.746 60.9891 234.998 61.9862 234.998C62.9833 234.998 64.6432 234.338 65.2268 234.102C65.4761 234.511 65.7315 234.92 65.9564 235.329C66.1084 235.609 66.2726 235.889 66.4003 236.163C66.528 236.438 66.6739 236.723 66.8076 237.009C67.0387 237.569 67.288 238.129 67.5008 238.655C67.6588 239.03 67.7926 239.389 67.9324 239.747C67.6649 239.361 67.1116 238.627 67.0569 238.543C66.2866 237.769 65.313 237.191 64.2297 236.863C64.1493 236.772 64.0575 236.689 63.9561 236.617C63.7782 236.48 63.5718 236.378 63.3495 236.317C63.1273 236.255 62.8939 236.237 62.6635 236.261C62.4331 236.286 62.2106 236.353 62.0095 236.46C61.8084 236.566 61.6329 236.709 61.4937 236.88C60.6912 238 61.664 240.24 62.4726 241.17C62.5212 241.22 63.1171 241.769 63.494 242.105L62.728 241.601C62.2051 241.265 61.67 240.946 61.0985 240.593L60.2473 240.111C59.9616 239.943 59.6393 239.803 59.3353 239.641C58.624 239.288 57.8883 238.963 57.1344 238.655C57.4505 238.23 58.5632 236.718 58.7456 235.855C58.928 234.993 58.8976 233.817 58.2105 233.117C58.0548 232.947 57.8619 232.809 57.6444 232.712C57.4269 232.615 57.1898 232.561 56.9483 232.555C56.7069 232.548 56.4665 232.588 56.243 232.672C56.0194 232.756 55.8177 232.883 55.6508 233.044C54.678 234.035 55.2678 236.404 55.9184 237.418C55.9548 237.485 56.5264 238.179 56.8304 238.538C56.3744 238.353 55.9184 238.168 55.4563 237.978C54.1065 237.479 52.7264 237.009 51.3523 236.538L50.0937 236.102C50.2092 235.95 51.5712 234.175 51.7779 233.19C51.9603 232.31 51.9299 231.151 51.2428 230.446C51.0866 230.276 50.8935 230.139 50.6761 230.043C50.4586 229.946 50.2217 229.893 49.9805 229.886C49.7394 229.879 49.4993 229.919 49.2758 230.003C49.0524 230.087 48.8505 230.213 48.6832 230.373C47.7104 231.364 48.3001 233.733 48.9507 234.752C48.9993 234.83 49.8019 235.827 50.0208 236.074C49.0966 235.749 48.1968 235.418 47.2908 235.06C46.0918 234.576 44.9263 234.024 43.8009 233.408C43.8496 233.335 45.2844 231.493 45.4912 230.479C45.6736 229.606 45.6432 228.441 44.9561 227.741C44.8008 227.57 44.6083 227.432 44.391 227.335C44.1738 227.237 43.9367 227.183 43.6953 227.176C43.4538 227.168 43.2134 227.208 42.9896 227.292C42.7658 227.376 42.5637 227.502 42.3964 227.662C41.4236 228.659 42.0195 231.022 42.664 232.042C42.7187 232.126 43.582 233.195 43.7523 233.38L43.5516 233.279C42.4419 232.63 41.398 231.889 40.4326 231.067C39.8915 230.619 39.399 230.166 38.9369 229.712C39.2409 229.393 40.615 227.926 40.9129 227.035C41.2108 226.145 41.3081 225.019 40.7062 224.235C40.5722 224.051 40.3974 223.894 40.1933 223.776C39.9892 223.658 39.7604 223.581 39.5217 223.55C39.283 223.518 39.0399 223.534 38.8082 223.595C38.5765 223.656 38.3614 223.762 38.1769 223.905C37.0886 224.79 37.3987 227.186 37.9155 228.284C37.9155 228.34 38.3046 228.917 38.5782 229.337C38.3715 229.124 38.1526 228.917 37.9702 228.715C37.2406 227.959 36.6265 227.22 36.0854 226.565C35.7814 226.195 35.5139 225.848 35.2707 225.523C35.3923 225.07 35.8787 223.222 35.678 222.32C35.4774 221.418 35.0214 220.371 34.1033 219.946C33.8913 219.835 33.6561 219.768 33.4135 219.747C33.1709 219.727 32.9264 219.755 32.6963 219.828C32.4661 219.902 32.2557 220.02 32.079 220.174C31.9022 220.329 31.7633 220.516 31.6713 220.724C31.1484 221.973 32.6259 223.966 33.6352 224.717C33.7203 224.784 35.216 225.652 35.222 225.63V225.602C35.4531 225.915 35.7024 226.257 35.982 226.621C36.511 227.287 37.1129 228.032 37.806 228.81C38.5652 229.652 39.3773 230.453 40.238 231.207C41.1962 232.062 42.2361 232.837 43.3449 233.52H43.3875C42.9801 233.414 41.8188 233.15 41.7276 233.139C40.4448 232.982 37.8608 233.38 37.2345 234.59C37.138 234.794 37.0891 235.014 37.0908 235.237C37.0926 235.459 37.145 235.679 37.2447 235.881C37.3444 236.084 37.4892 236.265 37.6697 236.413C37.8501 236.561 38.0623 236.672 38.2924 236.74C39.2592 237.082 40.4387 236.662 41.2473 236.174Z" fill="#2E353A"/>
<path d="M55.3225 216.222C55.3529 216.222 54.5443 214.771 54.4835 214.682C53.76 213.69 51.7353 212.162 50.3369 212.526C50.1064 212.592 49.8937 212.702 49.7128 212.849C49.5318 212.997 49.3866 213.177 49.2867 213.38C49.1868 213.582 49.1345 213.802 49.1332 214.024C49.1319 214.247 49.1816 214.467 49.279 214.67C49.656 215.55 50.7747 216.093 51.711 216.35C52.8054 216.608 55.3225 216.222 55.3225 216.222Z" fill="#2E353A"/>
<path d="M139.92 76.5856L134.478 80.9928" stroke="#2E353A" stroke-linecap="round" stroke-linejoin="round"/>
<path d="M188.347 37.3744L156.688 63.0056" stroke="#2E353A" stroke-linecap="round" stroke-linejoin="round"/>
<path d="M183.611 36.2823L152.828 46.6423" stroke="#2E353A" stroke-linecap="round" stroke-linejoin="round"/>
<path d="M155.418 32.0432L135.658 33.5552" stroke="#2E353A" stroke-linecap="round" stroke-linejoin="round"/>
<path d="M178.278 30.2848L157.625 31.8696" stroke="#2E353A" stroke-linecap="round" stroke-linejoin="round"/>
<path d="M169.523 18.9839L148.936 12.6335" stroke="#2E353A" stroke-linecap="round" stroke-linejoin="round"/>
<path d="M176.503 21.0168L172.387 19.8184" stroke="#2E353A" stroke-linecap="round" stroke-linejoin="round"/>
<path d="M259.264 76.5856L264.706 80.9928" stroke="#2E353A" stroke-linecap="round" stroke-linejoin="round"/>
<path d="M210.837 37.3744L255.914 73.8752" stroke="#2E353A" stroke-linecap="round" stroke-linejoin="round"/>
<path d="M215.573 36.2823L246.356 46.6423" stroke="#2E353A" stroke-linecap="round" stroke-linejoin="round"/>
<path d="M243.76 32.0432L263.52 33.5552" stroke="#2E353A" stroke-linecap="round" stroke-linejoin="round"/>
<path d="M220.899 30.2848L241.559 31.8696" stroke="#2E353A" stroke-linecap="round" stroke-linejoin="round"/>
<path d="M229.66 18.984L245.389 14.392" stroke="#2E353A" stroke-linecap="round" stroke-linejoin="round"/>
<path d="M222.675 21.0168L226.797 19.8184" stroke="#2E353A" stroke-linecap="round" stroke-linejoin="round"/>
<path d="M200.185 32.6536H196.926V45.4328H200.185V32.6536Z" fill="#FFCF23" stroke="#2E353A" stroke-linecap="round" stroke-linejoin="round"/>
<path d="M203.371 48.1712H193.74L194.877 43.2152H202.234L203.371 48.1712Z" fill="#FFCF23" stroke="#2E353A" stroke-linecap="round" stroke-linejoin="round"/>
<path d="M209.171 50.2544H187.939L190.201 45.6904H206.909L209.171 50.2544Z" fill="#FFCF23" stroke="#2E353A" stroke-linecap="round" stroke-linejoin="round"/>
<path d="M187.794 19.124C186.275 19.0973 184.782 19.4876 183.505 20.2453C182.228 21.003 181.225 22.0937 180.624 23.3784C180.023 24.6631 179.85 26.0836 180.129 27.4589C180.407 28.8342 181.124 30.102 182.187 31.1007C183.251 32.0994 184.613 32.7838 186.101 33.0667C187.589 33.3496 189.134 33.2182 190.54 32.6892C191.946 32.1602 193.149 31.2575 193.996 30.0963C194.844 28.935 195.296 27.5678 195.296 26.1688C195.306 25.2524 195.119 24.3433 194.748 23.4934C194.376 22.6434 193.826 21.8693 193.129 21.2151C192.432 20.5609 191.603 20.0395 190.687 19.6807C189.772 19.3219 188.788 19.1327 187.794 19.124ZM187.794 31.444C186.661 31.4629 185.548 31.1708 184.597 30.605C183.645 30.0392 182.898 29.2252 182.451 28.2669C182.004 27.3085 181.876 26.2492 182.085 25.2239C182.294 24.1986 182.829 23.2538 183.623 22.5099C184.417 21.7659 185.433 21.2565 186.543 21.0466C187.652 20.8368 188.804 20.9359 189.852 21.3314C190.9 21.7268 191.797 22.4008 192.427 23.2673C193.058 24.1338 193.394 25.1536 193.393 26.1968C193.398 27.5717 192.812 28.8925 191.763 29.8705C190.713 30.8485 189.286 31.4041 187.794 31.416V31.444Z" fill="#FFCF23" stroke="#2E353A" stroke-linecap="round" stroke-linejoin="round"/>
<path d="M210.454 19.124C208.935 19.0973 207.442 19.4876 206.165 20.2453C204.889 21.003 203.885 22.0937 203.284 23.3784C202.683 24.6631 202.51 26.0836 202.789 27.4589C203.067 28.8342 203.784 30.102 204.848 31.1007C205.911 32.0994 207.274 32.7838 208.761 33.0667C210.249 33.3496 211.794 33.2182 213.2 32.6892C214.606 32.1602 215.81 31.2575 216.657 30.0963C217.504 28.935 217.956 27.5678 217.956 26.1688C217.966 25.2524 217.78 24.3433 217.408 23.4934C217.036 22.6434 216.486 21.8693 215.789 21.2151C215.093 20.5609 214.263 20.0395 213.347 19.6807C212.432 19.3219 211.449 19.1327 210.454 19.124ZM210.454 31.444C209.321 31.464 208.208 31.1729 207.255 30.6077C206.303 30.0426 205.555 29.2291 205.107 28.2709C204.659 27.3126 204.53 26.2532 204.738 25.2275C204.946 24.2019 205.481 23.2565 206.275 22.512C207.069 21.7675 208.085 21.2575 209.195 21.0472C210.304 20.8368 211.457 20.9356 212.505 21.3309C213.553 21.7262 214.45 22.4001 215.081 23.2667C215.712 24.1333 216.048 25.1534 216.047 26.1968C216.052 27.5707 215.467 28.8907 214.419 29.8685C213.371 30.8464 211.945 31.4027 210.454 31.416V31.444Z" fill="#FFCF23" stroke="#2E353A" stroke-linecap="round" stroke-linejoin="round"/>
<path d="M198.555 36.1704C197.31 36.1711 196.077 35.9459 194.926 35.5074C193.775 35.069 192.73 34.4261 191.849 33.6153C190.968 32.8045 190.269 31.8419 189.793 30.7823C189.316 29.7227 189.07 28.587 189.07 27.44V18.4408H208.022V27.44C208.022 29.7535 207.025 31.9724 205.25 33.6094C203.475 35.2463 201.067 36.1674 198.555 36.1704Z" fill="#FFCF23" stroke="#2E353A" stroke-linecap="round" stroke-linejoin="round"/>
<path d="M198.294 21.3136L199.516 24.7744H203.468L200.27 26.9136L201.492 30.3744L198.294 28.2352L195.096 30.3744L196.318 26.9136L193.12 24.7744H197.072L198.294 21.3136Z" fill="#2E353A"/>
<path d="M229.885 50.2992H167.626V102.581H229.885V50.2992Z" fill="#2E353A" stroke="#2E353A" stroke-linejoin="round"/>
<path d="M209.007 50.2992H167.626V102.581H209.007V50.2992Z" fill="white" stroke="#2E353A" stroke-linejoin="round"/>
<path d="M181.957 76.272H119.698V128.554H181.957V76.272Z" fill="#2E353A" stroke="#2E353A" stroke-linejoin="round"/>
<path d="M161.078 76.272H119.698V128.554H161.078V76.272Z" fill="white" stroke="#2E353A" stroke-linejoin="round"/>
<path d="M147.83 91.084V86.9064H144.99C144.774 86.177 144.45 85.4781 144.03 84.8288L145.787 83.2048L142.577 80.248L140.825 81.8608C140.04 81.4224 139.187 81.0958 138.296 80.892V78.96H133.754V80.892C132.774 81.1237 131.842 81.5021 130.994 82.012L129.742 80.8584L126.55 83.7984L127.905 85.0472C127.399 85.8844 127.051 86.7955 126.878 87.7408H125.151V91.924H127.218C127.533 92.7884 127.995 93.6012 128.586 94.332L127.188 95.62L130.38 98.56L132.113 96.964C132.923 97.3112 133.783 97.5489 134.666 97.6696V99.848H139.202V97.244C139.956 96.9922 140.671 96.6515 141.33 96.2304L143.221 97.972L146.431 95.0152L144.321 93.072C144.673 92.4368 144.937 91.7632 145.106 91.0672L147.83 91.084ZM136.028 94.444C134.905 94.4451 133.806 94.1393 132.872 93.5652C131.937 92.9912 131.208 92.1747 130.778 91.219C130.347 90.2634 130.234 89.2116 130.452 88.1966C130.67 87.1816 131.211 86.2491 132.005 85.5171C132.799 84.7851 133.81 84.2863 134.912 84.0841C136.014 83.8818 137.156 83.9851 138.194 84.3808C139.232 84.7765 140.119 85.4469 140.744 86.3071C141.368 87.1674 141.701 88.1788 141.701 89.2136C141.698 90.5978 141.099 91.9245 140.036 92.9028C138.972 93.8811 137.531 94.4313 136.028 94.4328V94.444Z" fill="#FFCF23"/>
<path d="M151.982 107.66V104.586H149.897C149.733 104.05 149.494 103.536 149.186 103.057L150.481 101.864L148.122 99.68L146.833 100.867C146.255 100.545 145.628 100.305 144.972 100.156V98.7336H141.634V100.156C140.913 100.322 140.227 100.596 139.603 100.968L138.71 100.128L136.351 102.301L137.348 103.219C136.976 103.836 136.719 104.506 136.588 105.202H135.323V108.276H136.843C137.073 108.911 137.412 109.509 137.846 110.046L136.819 110.992L139.178 113.165L140.455 111.994C141.049 112.246 141.68 112.42 142.327 112.51V114.111H145.665V112.202C146.217 112.01 146.74 111.754 147.222 111.44L148.614 112.722L150.973 110.55L149.423 109.122C149.68 108.655 149.872 108.16 149.994 107.649L151.982 107.66ZM143.306 110.118C142.481 110.118 141.675 109.893 140.989 109.471C140.303 109.049 139.768 108.449 139.453 107.747C139.137 107.045 139.055 106.273 139.215 105.527C139.376 104.782 139.774 104.098 140.357 103.56C140.94 103.023 141.683 102.657 142.492 102.509C143.302 102.361 144.14 102.437 144.902 102.728C145.664 103.018 146.316 103.511 146.774 104.143C147.232 104.774 147.477 105.517 147.477 106.277C147.477 106.781 147.369 107.281 147.16 107.747C146.95 108.213 146.643 108.637 146.255 108.993C145.868 109.35 145.408 109.633 144.902 109.826C144.396 110.019 143.854 110.118 143.306 110.118Z" fill="#FFCF23"/>
<path d="M216.382 110.006H154.123V162.288H216.382V110.006Z" fill="#2E353A" stroke="#2E353A" stroke-linejoin="round"/>
<path d="M195.503 110.006H154.123V162.288H195.503V110.006Z" fill="white" stroke="#2E353A" stroke-linejoin="round"/>
<path d="M185.362 119.112L181.768 116.67C181.089 116.208 180.274 115.947 179.43 115.922C178.586 115.897 177.754 116.109 177.044 116.53L169.918 120.45C169.542 120.663 169.266 120.997 169.145 121.388C169.023 121.778 169.065 122.197 169.262 122.56C169.459 122.924 169.797 123.206 170.209 123.351C170.621 123.497 171.077 123.495 171.487 123.346L178.145 121.24L186.134 128.856L191.101 127.26V117.947L185.362 119.112Z" fill="#FFCF23"/>
<path d="M177.263 122.27L170.63 124.376C169.414 124.858 168.094 122.998 168.094 121.789C168.094 120.226 169.712 119.795 170.982 118.759L172.198 117.774C171.543 117.224 170.724 116.869 169.847 116.753C168.97 116.637 168.076 116.766 167.28 117.124C165.37 117.986 163.173 118.138 161.145 117.55L159.382 117.04V127.389L161.631 127.646L161.844 127.478C162.579 126.898 163.53 126.602 164.497 126.653C165.464 126.704 166.372 127.098 167.03 127.753L175.007 135.654C175.188 135.832 175.436 135.941 175.7 135.957C175.964 135.974 176.225 135.898 176.43 135.744C176.538 135.662 176.627 135.561 176.692 135.446C176.757 135.332 176.796 135.207 176.807 135.078C176.817 134.949 176.8 134.82 176.755 134.698C176.71 134.575 176.639 134.463 176.546 134.366L174.551 132.306L177.318 133.986C177.585 134.134 177.9 134.189 178.208 134.141C178.515 134.093 178.794 133.945 178.992 133.724C179.191 133.503 179.297 133.223 179.291 132.936C179.285 132.649 179.167 132.374 178.959 132.16L177.354 130.626L179.786 132.042C180.079 132.205 180.425 132.267 180.763 132.215C181.1 132.164 181.407 132.003 181.627 131.761C181.847 131.52 181.966 131.215 181.963 130.9C181.96 130.584 181.835 130.281 181.61 130.043L180.169 128.559L182.808 130.032C183.007 130.143 183.238 130.194 183.47 130.179C183.702 130.164 183.923 130.084 184.103 129.948C184.227 129.855 184.327 129.739 184.398 129.608C184.47 129.477 184.51 129.333 184.516 129.186C184.522 129.04 184.495 128.893 184.435 128.757C184.375 128.621 184.285 128.498 184.17 128.397L177.263 122.27Z" fill="#FFCF23"/>
<path d="M164.854 131.393L165.875 130.206C166.081 129.95 166.17 129.631 166.125 129.315C166.08 129 165.903 128.713 165.632 128.515C165.362 128.317 165.018 128.224 164.674 128.255C164.33 128.287 164.013 128.44 163.79 128.682L162.768 129.87C162.563 130.125 162.473 130.445 162.518 130.76C162.564 131.076 162.74 131.363 163.011 131.56C163.282 131.758 163.625 131.851 163.969 131.82C164.313 131.789 164.63 131.635 164.854 131.393Z" fill="#FFCF23"/>
<path d="M166.824 133.123L167.845 131.936C168.038 131.68 168.117 131.365 168.067 131.057C168.018 130.748 167.842 130.469 167.576 130.275C167.31 130.082 166.974 129.989 166.637 130.016C166.3 130.042 165.986 130.186 165.76 130.418L164.738 131.6C164.545 131.856 164.466 132.171 164.516 132.479C164.566 132.788 164.741 133.067 165.007 133.261C165.273 133.454 165.609 133.547 165.946 133.52C166.284 133.494 166.597 133.35 166.824 133.118V133.123Z" fill="#FFCF23"/>
<path d="M168.775 134.854L169.791 133.672C169.996 133.416 170.086 133.097 170.041 132.781C169.995 132.466 169.819 132.179 169.548 131.981C169.277 131.784 168.934 131.691 168.59 131.722C168.246 131.753 167.929 131.906 167.705 132.149L166.678 133.336C166.459 133.59 166.359 133.914 166.399 134.236C166.439 134.558 166.616 134.853 166.891 135.055C167.028 135.157 167.186 135.233 167.356 135.278C167.526 135.323 167.703 135.337 167.879 135.318C168.054 135.299 168.224 135.248 168.378 135.169C168.532 135.089 168.667 134.982 168.775 134.854Z" fill="#FFCF23"/>
<path d="M171.542 133.683C171.405 133.583 171.248 133.509 171.08 133.465C170.912 133.421 170.736 133.408 170.563 133.427C170.389 133.445 170.222 133.495 170.069 133.574C169.917 133.653 169.783 133.758 169.675 133.885L168.654 135.066C168.538 135.192 168.451 135.337 168.398 135.494C168.345 135.651 168.326 135.817 168.344 135.98C168.361 136.144 168.414 136.303 168.5 136.447C168.586 136.592 168.702 136.719 168.842 136.821C168.982 136.923 169.142 136.998 169.314 137.042C169.487 137.086 169.667 137.097 169.844 137.076C170.021 137.054 170.191 137 170.345 136.916C170.499 136.833 170.633 136.722 170.739 136.59L171.76 135.402C171.869 135.276 171.95 135.132 171.997 134.977C172.045 134.823 172.059 134.661 172.039 134.501C172.019 134.341 171.964 134.187 171.879 134.046C171.794 133.906 171.679 133.783 171.542 133.683Z" fill="#FFCF23"/>
<path d="M162.179 143.399H99.9193V195.681H162.179V143.399Z" fill="#2E353A" stroke="#2E353A" stroke-linejoin="round"/>
<path d="M141.3 143.399H99.9193V195.681H141.3V143.399Z" fill="white" stroke="#2E353A" stroke-linejoin="round"/>
<path d="M110.754 169.59H106.176V176.585H110.754V169.59Z" fill="#FFCF23"/>
<path d="M116.311 166.6H111.733V176.59H116.311V166.6Z" fill="#FFCF23"/>
<path d="M121.874 164.556H117.296V176.585H121.874V164.556Z" fill="#FFCF23"/>
<path d="M127.431 161.834H122.853V176.59H127.431V161.834Z" fill="#FFCF23"/>
<path d="M124.726 157.444L121.035 158.508L122.014 159.337L119.394 161.969L113.241 163.044L106.771 167.619C106.643 167.709 106.559 167.842 106.538 167.989C106.516 168.136 106.559 168.285 106.656 168.403C106.754 168.52 106.899 168.597 107.059 168.616C107.218 168.634 107.38 168.594 107.507 168.504L113.782 164.08L120.044 162.96L122.938 160.059L123.917 160.888L124.726 157.444Z" fill="#FFCF23"/>
<path d="M199.905 183.086H137.646V235.368H199.905V183.086Z" fill="#2E353A" stroke="#2E353A" stroke-linejoin="round"/>
<path d="M179.026 183.086H137.646V235.368H179.026V183.086Z" fill="white" stroke="#2E353A" stroke-linejoin="round"/>
<path d="M165.012 201.538L161.206 199.226V198.565C162.012 197.578 162.461 196.383 162.489 195.149C162.489 192.119 161.145 191.789 159.479 191.789C157.813 191.789 156.469 192.45 156.469 195.149C156.501 196.41 156.97 197.628 157.807 198.626V199.013L153.636 201.538C153.287 201.75 153 202.039 152.801 202.378C152.603 202.717 152.499 203.096 152.499 203.482V204.31L159.126 206.987L166.167 204.31V203.482C166.165 203.095 166.059 202.714 165.857 202.375C165.655 202.036 165.365 201.748 165.012 201.538Z" fill="#FFCF23"/>
<path d="M169.189 198.128C169.193 196.388 168.654 194.684 167.637 193.219C166.62 191.753 165.167 190.588 163.451 189.861C161.735 189.134 159.829 188.877 157.958 189.119C156.088 189.362 154.333 190.094 152.902 191.229C151.471 192.365 150.424 193.854 149.886 195.522C149.348 197.189 149.341 198.964 149.867 200.635C150.393 202.306 151.429 203.802 152.851 204.946C154.274 206.09 156.024 206.834 157.892 207.088V214.25C157.611 214.43 157.382 214.669 157.223 214.948C157.064 215.227 156.981 215.537 156.98 215.852V228.004C156.98 228.524 157.204 229.022 157.603 229.39C158.002 229.758 158.544 229.964 159.108 229.964C159.672 229.964 160.214 229.758 160.613 229.39C161.012 229.022 161.236 228.524 161.236 228.004V215.852C161.237 215.537 161.154 215.226 160.995 214.947C160.837 214.668 160.606 214.429 160.324 214.25V207.161C162.753 206.932 165.004 205.882 166.641 204.214C168.279 202.545 169.186 200.377 169.189 198.128ZM151.301 198.128C151.3 196.665 151.77 195.234 152.652 194.017C153.534 192.799 154.788 191.85 156.255 191.29C157.723 190.729 159.338 190.582 160.896 190.866C162.455 191.151 163.886 191.855 165.01 192.89C166.134 193.924 166.9 195.242 167.21 196.677C167.52 198.112 167.362 199.6 166.754 200.952C166.146 202.304 165.117 203.46 163.796 204.273C162.475 205.086 160.922 205.52 159.333 205.52C157.205 205.517 155.165 204.738 153.66 203.352C152.154 201.967 151.306 200.088 151.301 198.128Z" fill="#FFCF23"/>
<path d="M125.376 220.808H63.1171V273.09H125.376V220.808Z" fill="#2E353A" stroke="#2E353A" stroke-linejoin="round"/>
<path d="M104.498 220.808H63.1171V273.09H104.498V220.808Z" fill="white" stroke="#2E353A" stroke-linejoin="round"/>
<path d="M98.2838 252.913C98.2833 252.526 98.1786 252.146 97.9791 251.806C97.7796 251.466 97.4915 251.176 97.1407 250.964L93.3164 248.64V247.979C94.1243 246.993 94.5752 245.798 94.6054 244.563C94.6054 241.539 93.2556 241.203 91.5654 241.203C89.8751 241.203 88.5558 241.864 88.5558 244.563C88.5829 245.825 89.0521 247.045 89.8934 248.041V248.433L85.7225 250.953C85.3717 251.165 85.0836 251.454 84.8841 251.794C84.6846 252.135 84.5799 252.515 84.5794 252.902V255.018C84.2229 254.955 83.8602 254.927 83.4972 254.934C83.1847 254.93 82.8726 254.958 82.567 255.018V252.902C82.5665 252.515 82.4618 252.135 82.2623 251.794C82.0628 251.454 81.7747 251.165 81.4239 250.953L77.63 248.64V247.979C78.4379 246.993 78.8888 245.798 78.919 244.563C78.919 242.239 78.1225 241.5 76.9916 241.282L78.9433 239.232H82.2569L83.1446 250.942H83.5398L84.8166 239.226H89.3158L91.0242 241.041L90.9087 239.226H93.1097V223.927H74.4988V239.243H77.2105L76.9612 241.287C76.6139 241.232 76.2618 241.206 75.9094 241.209C74.2434 241.209 72.8998 241.87 72.8998 244.569C72.9259 245.845 73.4042 247.078 74.2617 248.08V248.472L70.0908 250.992C69.74 251.204 69.452 251.494 69.2524 251.834C69.0529 252.174 68.9483 252.554 68.9478 252.941V256.48H80.8463C80.6249 257.072 80.5219 257.696 80.5423 258.322C80.5716 259.584 81.0405 260.803 81.8799 261.8V262.186L77.709 264.712C77.358 264.923 77.0695 265.211 76.8699 265.55C76.6703 265.889 76.5659 266.269 76.566 266.655V270.211H90.2399V266.655C90.24 266.269 90.1356 265.889 89.936 265.55C89.7364 265.211 89.4479 264.923 89.0969 264.712L85.2726 262.399V261.738C86.0804 260.752 86.5313 259.557 86.5615 258.322C86.58 257.7 86.4959 257.079 86.3122 256.48H98.3081L98.2838 252.913ZM74.9001 238.874V224.314H92.7206V238.874H90.4892L90.5561 239.994L89.4982 238.874H84.4518L83.3817 248.769L82.6338 238.874H78.7609L77.4962 240.24L77.6543 238.902L74.9001 238.874Z" fill="#FFCF23"/>
<path d="M81.7036 236.113H85.7894V235.542H81.7097L81.7036 236.113Z" fill="#FFCF23"/>
<path d="M81.9833 237.115H85.5097C85.6887 236.944 85.7889 236.715 85.7894 236.477H81.7036C81.7041 236.715 81.8043 236.944 81.9833 237.115Z" fill="#FFCF23"/>
<path d="M83.2236 238.336H84.2572C84.3903 238.337 84.5221 238.313 84.6453 238.267C84.7685 238.22 84.8804 238.152 84.9748 238.066C85.0692 237.979 85.1441 237.877 85.1952 237.763C85.2463 237.65 85.2726 237.529 85.2726 237.406H82.2326C82.2309 237.65 82.3343 237.885 82.5199 238.059C82.7056 238.234 82.9586 238.333 83.2236 238.336Z" fill="#FFCF23"/>
<path d="M81.1077 232.686C81.7098 233.355 82.0389 234.197 82.038 235.066V235.239H85.4671V235.066C85.4664 234.196 85.7978 233.353 86.4034 232.686C86.9255 232.115 87.2119 231.393 87.2121 230.647C87.2124 230.212 87.1154 229.781 86.9271 229.381C86.7389 228.982 86.4634 228.622 86.1178 228.325C85.7722 228.028 85.3639 227.799 84.9183 227.653C84.4727 227.507 83.9993 227.448 83.5276 227.478C82.8918 227.516 82.2798 227.715 81.7593 228.053C81.2388 228.392 80.8301 228.856 80.5784 229.395C80.3266 229.934 80.2417 230.527 80.333 231.108C80.4243 231.688 80.6882 232.234 81.0956 232.686H81.1077Z" fill="#FFCF23"/>
<path d="M87.7472 230.67C87.7472 230.75 87.7818 230.827 87.8434 230.883C87.9049 230.94 87.9884 230.972 88.0755 230.972H89.8083C89.8954 230.972 89.9789 230.94 90.0405 230.883C90.102 230.827 90.1366 230.75 90.1366 230.67C90.1366 230.589 90.102 230.512 90.0405 230.456C89.9789 230.399 89.8954 230.367 89.8083 230.367H88.0755C87.9884 230.367 87.9049 230.399 87.8434 230.456C87.7818 230.512 87.7472 230.589 87.7472 230.67Z" fill="#FFCF23"/>
<path d="M79.6364 230.67C79.6364 230.589 79.6018 230.512 79.5403 230.456C79.4787 230.399 79.3952 230.367 79.3081 230.367H77.5571C77.47 230.367 77.3865 230.399 77.3249 230.456C77.2634 230.512 77.2288 230.589 77.2288 230.67C77.2288 230.75 77.2634 230.827 77.3249 230.883C77.3865 230.94 77.47 230.972 77.5571 230.972H79.3081C79.3952 230.972 79.4787 230.94 79.5403 230.883C79.6018 230.827 79.6364 230.75 79.6364 230.67Z" fill="#FFCF23"/>
<path d="M83.6918 226.929C83.7788 226.929 83.8623 226.897 83.9239 226.84C83.9855 226.784 84.0201 226.707 84.0201 226.626V225.025C84.0209 224.985 84.0131 224.946 83.9973 224.91C83.9815 224.873 83.9579 224.839 83.9279 224.811C83.8979 224.783 83.8621 224.761 83.8226 224.746C83.7831 224.73 83.7407 224.722 83.6978 224.722C83.6118 224.724 83.5299 224.756 83.4696 224.813C83.4093 224.869 83.3756 224.946 83.3756 225.025V226.621C83.3755 226.7 83.4082 226.776 83.467 226.833C83.5258 226.89 83.6063 226.925 83.6918 226.929Z" fill="#FFCF23"/>
<path d="M86.823 228.082C86.9097 228.081 86.9926 228.049 87.0541 227.993L88.2701 226.873C88.3009 226.845 88.3255 226.812 88.3423 226.775C88.359 226.739 88.3677 226.7 88.3677 226.66C88.3677 226.62 88.359 226.581 88.3423 226.544C88.3255 226.508 88.3009 226.475 88.2701 226.447C88.2076 226.391 88.1235 226.359 88.036 226.359C87.9485 226.359 87.8644 226.391 87.8019 226.447L86.5859 227.567C86.525 227.624 86.4908 227.7 86.4908 227.78C86.4908 227.86 86.525 227.936 86.5859 227.993C86.6503 228.049 86.7347 228.08 86.823 228.082Z" fill="#FFCF23"/>
<path d="M80.3417 233.33L79.1257 234.45C79.0648 234.506 79.0306 234.583 79.0306 234.662C79.0306 234.742 79.0648 234.819 79.1257 234.875C79.1557 234.904 79.1916 234.926 79.2313 234.942C79.271 234.957 79.3136 234.965 79.3567 234.965C79.3998 234.965 79.4424 234.957 79.4821 234.942C79.5218 234.926 79.5577 234.904 79.5878 234.875L80.8038 233.755C80.8555 233.697 80.8819 233.624 80.8779 233.549C80.8739 233.474 80.8398 233.403 80.7821 233.35C80.7245 233.296 80.6475 233.265 80.5661 233.261C80.4847 233.258 80.4047 233.282 80.3417 233.33Z" fill="#FFCF23"/>
<path d="M80.2808 227.959C80.3118 227.988 80.3488 228.011 80.3895 228.026C80.4303 228.042 80.4739 228.049 80.518 228.049C80.5826 228.048 80.6456 228.031 80.6992 227.997C80.7528 227.964 80.7945 227.917 80.8192 227.862C80.8439 227.807 80.8504 227.746 80.8379 227.688C80.8254 227.63 80.7945 227.576 80.749 227.534L79.5877 226.464C79.5586 226.431 79.5225 226.405 79.4815 226.386C79.4406 226.367 79.3958 226.356 79.35 226.354C79.3043 226.352 79.2585 226.359 79.2158 226.374C79.173 226.389 79.1342 226.412 79.1018 226.442C79.0694 226.472 79.0441 226.508 79.0276 226.547C79.0111 226.586 79.0038 226.629 79.006 226.671C79.0083 226.713 79.0201 226.754 79.0407 226.792C79.0613 226.83 79.0902 226.863 79.1256 226.89L80.2808 227.959Z" fill="#FFCF23"/>
<path d="M87.0845 233.38C87.0219 233.324 86.9379 233.292 86.8504 233.292C86.7628 233.292 86.6788 233.324 86.6163 233.38C86.5554 233.437 86.5212 233.513 86.5212 233.593C86.5212 233.673 86.5554 233.749 86.6163 233.806L87.7715 234.87C87.8015 234.898 87.8374 234.921 87.8771 234.936C87.9168 234.952 87.9595 234.96 88.0025 234.96C88.0456 234.96 88.0883 234.952 88.1279 234.936C88.1676 234.921 88.2035 234.898 88.2336 234.87C88.2945 234.813 88.3286 234.737 88.3286 234.657C88.3286 234.577 88.2945 234.501 88.2336 234.444L87.0845 233.38Z" fill="#FFCF23"/>
<path d="M108.456 103.006C108.456 103.006 110.444 105.106 110.146 105.84C109.942 106.557 109.842 107.295 109.848 108.035C109.848 108.035 112.426 109.318 112.426 109.956C112.331 110.562 112.126 111.149 111.818 111.692C111.818 111.692 112.426 115.349 112.018 116.262C111.611 117.174 107.349 117.818 107.349 117.818L105.762 122.298L96.6422 119.739L98.1318 115.259C98.1318 115.259 95.8518 109.956 95.4505 108.22C95.0492 106.484 97.9311 103.096 101.53 102.273C103.865 101.832 106.291 102.089 108.456 103.006Z" fill="white" stroke="#2E353A" stroke-linejoin="round"/>
<path d="M105.379 111.328C105.379 111.328 106.966 111.418 106.771 110.684C106.577 109.95 105.975 109.564 106.273 109.222C106.571 108.881 108.456 107.761 107.86 107.027C107.264 106.294 105.476 105.75 106.273 104.927C107.069 104.104 111.635 102.273 111.635 102.273C111.635 102.273 106.966 100.262 106.273 100.262C105.58 100.262 109.051 99.26 107.86 98.4368C106.668 97.6136 99.0254 97.6136 95.949 101.36C92.8725 105.106 93.2677 107.302 94.4594 110.41C95.651 113.518 97.931 117.18 99.1227 117.454C100.314 117.729 104.285 117.908 104.485 116.631C104.686 115.354 105.379 111.328 105.379 111.328Z" fill="#2E353A" stroke="#2E353A" stroke-linejoin="round"/>
<path d="M106.668 112.151C106.668 112.151 103.859 108.954 103.689 110.174C103.519 111.395 104.516 115.774 106.334 114.738" fill="white"/>
<path d="M106.668 112.151C106.668 112.151 103.859 108.954 103.689 110.174C103.519 111.395 104.516 115.774 106.334 114.738" stroke="#2E353A" stroke-linejoin="round"/>
<path d="M91.085 121.475C91.085 121.475 93.2677 122.114 98.5269 123.122C103.786 124.13 108.255 125.132 108.255 125.132C108.255 125.132 106.869 121.29 105.379 120.562C103.889 119.834 95.949 118.367 94.9579 118.457C93.9669 118.546 91.085 121.475 91.085 121.475Z" fill="white" stroke="#2E353A" stroke-linejoin="round"/>
<path d="M124.726 146.983C124.726 146.983 133.761 139.49 134.253 139.031C134.745 138.572 133.645 135.01 133.645 134.462C133.645 133.913 135.73 132.994 135.73 132.994C135.73 132.994 136.028 131.533 137.019 131.533C138.01 131.533 139.701 132.72 139.701 132.72L139.901 133.728C139.901 133.728 141.288 136.562 141.288 137.021C141.149 137.993 140.661 138.894 139.901 139.58C138.91 140.493 136.624 142.414 136.624 142.414C136.624 142.414 128.684 152.286 126.896 153.658C125.109 155.03 122.725 156.492 121.832 154.851C120.938 153.21 124.726 146.983 124.726 146.983Z" fill="white" stroke="#2E353A" stroke-linejoin="round"/>
<path d="M135.755 132.994L136.053 133.728L135.256 134.277" stroke="#2E353A" stroke-linejoin="round"/>
<path d="M67.6588 136.287C67.6588 136.287 64.181 139.58 64.3817 140.952C64.5823 142.324 72.6201 157.59 72.6201 157.59C72.6201 157.59 73.2281 159.88 73.6111 160.059C73.9941 160.238 74.9001 161.616 74.9001 161.616C74.9001 161.616 74.9001 162.803 76.3897 161.521C77.8793 160.238 79.9647 158.782 79.8674 157.601C79.7509 156.812 79.368 156.078 78.773 155.501C78.773 155.501 78.2805 154.381 77.782 154.314C77.2834 154.246 75.0034 154.218 75.0034 154.218L72.4377 141.775L67.6588 136.287Z" fill="white" stroke="#2E353A" stroke-linejoin="round"/>
<path d="M75.7938 156.402L77.0889 157.041C77.0889 157.041 75.4959 159.236 76.0917 159.695C76.6876 160.154 78.4751 156.862 78.6758 156.402C78.8764 155.943 78.3778 155.49 78.3778 155.49" fill="white"/>
<path d="M75.7938 156.402L77.0889 157.041C77.0889 157.041 75.4959 159.236 76.0917 159.695C76.6876 160.154 78.4751 156.862 78.6758 156.402C78.8764 155.943 78.3778 155.49 78.3778 155.49" stroke="#2E353A" stroke-linejoin="round"/>
<path d="M76.5903 157.226L74.0063 159.331" stroke="#2E353A" stroke-linejoin="round"/>
<path d="M80.828 203.342L74.3893 208.482C74.6356 209.083 75.0883 209.592 75.6782 209.933C76.5355 210.33 80.2565 213.629 81.3995 214.284C83.4601 215.49 85.8305 216.172 88.2699 216.261C91.3099 216.261 91.851 215.208 91.851 214.81C91.851 214.413 85.9838 210.857 85.9838 210.857L84.6949 206.114L80.828 203.342Z" fill="white" stroke="#2E353A" stroke-linejoin="round"/>
<path d="M75.6843 207.452L74.3893 208.482C74.6356 209.082 75.0883 209.592 75.6782 209.933C76.5355 210.33 80.2565 213.629 81.3995 214.284C83.4601 215.49 85.8305 216.172 88.2699 216.261C90.0331 216.261 90.9512 215.902 91.4194 215.522C90.1214 215.236 88.8026 215.037 87.4734 214.928C85.5035 214.928 83.333 213.298 83.333 213.298L75.6843 207.452Z" fill="white" stroke="#2E353A" stroke-linejoin="round"/>
<path d="M78.773 152.012C78.773 152.012 77.3746 158.732 78.6332 160.854C79.6434 162.464 80.7644 164.013 81.9893 165.491L99.8281 186.558L80.5241 203.762L84.9807 207.956C84.9807 207.956 109.301 189.476 110.742 188.686C112.183 187.897 110.742 181.339 110.322 180.762C109.903 180.186 101.518 163.29 101.518 163.29L102.303 155.764L78.773 152.012Z" fill="#2E353A" stroke="#2E353A" stroke-linejoin="round"/>
<path d="M91.7113 212.481C91.7113 212.481 96.0463 216.927 96.7395 217.381C97.4326 217.834 102.351 220.466 102.351 220.466C102.351 220.466 102.254 221.099 101.859 221.194C101.464 221.29 91.7113 221.374 91.0243 221.284C90.3372 221.194 84.5977 218.4 83.9289 218.103C82.9454 217.607 81.9915 217.063 81.0713 216.474L85.4063 210.028L91.7113 212.481Z" fill="white" stroke="#2E353A" stroke-linejoin="round"/>
<path d="M84.3727 164.08L88.5071 166.807L94.4229 184.638L84.3727 210.778L93.1157 213.018L93.6812 210.095L95.42 207.026C95.42 207.026 106.097 185.455 106.242 183.686C106.388 181.916 101.518 163.268 101.518 163.268L100.631 155.372L85.2543 154.006" fill="#2E353A"/>
<path d="M84.3727 164.08L88.5071 166.807L94.4229 184.638L84.3727 210.778L93.1157 213.018L93.6812 210.095L95.42 207.026C95.42 207.026 106.097 185.455 106.242 183.686C106.388 181.916 101.518 163.268 101.518 163.268L100.631 155.372L85.2543 154.006" stroke="#2E353A" stroke-linejoin="round"/>
<path d="M101.859 221.2C102.254 221.105 102.351 220.472 102.351 220.472L101.482 220.002C97.7305 219.738 91.4377 219.29 91.0243 219.29C90.6108 219.29 84.4761 215.987 82.2326 214.749L81.0713 216.479C81.9915 217.069 82.9454 217.613 83.9289 218.109C84.6159 218.383 90.3311 221.2 91.0243 221.29C91.7174 221.379 101.464 221.284 101.859 221.2Z" fill="white" stroke="#2E353A" stroke-linejoin="round"/>
<path d="M92.3739 121.201C92.3739 121.201 82.5487 122.114 82.4453 122.483C82.3419 122.853 69.3429 135.828 69.3429 135.828L72.8207 141.954L81.1563 138.667L78.773 152.012C78.773 152.012 77.1861 152.572 80.0619 153.933C82.9378 155.294 89.5954 157.041 94.1614 157.041C98.7275 157.041 101.305 157.041 102.303 155.764C102.95 154.974 103.298 154.01 103.294 153.02C103.391 152.286 108.06 141.131 108.06 141.131C108.06 141.131 118.481 153.451 118.877 153.754C119.272 154.056 121.163 154.314 122.75 152.561C124.336 150.808 124.039 146.804 124.039 146.804C124.039 146.804 118.184 137.021 117.886 135.649C117.588 134.277 116.67 130.049 116.098 128.974C115.527 127.898 114.712 127.786 113.119 127.053C111.526 126.319 107.167 124.953 107.167 124.953L92.3739 121.201Z" fill="white" stroke="#2E353A" stroke-linejoin="round"/>
<path d="M83.4425 125.227L81.1564 138.667L82.1474 125.955" stroke="#2E353A" stroke-linejoin="round"/>
<path d="M80.8584 138.298L78.2805 132.446" stroke="#2E353A" stroke-linejoin="round"/>
<path d="M74.4501 134.943L72.918 134.092" stroke="#2E353A" stroke-linejoin="round"/>
<path d="M81.1563 138.667L75.7451 135.666" stroke="#2E353A" stroke-linejoin="round"/>
<path d="M112.705 134.478L115.204 130.894" stroke="#2E353A" stroke-linejoin="round"/>
<path d="M108.06 141.131L111.915 135.61" stroke="#2E353A" stroke-linejoin="round"/>
<path d="M115.575 136.73L116.694 136.102" stroke="#2E353A" stroke-linejoin="round"/>
<path d="M108.656 140.588L114.219 137.486" stroke="#2E353A" stroke-linejoin="round"/>
<path d="M108.158 140.493L117.886 138.942" stroke="#2E353A" stroke-linejoin="round"/>
<path d="M80.062 152.382L89.7961 150.186" stroke="#2E353A" stroke-linejoin="round"/>
<path d="M96.4293 147.134C97.0562 146.91 97.6656 146.646 98.2533 146.345" stroke="#2E353A" stroke-linejoin="round"/>
<path d="M84.1356 150.186C87.788 149.548 91.3941 148.702 94.9337 147.655" stroke="#2E353A" stroke-linejoin="round"/>
<path d="M123.941 146.16C123.742 147.645 123.008 149.025 121.856 150.08C120.723 151.205 119.234 151.971 117.6 152.27C117.6 152.27 118.494 155.383 119.588 155.383C120.682 155.383 122.567 155.943 124.251 153.826C125.936 151.71 126.337 148.159 125.838 147.241C125.34 146.322 125.036 145.886 123.941 146.16Z" fill="white" stroke="#2E353A" stroke-linejoin="round"/>
<path d="M70.8325 133.728C70.8325 133.728 75.5992 141.954 75.198 142.128C74.7967 142.302 73.1186 143.685 72.5228 143.774C71.9269 143.864 69.2456 141.394 68.2668 139.294C67.2879 137.194 66.9778 136.366 67.2757 136.002C67.5736 135.638 70.2367 133.728 70.8325 133.728Z" fill="white" stroke="#2E353A" stroke-linejoin="round"/>
<path d="M287.931 90.2103C288.466 87.4103 289.238 80.4943 284.66 77.0951C278.854 72.7831 274.731 80.5447 269.673 74.5079C264.614 68.4711 263.119 55.3559 248.15 55.5239C233.181 55.6919 232.038 63.4647 232.038 66.0519C232.038 68.6391 227.545 70.5319 226.608 70.5319C225.672 70.5319 220.425 68.2919 218.552 73.2927C216.68 78.2935 217.944 81.1887 214.971 81.2951C211.998 81.4015 208.283 77.6607 204.246 79.5311C200.209 81.4015 200.191 85.3719 198.507 86.7495C196.822 88.1271 194.007 85.7191 190.262 87.0967C187.994 87.9311 187.307 89.2751 187.119 90.2047L287.931 90.2103Z" fill="white" stroke="black" stroke-miterlimit="10"/>
<path d="M123.917 36.0976C124.239 34.4176 124.701 30.2232 121.935 28.168C118.427 25.5584 115.934 30.2512 112.87 26.6C109.805 22.9488 108.918 15.0192 99.8402 15.12C90.7628 15.2208 90.1122 19.9192 90.1122 21.4872C90.1122 23.0552 87.3884 24.2032 86.8229 24.2032C86.2575 24.2032 83.0837 22.8424 81.9589 25.8832C80.8341 28.924 81.5941 30.66 79.7945 30.7216C77.9948 30.7832 75.7573 28.5264 73.3071 29.6576C70.8569 30.7888 70.8751 33.1856 69.8354 34.02C68.7957 34.8544 67.1177 33.3928 64.8498 34.2328C64.3804 34.3618 63.9567 34.6036 63.6223 34.9333C63.2879 35.263 63.0547 35.6687 62.9468 36.1088L123.917 36.0976Z" fill="white" stroke="black" stroke-miterlimit="10"/>
<path d="M75.7817 58.4975C75.9762 57.4839 76.2559 54.9751 74.5657 53.7431C72.462 52.1751 70.9663 54.9919 69.1301 52.8023C67.294 50.6127 66.7833 45.8583 61.3478 45.9199C55.9122 45.9815 55.5049 48.7983 55.5049 49.7391C55.5049 50.6799 53.8754 51.3631 53.535 51.3631C53.1945 51.3631 51.2975 50.5511 50.6166 52.3655C49.9356 54.1799 50.3977 55.2271 49.3154 55.2663C48.2332 55.3055 46.8834 53.9503 45.4242 54.6279C43.965 55.3055 43.959 56.7447 43.3449 57.2487C42.7308 57.7527 41.7154 56.8679 40.3596 57.3719C40.0781 57.448 39.8237 57.5919 39.6227 57.7888C39.4218 57.9857 39.2816 58.2284 39.2166 58.4919L75.7817 58.4975Z" fill="white" stroke="black" stroke-miterlimit="10"/>
<path d="M267.302 155.938C267.496 154.924 267.776 152.415 266.116 151.183C264.012 149.615 262.517 152.432 260.681 150.242C258.844 148.053 258.303 143.298 252.868 143.36C247.432 143.422 247.025 146.238 247.025 147.179C247.025 148.12 245.395 148.803 245.055 148.803C244.715 148.803 242.818 147.991 242.137 149.806C241.456 151.62 241.918 152.667 240.835 152.706C239.753 152.746 238.403 151.39 236.944 152.068C235.485 152.746 235.479 154.185 234.865 154.689C234.251 155.193 233.235 154.308 231.88 154.812C231.598 154.888 231.344 155.032 231.143 155.229C230.942 155.426 230.802 155.668 230.737 155.932L267.302 155.938Z" fill="white" stroke="black" stroke-miterlimit="10"/>
<path d="M250.193 61.9415C250.363 61.0567 250.606 58.8671 249.159 57.7919C247.335 56.4255 246.016 58.9119 244.41 56.9687C242.805 55.0255 242.337 50.9039 237.589 50.9599C232.84 51.0159 232.488 53.4743 232.488 54.3199C232.488 55.1655 231.065 55.7423 230.767 55.7423C230.469 55.7423 228.809 55.0311 228.219 56.6159C227.63 58.2007 228.025 59.1191 227.082 59.1527C226.14 59.1863 224.973 57.9991 223.69 58.5927C222.407 59.1863 222.407 60.4407 221.866 60.8775C221.325 61.3143 220.443 60.5527 219.251 60.9895C219.006 61.0562 218.785 61.1823 218.61 61.3547C218.436 61.5271 218.315 61.7394 218.26 61.9695L250.193 61.9415Z" fill="white" stroke="black" stroke-miterlimit="10"/>
</svg>
