<svg width="350" height="250" viewBox="0 0 350 250" fill="none" xmlns="http://www.w3.org/2000/svg">
<path d="M146.574 37.3698C135.028 42.3143 123.761 50.0843 114.292 57.3289C97.8181 69.9324 82.7686 85.3498 72.3074 102.612C59.6455 123.546 59.3945 147.854 67.503 166.301C71.6303 175.7 78.0867 183.954 86.8199 189.57C98.2268 196.92 111.869 195.022 126.183 195.659C152.301 196.826 163.072 222.967 183.212 233.329C209.68 246.949 246.609 232.238 269.65 207.375C281.641 194.433 288.868 178.332 286.58 163.26C284.157 147.276 271.349 136.231 259.294 127.241C248.914 119.565 239.845 110.257 232.441 99.6813C225.319 89.4478 221.297 77.574 215.202 66.7626C205.278 49.1036 190.906 30.5689 165.74 32.3202C159.417 32.7522 152.955 34.6261 146.574 37.3698Z" fill="#FFF0BA"/>
<path d="M281.232 173.078C281.232 174.001 271.734 174.754 260.018 174.754C248.302 174.754 238.81 174.001 238.81 173.078C238.81 172.156 248.307 171.397 260.018 171.397C271.728 171.397 281.232 172.15 281.232 173.078Z" fill="#2E353A"/>
<path d="M237.746 84.2152C237.746 84.2152 235.469 83.0477 235.469 80.9286C235.469 78.8095 240.449 76.8772 244.664 77.4668C248.879 78.0564 250.91 83.2053 250.571 86.1591C250.233 89.113 250.49 91.1387 253.274 93.0768C256.059 95.0149 261.12 101.01 259.112 104.046C257.104 107.081 254.64 108.097 256.497 110.467C258.353 112.837 258.692 115.529 256.246 117.385C255.129 118.305 253.771 118.881 252.334 119.045C250.897 119.208 249.443 118.952 248.149 118.307C245.364 116.959 242.498 112.061 243.257 108.436C244.016 104.811 241.57 94.1743 240.893 90.3798C240.215 86.5853 239.433 84.3845 237.746 84.2152Z" fill="#2E353A" stroke="#2E353A" stroke-width="0.833955" stroke-linecap="round" stroke-linejoin="round"/>
<path d="M240.561 113.078C240.561 113.078 236.679 116.54 235.249 117.55C234.439 118.203 233.416 118.534 232.377 118.478C231.869 118.478 230.626 117.894 229.931 118.565C229.236 119.237 228.244 121.181 228.495 121.35C228.746 121.519 230.859 119.996 231.11 119.996C231.361 119.996 232.038 119.914 232.038 119.914C232.038 119.914 230.182 121.262 230.602 121.514C231.023 121.765 232.126 121.011 232.546 120.755C233.198 120.229 233.818 119.666 234.403 119.068C234.403 119.068 239.125 116.54 240.24 116.283C241.355 116.026 242.353 114.176 242.266 113.586C242.209 113.422 242.113 113.274 241.988 113.154C241.862 113.034 241.71 112.946 241.543 112.897C241.377 112.847 241.201 112.838 241.03 112.869C240.86 112.901 240.699 112.972 240.561 113.078V113.078Z" fill="white" stroke="#2E353A" stroke-width="0.833955" stroke-linecap="round" stroke-linejoin="round"/>
<path d="M239.434 92.1704C240.095 93.0077 240.488 94.025 240.561 95.0893C240.561 96.6946 238.115 99.6485 237.268 102.176C236.422 104.704 237.105 106.397 237.776 107.325C238.447 108.253 239.633 109.771 239.72 110.618C239.808 111.464 240.14 112.953 240.14 112.953C240.14 112.953 243.007 113.799 248.663 111.522C248.663 111.522 249.247 98.5277 249.084 96.8406C248.92 95.1535 246.638 94.056 245.54 93.8867C244.443 93.7174 243.176 93.0402 242.756 92.1996C242.504 91.6871 242.308 91.1489 242.172 90.5942L239.434 92.1704Z" fill="#FFCF23" stroke="#2E353A" stroke-width="0.833955" stroke-linecap="round" stroke-linejoin="round"/>
<path d="M244.864 93.7664C243.987 93.5386 243.226 92.9936 242.728 92.237C242.476 91.7245 242.28 91.1862 242.144 90.6316L239.441 92.1494C240.104 92.9938 240.495 94.0199 240.562 95.0916C240.562 95.8213 240.054 96.8429 239.423 97.9579C239.914 99.0203 240.83 100.159 242.307 99.0845C243.784 98.0104 244.508 95.5352 244.864 93.7664Z" fill="white" stroke="#2E353A" stroke-width="0.833955" stroke-linecap="round" stroke-linejoin="round"/>
<path d="M239.299 80.8065C239.299 80.8065 237.548 82.2309 237.221 83.4626C236.894 84.6944 235.82 87.549 236.053 88.594C236.287 89.6389 236.462 92.7971 237.693 93.1007C238.925 93.4042 242.813 90.9524 243.426 89.8257C244.039 88.699 244.553 85.8269 243.222 83.0598C241.891 80.2928 239.813 79.7849 239.299 80.8065Z" fill="white" stroke="#2E353A" stroke-width="0.833955" stroke-linecap="round" stroke-linejoin="round"/>
<path d="M238.894 79.7857C238.894 79.7857 241.351 82.1208 241.661 85.2147C241.97 88.3087 240.738 91.6362 243.412 93.9245C246.086 96.2129 250.481 93.6152 250.481 93.6152C248.712 92.2491 247.509 90.2788 247.101 88.081C246.588 84.5784 245.77 81.4202 244.13 80.3986C242.49 79.377 239.507 79.3712 238.894 79.7857Z" fill="#2E353A" stroke="#2E353A" stroke-width="0.833955" stroke-linecap="round" stroke-linejoin="round"/>
<path d="M272.669 136.872C272.669 136.872 275.454 135.273 275.787 135.442C276.12 135.611 279.33 139.826 279.418 140.246C279.505 140.667 278.91 140.924 278.571 140.754C278.233 140.585 275.536 138.647 274.859 138.559C274.181 138.472 273.107 138.227 273.107 138.227L272.669 136.872Z" fill="#FFCF23" stroke="#2E353A" stroke-width="0.833955" stroke-linecap="round" stroke-linejoin="round"/>
<path d="M244.648 167.251C244.585 168.257 244.389 169.25 244.065 170.205C243.644 171.051 242.126 172.481 242.126 172.82C242.126 173.158 242.377 173.24 242.798 173.24C243.869 173.091 244.87 172.62 245.67 171.892C246.142 171.268 246.534 170.587 246.837 169.866C247.094 169.527 248.104 169.107 248.192 168.348C248.279 167.589 247.176 166.323 247.176 166.323L244.648 167.251Z" fill="#FFCF23" stroke="#2E353A" stroke-width="0.833955" stroke-linecap="round" stroke-linejoin="round"/>
<path d="M240.113 112.988C240.113 112.988 238.087 125.65 238.361 132.486C238.636 139.322 242.243 156.111 243.09 159.654C243.936 163.198 244.689 167.243 244.689 167.243L247.223 166.315C247.223 166.315 247.982 157.961 247.31 152.731C246.639 147.5 245.705 139.649 245.956 137.121C246.207 134.593 246.213 130.699 246.213 130.699C246.213 130.699 249.669 142.427 251.105 144.879C252.541 147.331 253.3 147.576 254.397 147.494C255.495 147.413 265.536 142.597 266.972 141.756C268.408 140.915 273.13 138.213 273.13 138.213L272.71 136.858C272.71 136.858 265.705 138.802 262.92 139.73C260.136 140.659 256.166 141.838 256.166 141.838C256.166 141.838 255.407 132.305 254.479 126.905C253.551 121.505 249.926 112.725 248.641 111.546C248.636 111.558 245.851 113.186 240.113 112.988Z" fill="#2E353A" stroke="#2E353A" stroke-width="0.833955" stroke-linecap="round" stroke-linejoin="round"/>
<path d="M246.31 131.133L244.267 123.497" stroke="white" stroke-width="0.833955" stroke-linecap="round" stroke-linejoin="round"/>
<path d="M245.845 96.2597C245.243 97.3224 245.063 98.5732 245.343 99.7623C245.845 101.63 249.079 111.093 249.079 111.093C249.079 111.093 245.471 113.457 243.481 114.823C241.841 115.882 240.137 116.838 238.379 117.684C238.064 117.547 237.724 117.476 237.38 117.476C237.037 117.476 236.697 117.547 236.382 117.684C235.512 118.186 233.773 120.299 234.146 120.55C234.52 120.801 236.26 119.429 236.26 119.429C237.043 119.555 237.832 119.638 238.624 119.68C239.371 119.68 240.743 118.431 240.743 118.431C240.743 118.431 252.564 112.833 252.938 112.833C253.311 112.833 248.957 96.8434 248.957 96.8434C248.957 96.8434 248.209 95.6 247.088 95.4774" fill="#FFCF23"/>
<path d="M245.845 96.2597C245.243 97.3224 245.063 98.5732 245.343 99.7623C245.845 101.63 249.079 111.093 249.079 111.093C249.079 111.093 245.471 113.457 243.481 114.823C241.841 115.882 240.137 116.838 238.379 117.684C238.064 117.547 237.724 117.476 237.38 117.476C237.037 117.476 236.697 117.547 236.382 117.684C235.512 118.186 233.773 120.299 234.146 120.55C234.52 120.801 236.26 119.429 236.26 119.429C237.043 119.555 237.832 119.638 238.624 119.68C239.371 119.68 240.743 118.431 240.743 118.431C240.743 118.431 252.564 112.833 252.938 112.833C253.311 112.833 248.957 96.8434 248.957 96.8434C248.957 96.8434 248.209 95.6 247.088 95.4774" stroke="#2E353A" stroke-width="0.833955" stroke-linecap="round" stroke-linejoin="round"/>
<path d="M252.109 108.815L248.606 109.591C248.904 110.479 249.102 111.057 249.102 111.057C249.102 111.057 245.495 113.421 243.504 114.787C241.865 115.846 240.161 116.801 238.402 117.647C238.087 117.51 237.747 117.44 237.404 117.44C237.06 117.44 236.72 117.51 236.405 117.647C235.536 118.149 233.796 120.263 234.17 120.514C234.543 120.765 236.283 119.393 236.283 119.393C237.066 119.518 237.855 119.602 238.647 119.644C239.394 119.644 240.766 118.395 240.766 118.395C240.766 118.395 252.588 112.796 252.961 112.796C253.06 112.796 252.675 111.097 252.109 108.815Z" fill="white" stroke="#2E353A" stroke-width="0.833955" stroke-linecap="round" stroke-linejoin="round"/>
<path d="M152.702 109.626C152.702 110.555 143.21 111.308 131.493 111.308C119.777 111.308 110.285 110.555 110.285 109.626C110.285 108.698 119.777 107.933 131.493 107.933C143.21 107.933 152.702 108.704 152.702 109.626Z" fill="#2E353A"/>
<path d="M134.826 28.9374L127.395 44.1912L129.619 45.458L136.093 36.9934L134.826 28.9374Z" fill="#FFCF23" stroke="#2E353A" stroke-width="0.833955" stroke-linecap="round" stroke-linejoin="round"/>
<path d="M154.82 27.8286L158.655 45.832L165.287 52.6329C165.287 52.6329 169.537 53.6545 170.045 53.9931C170.553 54.3317 171.574 56.0363 171.574 56.0363L170.897 56.3749L167.838 55.0147H166.816L168.685 56.5442L168.328 56.8886L163.582 53.4852L155.591 47.5308L152.87 41.9208L154.82 27.8286Z" fill="#FFCF23" stroke="#2E353A" stroke-width="0.833955" stroke-linecap="round" stroke-linejoin="round"/>
<path d="M170.045 53.9926C169.537 53.654 165.287 52.6324 165.287 52.6324L158.656 45.8315L158.393 44.6115L155.13 46.5729L155.591 47.5303L163.583 53.4847L168.329 56.8881L168.685 56.5437L166.817 55.0142H167.838L170.897 56.3744L171.574 56.0358C171.574 56.0358 170.559 54.337 170.045 53.9926Z" fill="white" stroke="#2E353A" stroke-width="0.833955" stroke-linecap="round" stroke-linejoin="round"/>
<path d="M141.679 26.2051L134.797 28.908C134.797 28.908 136.729 40.8168 136.811 42.9768C136.892 45.1367 136.343 50.9394 136.811 51.5582C137.278 52.177 138.433 52.2529 138.433 52.2529L152.555 52.1828C152.555 52.1828 153.763 51.599 153.279 49.3982C153.01 48.1898 153.582 38.6511 153.74 36.6371C153.897 34.6231 154.82 27.828 154.82 27.828C154.82 27.828 149.099 26.2051 147.552 25.9716C146.005 25.7381 142.841 25.4287 141.679 26.2051Z" fill="#FFCF23" stroke="#2E353A" stroke-width="0.833955" stroke-linecap="round" stroke-linejoin="round"/>
<path d="M143.069 24.2502C142.469 24.4137 141.893 24.653 141.353 24.9624C141.073 25.2485 140.857 26.7488 140.571 27.5369C140.285 28.3249 139.357 29.6793 139.643 29.7493C139.929 29.8194 142.357 28.5818 142.357 28.5818L145.142 31.74L147.786 28.4417C147.786 28.4417 149.853 30.012 149.999 29.796C150.145 29.5801 149.071 27.0115 149.001 25.9432C148.93 24.8749 147.354 24.5129 146.426 24.4429C145.498 24.3728 143.069 24.2502 143.069 24.2502Z" fill="white" stroke="#2E353A" stroke-width="0.833955" stroke-linecap="round" stroke-linejoin="round"/>
<path d="M142.45 22.5207V26.6946L145.054 31.4932L147.541 26.6363V22.2755L142.45 22.5207Z" fill="white" stroke="#2E353A" stroke-width="0.833955" stroke-linecap="round" stroke-linejoin="round"/>
<path d="M141.354 17.8045C141.354 17.8045 140.303 15.9306 139.714 16.9872C139.124 18.0438 139.947 20.2621 140.298 20.8459C140.648 21.4297 141.232 20.4956 141.232 20.4956" fill="white"/>
<path d="M141.354 17.8045C141.354 17.8045 140.303 15.9306 139.714 16.9872C139.124 18.0438 139.947 20.2621 140.298 20.8459C140.648 21.4297 141.232 20.4956 141.232 20.4956" stroke="#2E353A" stroke-width="0.833955" stroke-linecap="round" stroke-linejoin="round"/>
<path d="M148.907 17.8045C148.907 17.8045 149.963 15.9306 150.547 16.9872C151.131 18.0438 150.314 20.2621 149.963 20.8459C149.613 21.4297 149.023 20.4956 149.023 20.4956" fill="white"/>
<path d="M148.907 17.8045C148.907 17.8045 149.963 15.9306 150.547 16.9872C151.131 18.0438 150.314 20.2621 149.963 20.8459C149.613 21.4297 149.023 20.4956 149.023 20.4956" stroke="#2E353A" stroke-width="0.833955" stroke-linecap="round" stroke-linejoin="round"/>
<path d="M149.427 17.4506C149.427 20.7431 147.489 25.2906 145.096 25.2906C142.702 25.2906 140.77 20.7431 140.77 17.4506C140.77 14.1582 142.708 11.4845 145.096 11.4845C147.483 11.4845 149.427 14.1582 149.427 17.4506Z" fill="white" stroke="#2E353A" stroke-width="0.833955" stroke-linecap="round" stroke-linejoin="round"/>
<path d="M148.506 15.7969C148.506 15.7969 148.208 16.6492 148.57 17.0111C148.932 17.3731 148.874 17.916 148.81 18.6457C148.745 19.3754 148.932 19.8132 149.177 19.5564C149.423 19.2995 149.662 15.9195 149.662 15.6801C149.662 15.4408 148.506 15.7969 148.506 15.7969Z" fill="#2E353A" stroke="#2E353A" stroke-width="0.833955" stroke-linecap="round" stroke-linejoin="round"/>
<path d="M140.817 16.9532L140.939 18.8271C140.987 18.8444 141.037 18.8519 141.087 18.8491C141.138 18.8464 141.187 18.8334 141.233 18.8111C141.278 18.7887 141.318 18.7574 141.351 18.719C141.384 18.6806 141.409 18.6359 141.424 18.5877C141.546 18.22 141.243 17.0699 141.546 16.4687C141.85 15.8674 143 15.558 143.07 15.1143C143.14 14.6707 142.486 13.9059 142.486 13.6024C142.486 13.2988 142.667 13.0186 144.185 14.4488C145.703 15.8791 148.481 16.2001 149.935 15.844C151.389 15.4879 149.631 13.2988 149.269 12.8143C148.908 12.3297 150.239 12.6917 149.509 11.4833C148.779 10.2749 146.24 9.48679 143.7 10.3916C141.161 11.2965 139.702 12.5749 140.063 13.8475C140.425 15.1202 140.817 16.9532 140.817 16.9532Z" fill="#2E353A" stroke="#2E353A" stroke-width="0.833955" stroke-linecap="round" stroke-linejoin="round"/>
<path d="M156.788 104.174C156.788 104.174 155.218 82.5282 154.856 73.8184C154.494 65.1086 152.678 51.6936 152.678 51.6936L147.249 51.0281H142.749L136.812 51.5535C136.812 51.5535 135.802 53.6842 135.457 57.8407C135.072 62.4174 135.335 69.2533 135.148 73.8184C134.78 82.5224 133.21 104.174 133.21 104.174L131.879 105.505V106.469L135.51 107.922L144.938 63.6667L145.002 63.5674L145.06 63.6667L154.488 107.934L158.119 106.48V105.517L156.788 104.174Z" fill="#2E353A" stroke="#2E353A" stroke-width="0.833955" stroke-linecap="round" stroke-linejoin="round"/>
<path d="M131.88 106.468L128.016 109.737V110.461H135.149L135.511 107.921L131.88 106.468Z" fill="#FFCF23" stroke="#2E353A" stroke-width="0.833955" stroke-linecap="round" stroke-linejoin="round"/>
<path d="M135.149 110.462L135.249 109.738H128.016V110.462H135.149Z" fill="white" stroke="#2E353A" stroke-width="0.833955" stroke-linecap="round" stroke-linejoin="round"/>
<path d="M157.996 106.468L161.867 109.737V110.461H154.733L154.371 107.921L157.996 106.468Z" fill="#FFCF23" stroke="#2E353A" stroke-width="0.833955" stroke-linecap="round" stroke-linejoin="round"/>
<path d="M154.733 110.462L154.628 109.738H161.867V110.462H154.733Z" fill="white" stroke="#2E353A" stroke-width="0.833955" stroke-linecap="round" stroke-linejoin="round"/>
<path d="M158.009 44.2263L154.285 45.7149L155.592 48.1726L158.657 46.4738L158.009 44.2263Z" fill="white" stroke="#2E353A" stroke-width="0.833955" stroke-linecap="round" stroke-linejoin="round"/>
<path d="M130.724 44.8233L127.851 43.4164C127.851 43.4164 126.596 44.3854 126.725 45.4596C126.759 45.7736 126.861 46.0766 127.023 46.3477C127.185 46.6187 127.404 46.8515 127.665 47.0299L131.091 46.884L130.724 44.8233Z" fill="white" stroke="#2E353A" stroke-width="0.833955" stroke-linecap="round" stroke-linejoin="round"/>
<path d="M137.647 54.2259H136.152L130.898 46.4384C130.898 46.4384 128.943 45.5336 127.647 47.0222L134.985 55.6561L136.006 57.0922L137.425 55.3934L139.176 55.9772L139.643 55.481L137.647 54.2259Z" fill="white" stroke="#2E353A" stroke-width="0.833955" stroke-linecap="round" stroke-linejoin="round"/>
<path d="M122.446 238.841C122.446 239.77 112.948 240.523 101.232 240.523C89.5155 240.523 80.0234 239.77 80.0234 238.841C80.0234 237.913 89.5214 237.166 101.232 237.166C112.942 237.166 122.446 237.919 122.446 238.841Z" fill="#2E353A"/>
<path d="M88.9553 234.33L93.0359 237.774V238.539H85.5111L86.0365 234.844L88.9553 234.33Z" fill="#FFCF23" stroke="#2E353A" stroke-width="0.833955" stroke-linecap="round" stroke-linejoin="round"/>
<path d="M98.3598 144.4C98.3598 144.4 98.856 143.408 99.2705 144.318C99.6304 145.253 99.6593 146.283 99.3522 147.237C99.1012 147.652 98.1088 148.23 98.1088 147.821C98.1088 147.412 98.3598 144.4 98.3598 144.4Z" fill="white" stroke="#2E353A" stroke-width="0.833955" stroke-linecap="round" stroke-linejoin="round"/>
<path d="M90.3443 146.334C90.3443 146.334 89.5912 145.516 89.4511 146.503C89.3653 147.495 89.6229 148.486 90.1808 149.311C90.5311 149.638 91.6461 149.895 91.5352 149.521C91.4242 149.147 90.3443 146.334 90.3443 146.334Z" fill="white" stroke="#2E353A" stroke-width="0.833955" stroke-linecap="round" stroke-linejoin="round"/>
<path d="M93.2063 154.552C94.3739 154.552 97.0534 154.359 97.0534 154.359L103.656 151.499L109.371 143.711L112.231 128.136C111.762 127.29 111.356 126.41 111.017 125.504C111.032 124.713 111.15 123.928 111.367 123.169C111.367 123.169 111.723 122.345 111.84 123.052C111.903 123.634 111.903 124.221 111.84 124.803L112.196 125.387C112.435 124.229 112.749 123.088 113.136 121.972C113.492 121.265 114.304 121.499 114.304 121.972C114.304 122.445 114.66 123.624 114.777 124.564C114.893 125.504 113.609 128.533 113.609 128.533L113.218 145.194C113.218 145.194 104.934 158.504 104.461 158.994C103.989 159.485 104.064 169.642 103.971 171.219C103.878 172.795 104.555 175.754 104.362 176.344C104.17 176.934 103.276 178.516 100.322 179.205C97.3686 179.893 91.9396 179.403 91.35 178.714C90.7603 178.025 90.7662 176.052 90.7662 176.052C90.7662 176.052 87.7831 167.214 87.7831 166.42C87.7831 165.959 87.0009 162.666 86.3529 160.028C86.1264 159.097 86.2644 158.114 86.7387 157.282C87.213 156.45 87.9876 155.83 88.904 155.55C90.3114 155.111 91.7495 154.778 93.2063 154.552V154.552Z" fill="white" stroke="#2E353A" stroke-width="0.833955" stroke-linecap="round" stroke-linejoin="round"/>
<path d="M97.244 154.552L103.846 151.691L109.562 143.904L111.99 130.699L113.741 130.751L113.397 145.381C113.397 145.381 105.113 158.69 104.64 159.181C104.168 159.671 104.243 169.829 104.15 171.405C104.057 172.981 104.734 175.941 104.541 176.53C104.349 177.12 103.455 178.702 100.501 179.391C97.5476 180.08 92.1186 179.589 91.529 178.9C90.9394 178.212 90.9452 176.238 90.9452 176.238C90.9452 176.238 87.9621 167.4 87.9621 166.606C87.9621 166.151 87.1974 162.929 86.5553 160.307C86.3214 159.352 86.462 158.343 86.9483 157.487C87.4346 156.632 88.2297 155.995 89.1705 155.707C90.5575 155.282 91.9741 154.96 93.4087 154.744C94.5821 154.744 97.244 154.552 97.244 154.552Z" fill="#FFCF23" stroke="#2E353A" stroke-width="0.833955" stroke-linecap="round" stroke-linejoin="round"/>
<path d="M96.6547 151.989C97.3707 152.375 98.0627 152.804 98.7271 153.273C99.019 153.571 100.478 158.597 100.478 158.597L97.3202 156.846L93.8702 159.607C93.8702 159.607 92.5917 155.859 92.7026 154.482C92.7677 154.03 92.9232 153.596 93.1599 153.206C93.3967 152.816 93.7097 152.477 94.0803 152.211L96.6547 151.989Z" fill="white" stroke="#2E353A" stroke-width="0.833955" stroke-linecap="round" stroke-linejoin="round"/>
<path d="M97.0515 151.599L97.1449 159.387L93.6014 152.288L97.0515 151.599Z" fill="white" stroke="#2E353A" stroke-width="0.833955" stroke-linecap="round" stroke-linejoin="round"/>
<path d="M90.4077 146.869C90.939 149.922 93.4725 153.81 95.6617 153.425C97.8508 153.04 98.9308 148.516 98.3995 145.462C97.8683 142.409 95.6325 140.255 93.42 140.646C91.2075 141.037 89.8707 143.816 90.4077 146.869Z" fill="white" stroke="#2E353A" stroke-width="0.833955" stroke-linecap="round" stroke-linejoin="round"/>
<path d="M98.5705 146.268C98.5705 146.268 97.6948 146.543 97.8174 146.216C97.8287 145.751 97.7473 145.288 97.5781 144.855C97.3353 144.729 97.133 144.537 96.9943 144.301C96.7374 143.881 97.076 143.168 96.9943 142.625C96.9126 142.083 94.2856 143.659 93.8303 143.74C93.3749 143.822 90.7305 143.63 90.7305 143.63C90.7305 143.63 91.4718 145.177 91.2325 145.41C90.9932 145.644 90.9523 146.484 90.9523 146.484C91.1709 147.029 91.3333 147.594 91.4368 148.171C91.3901 148.457 90.8531 148.755 90.7421 148.481C90.6312 148.206 90.1934 145.871 90.1934 145.871C90.1934 145.871 89.5746 146.07 89.3528 144.803C89.1309 143.536 89.3528 140.6 90.5203 139.835C91.6878 139.07 94.6067 138.562 95.8793 138.989C97.1519 139.415 98.4887 142.176 98.3953 143.215C98.3719 144.236 98.4305 145.257 98.5705 146.268V146.268Z" fill="#2E353A" stroke="#2E353A" stroke-width="0.833955" stroke-linecap="round" stroke-linejoin="round"/>
<path d="M93.0359 237.773V238.538H85.5111L85.6687 237.434H92.6389L93.0359 237.773Z" fill="white" stroke="#2E353A" stroke-width="0.833955" stroke-linecap="round" stroke-linejoin="round"/>
<path d="M107.246 234.02L112.01 237.773V238.538H104.012L104.537 234.136L107.246 234.02Z" fill="#FFCF23" stroke="#2E353A" stroke-width="0.833955" stroke-linecap="round" stroke-linejoin="round"/>
<path d="M112.01 237.773V238.538H104.012L104.17 237.434H111.607L112.01 237.773Z" fill="white" stroke="#2E353A" stroke-width="0.833955" stroke-linecap="round" stroke-linejoin="round"/>
<path d="M104.343 176.339C104.343 176.339 106.889 189.13 107.601 194.197C108.313 199.264 108.897 213.163 108.897 218.23C108.897 223.298 107.245 234.027 107.245 234.027L104.536 234.144C104.536 234.144 102.201 206.123 101.471 203.981C100.742 201.838 99.1361 195.732 99.1361 195.732C99.1361 195.732 97.2506 210.91 97.0171 212.702C96.7836 214.494 88.8618 234.611 88.8618 234.611L86.0364 234.845C86.0364 234.845 90.6306 212.457 90.7474 210.91C90.8641 209.363 89.8075 188.05 90.3971 184.278C90.9867 180.507 91.337 178.038 91.337 178.038C91.337 178.038 99.679 179.223 104.343 176.339Z" fill="#2E353A" stroke="#2E353A" stroke-width="0.833955" stroke-linecap="round" stroke-linejoin="round"/>
<path d="M99.1124 195.725L99.9414 188.183" stroke="white" stroke-width="0.833955" stroke-linecap="round" stroke-linejoin="round"/>
<path d="M87.8617 157.138C87.8617 157.138 85.7192 159.03 87.1436 161.522C88.1069 163.198 97.0677 176.011 98.5271 176.414C99.9865 176.817 116.706 176.508 116.706 176.508L120.395 176.303L123.203 174.692L119.496 174.581C119.496 174.581 121.831 173.326 120.716 173.384C119.601 173.443 116.005 175.422 116.005 175.422L100.401 172.608L94.2948 161.23" fill="#FFCF23"/>
<path d="M87.8617 157.138C87.8617 157.138 85.7192 159.03 87.1436 161.522C88.1069 163.198 97.0677 176.011 98.5271 176.414C99.9865 176.817 116.706 176.508 116.706 176.508L120.395 176.303L123.203 174.692L119.496 174.581C119.496 174.581 121.831 173.326 120.716 173.384C119.601 173.443 116.005 175.422 116.005 175.422L100.401 172.608L94.2948 161.23" stroke="#2E353A" stroke-width="0.833955" stroke-linecap="round" stroke-linejoin="round"/>
<path d="M120.718 173.385C119.592 173.449 116.007 175.422 116.007 175.422L115.681 175.364L115.745 176.531H116.708L120.397 176.327L123.205 174.716L119.498 174.605C119.498 174.605 121.839 173.315 120.718 173.385Z" fill="white" stroke="#2E353A" stroke-width="0.833955" stroke-linecap="round" stroke-linejoin="round"/>
<path d="M229.825 119.747H183.403C181.069 119.747 179.177 121.639 179.177 123.973V170.394C179.177 172.729 181.069 174.621 183.403 174.621H229.825C232.159 174.621 234.051 172.729 234.051 170.394V123.973C234.051 121.639 232.159 119.747 229.825 119.747Z" fill="#2E353A"/>
<path d="M232.457 146.462L223.379 133.677L209.316 155.125L195.026 149.591L183.012 169.666C182.788 170.041 182.667 170.469 182.662 170.905C182.657 171.342 182.768 171.772 182.983 172.152C183.199 172.531 183.511 172.847 183.888 173.067C184.265 173.287 184.694 173.402 185.131 173.403H228.236C229.357 173.403 230.432 172.957 231.225 172.165C232.017 171.372 232.463 170.297 232.463 169.176L232.457 146.462Z" fill="white"/>
<path d="M193.572 138.084C196.815 138.084 199.445 135.455 199.445 132.211C199.445 128.968 196.815 126.338 193.572 126.338C190.328 126.338 187.699 128.968 187.699 132.211C187.699 135.455 190.328 138.084 193.572 138.084Z" fill="white"/>
<path d="M204.004 168.233C204.025 167.948 204.152 167.681 204.362 167.486C204.572 167.291 204.847 167.182 205.134 167.182C205.42 167.182 205.696 167.291 205.905 167.486C206.115 167.681 206.243 167.948 206.263 168.233C206.274 168.389 206.253 168.544 206.202 168.691C206.15 168.838 206.069 168.972 205.963 169.086C205.857 169.2 205.728 169.291 205.586 169.353C205.443 169.415 205.289 169.447 205.134 169.447C204.978 169.447 204.824 169.415 204.681 169.353C204.539 169.291 204.411 169.2 204.305 169.086C204.199 168.972 204.117 168.838 204.065 168.691C204.014 168.544 203.993 168.389 204.004 168.233V168.233Z" fill="#2E353A"/>
<path d="M214.327 166.152C214.352 166.574 214.289 166.996 214.142 167.392C213.996 167.788 213.769 168.15 213.475 168.453C213.181 168.757 212.828 168.996 212.437 169.155C212.046 169.315 211.626 169.392 211.203 169.38C210.853 169.397 210.503 169.338 210.178 169.207C209.852 169.076 209.559 168.876 209.318 168.622V171.54H207.502V163.017H209.254V163.735C209.5 163.461 209.804 163.246 210.145 163.105C210.485 162.965 210.853 162.903 211.221 162.924C211.642 162.914 212.06 162.992 212.45 163.153C212.839 163.313 213.191 163.553 213.483 163.856C213.775 164.159 214 164.52 214.146 164.916C214.291 165.311 214.353 165.732 214.327 166.152ZM212.488 166.152C212.458 165.844 212.34 165.551 212.147 165.308C211.954 165.066 211.695 164.884 211.401 164.787C211.107 164.689 210.791 164.678 210.491 164.756C210.191 164.835 209.921 164.998 209.712 165.227C209.504 165.457 209.366 165.741 209.317 166.047C209.267 166.353 209.307 166.667 209.432 166.95C209.557 167.234 209.762 167.475 210.022 167.644C210.281 167.813 210.584 167.903 210.894 167.904C211.118 167.906 211.34 167.862 211.545 167.773C211.75 167.684 211.934 167.552 212.085 167.386C212.235 167.221 212.349 167.025 212.419 166.813C212.488 166.6 212.512 166.375 212.488 166.152V166.152Z" fill="#2E353A"/>
<path d="M221.949 165.724V169.314H220.127V166.004C220.127 164.989 219.66 164.522 218.861 164.522C218.061 164.522 217.354 165.059 217.354 166.214V169.314H215.539V163.015H217.29V163.745C217.56 163.471 217.885 163.256 218.243 163.114C218.6 162.973 218.984 162.907 219.368 162.922C220.828 162.922 221.949 163.78 221.949 165.724Z" fill="#2E353A"/>
<path d="M230.129 163.017V168.236C230.129 170.571 228.868 171.64 226.626 171.64C225.535 171.685 224.458 171.382 223.55 170.776L224.274 169.474C224.918 169.937 225.693 170.184 226.486 170.18C227.765 170.18 228.325 169.596 228.325 168.47V168.201C228.07 168.465 227.762 168.672 227.42 168.806C227.079 168.941 226.713 169.002 226.346 168.984C225.543 168.984 224.772 168.664 224.204 168.096C223.636 167.528 223.317 166.757 223.317 165.954C223.317 165.15 223.636 164.38 224.204 163.811C224.772 163.243 225.543 162.924 226.346 162.924C226.737 162.902 227.128 162.971 227.488 163.126C227.848 163.281 228.166 163.518 228.419 163.817V163.017H230.129ZM228.331 165.936C228.355 165.605 228.278 165.274 228.11 164.988C227.943 164.701 227.693 164.471 227.394 164.328C227.094 164.185 226.758 164.136 226.43 164.187C226.102 164.238 225.797 164.386 225.554 164.613C225.312 164.84 225.143 165.135 225.071 165.459C224.998 165.783 225.025 166.121 225.148 166.43C225.271 166.738 225.483 167.003 225.759 167.189C226.034 167.374 226.359 167.473 226.691 167.472C226.9 167.488 227.11 167.46 227.308 167.391C227.506 167.322 227.688 167.213 227.842 167.071C227.996 166.928 228.119 166.756 228.203 166.563C228.287 166.371 228.331 166.164 228.331 165.954V165.936Z" fill="#2E353A"/>
<path d="M162.259 119.747H115.838C113.504 119.747 111.611 121.639 111.611 123.973V170.394C111.611 172.729 113.504 174.621 115.838 174.621H162.259C164.593 174.621 166.486 172.729 166.486 170.394V123.973C166.486 121.639 164.593 119.747 162.259 119.747Z" fill="#2E353A"/>
<path d="M164.892 146.462L155.815 133.677L141.752 155.125L127.455 149.591L115.441 169.666C115.218 170.041 115.097 170.468 115.092 170.904C115.087 171.34 115.197 171.769 115.412 172.149C115.626 172.529 115.938 172.844 116.314 173.065C116.69 173.285 117.118 173.401 117.554 173.403H160.666C161.787 173.403 162.862 172.957 163.654 172.165C164.447 171.372 164.892 170.297 164.892 169.176V146.462Z" fill="white"/>
<path d="M126.009 138.084C129.252 138.084 131.881 135.455 131.881 132.211C131.881 128.968 129.252 126.338 126.009 126.338C122.765 126.338 120.136 128.968 120.136 132.211C120.136 135.455 122.765 138.084 126.009 138.084Z" fill="white"/>
<path d="M139.129 168.288C139.129 167.958 139.26 167.642 139.493 167.409C139.727 167.175 140.043 167.044 140.373 167.044C140.702 167.044 141.019 167.175 141.252 167.409C141.485 167.642 141.616 167.958 141.616 168.288C141.616 168.451 141.584 168.613 141.521 168.764C141.459 168.915 141.367 169.052 141.252 169.167C141.136 169.283 140.999 169.374 140.848 169.437C140.698 169.499 140.536 169.531 140.373 169.531C140.209 169.531 140.048 169.499 139.897 169.437C139.746 169.374 139.609 169.283 139.493 169.167C139.378 169.052 139.286 168.915 139.224 168.764C139.161 168.613 139.129 168.451 139.129 168.288Z" fill="#2E353A"/>
<path d="M140.992 171.644L141.529 170.196C141.78 170.362 142.075 170.447 142.375 170.441C142.872 170.441 143.193 170.12 143.193 169.443V162.549H145.189V169.425C145.222 169.775 145.178 170.128 145.059 170.458C144.941 170.789 144.751 171.089 144.502 171.338C144.254 171.587 143.954 171.777 143.624 171.897C143.294 172.016 142.941 172.061 142.591 172.029C142.032 172.057 141.477 171.923 140.992 171.644V171.644ZM142.947 160.47C142.954 160.315 142.992 160.162 143.058 160.022C143.125 159.881 143.219 159.755 143.334 159.651C143.45 159.547 143.586 159.468 143.733 159.417C143.88 159.366 144.036 159.345 144.191 159.355C144.344 159.338 144.499 159.353 144.647 159.399C144.794 159.445 144.93 159.52 145.047 159.621C145.164 159.722 145.258 159.846 145.325 159.985C145.392 160.124 145.429 160.275 145.434 160.429C145.41 160.739 145.271 161.029 145.044 161.242C144.818 161.454 144.52 161.575 144.209 161.58C143.899 161.585 143.597 161.474 143.364 161.269C143.131 161.064 142.982 160.779 142.947 160.47V160.47Z" fill="#2E353A"/>
<path d="M154.541 165.994C154.57 166.458 154.501 166.922 154.341 167.358C154.18 167.794 153.93 168.191 153.607 168.525C153.284 168.859 152.895 169.122 152.465 169.298C152.035 169.473 151.573 169.557 151.109 169.544C150.723 169.563 150.338 169.498 149.981 169.354C149.623 169.21 149.301 168.99 149.036 168.709V171.925H147.04V162.55H148.943V163.344C149.213 163.041 149.548 162.804 149.923 162.649C150.298 162.494 150.704 162.426 151.109 162.451C151.572 162.438 152.034 162.522 152.464 162.697C152.893 162.872 153.282 163.134 153.605 163.467C153.928 163.8 154.178 164.197 154.339 164.632C154.5 165.067 154.569 165.531 154.541 165.994V165.994ZM152.521 165.994C152.491 165.656 152.363 165.335 152.153 165.068C151.943 164.801 151.66 164.602 151.338 164.493C151.017 164.384 150.671 164.371 150.342 164.456C150.013 164.54 149.716 164.718 149.487 164.968C149.257 165.218 149.105 165.529 149.05 165.864C148.994 166.199 149.037 166.543 149.173 166.854C149.309 167.165 149.532 167.429 149.815 167.616C150.099 167.802 150.431 167.902 150.77 167.903C151.014 167.904 151.255 167.854 151.479 167.757C151.702 167.659 151.903 167.516 152.068 167.336C152.233 167.156 152.358 166.944 152.436 166.713C152.514 166.482 152.543 166.237 152.521 165.994V165.994Z" fill="#2E353A"/>
<path d="M162.988 162.55V168.289C162.988 170.851 161.604 172.031 159.118 172.031C157.918 172.08 156.735 171.747 155.738 171.079L156.531 169.649C157.239 170.161 158.092 170.435 158.966 170.431C160.373 170.431 160.986 169.789 160.986 168.546V168.248C160.708 168.536 160.372 168.762 160.001 168.911C159.63 169.06 159.231 169.128 158.832 169.112C158.382 169.131 157.934 169.058 157.514 168.899C157.093 168.741 156.709 168.498 156.385 168.187C156.06 167.876 155.802 167.503 155.626 167.089C155.45 166.676 155.359 166.231 155.359 165.781C155.359 165.332 155.45 164.887 155.626 164.474C155.802 164.06 156.06 163.687 156.385 163.376C156.709 163.064 157.093 162.822 157.514 162.663C157.934 162.504 158.382 162.432 158.832 162.451C159.262 162.425 159.693 162.501 160.089 162.671C160.485 162.841 160.836 163.102 161.114 163.432V162.55H162.988ZM161.015 165.778C161.039 165.415 160.954 165.052 160.77 164.738C160.586 164.424 160.311 164.172 159.982 164.016C159.653 163.859 159.284 163.806 158.924 163.862C158.564 163.918 158.229 164.081 157.963 164.33C157.697 164.579 157.512 164.902 157.432 165.258C157.352 165.613 157.381 165.985 157.515 166.323C157.649 166.662 157.882 166.953 158.183 167.158C158.485 167.362 158.841 167.472 159.205 167.471C159.437 167.489 159.671 167.459 159.891 167.381C160.111 167.304 160.312 167.182 160.482 167.023C160.652 166.864 160.788 166.671 160.879 166.457C160.971 166.242 161.017 166.011 161.015 165.778V165.778Z" fill="#2E353A"/>
<path d="M145.296 106.589V60.1679C145.296 59.047 145.741 57.9719 146.534 57.1793C147.327 56.3867 148.402 55.9414 149.523 55.9414H195.944C197.065 55.9414 198.14 56.3867 198.932 57.1793C199.725 57.9719 200.17 59.047 200.17 60.1679V106.589C200.17 107.71 199.725 108.785 198.932 109.578C198.14 110.37 197.065 110.816 195.944 110.816H149.523C148.402 110.816 147.327 110.37 146.534 109.578C145.741 108.785 145.296 107.71 145.296 106.589Z" fill="#2E353A"/>
<path d="M155.632 88.0259C155.659 87.5675 155.859 87.1365 156.193 86.8212C156.527 86.506 156.968 86.3303 157.428 86.3303C157.887 86.3303 158.328 86.506 158.662 86.8212C158.996 87.1365 159.196 87.5675 159.223 88.0259C159.237 88.2703 159.2 88.5149 159.117 88.7448C159.033 88.9747 158.903 89.1851 158.735 89.363C158.567 89.5409 158.364 89.6826 158.139 89.7795C157.914 89.8764 157.672 89.9263 157.428 89.9263C157.183 89.9263 156.941 89.8764 156.716 89.7795C156.491 89.6826 156.288 89.5409 156.12 89.363C155.952 89.1851 155.822 88.9747 155.738 88.7448C155.655 88.5149 155.618 88.2703 155.632 88.0259Z" fill="white"/>
<path d="M160.31 84.7158C160.31 81.7211 162.645 79.5962 165.855 79.5962C167.945 79.5962 169.591 80.501 170.31 82.1239L168.074 83.3265C167.865 82.9133 167.545 82.5665 167.15 82.3251C166.755 82.0838 166.301 81.9575 165.838 81.9604C165.138 82.006 164.482 82.3161 164.002 82.8279C163.523 83.3396 163.256 84.0146 163.256 84.7158C163.256 85.4171 163.523 86.0921 164.002 86.6038C164.482 87.1155 165.138 87.4256 165.838 87.4712C166.302 87.4785 166.759 87.3533 167.155 87.1104C167.551 86.8674 167.87 86.5167 168.074 86.0994L170.31 87.3194C169.591 88.9131 167.974 89.8355 165.855 89.8355C162.621 89.8355 160.31 87.7106 160.31 84.7158Z" fill="white"/>
<path d="M171.017 88.7607L171.974 86.6941C173.02 87.3164 174.213 87.647 175.43 87.6515C176.761 87.6515 177.263 87.3012 177.263 86.7467C177.263 85.1179 171.256 86.7817 171.256 82.8121C171.256 80.9265 172.955 79.5955 175.856 79.5955C177.184 79.5681 178.498 79.8646 179.686 80.4595L178.722 82.5143C177.849 82.02 176.86 81.7643 175.856 81.7729C174.566 81.7729 174.011 82.1816 174.011 82.7011C174.011 84.3999 180.018 82.7537 180.018 86.6708C180.018 88.5213 178.267 89.8348 175.319 89.8348C173.815 89.8646 172.33 89.4939 171.017 88.7607V88.7607Z" fill="white"/>
<path d="M180.827 88.7607L181.785 86.6941C182.832 87.3164 184.028 87.6469 185.246 87.6515C186.577 87.6515 187.073 87.3012 187.073 86.7467C187.073 85.1179 181.066 86.7817 181.066 82.8121C181.066 80.9265 182.765 79.5955 185.667 79.5955C186.994 79.5681 188.309 79.8646 189.496 80.4595L188.533 82.5143C187.659 82.0195 186.671 81.7637 185.667 81.7729C184.376 81.7729 183.822 82.1816 183.822 82.7011C183.822 84.3999 189.829 82.7537 189.829 86.6708C189.829 88.5213 188.078 89.8348 185.159 89.8348C183.645 89.8692 182.149 89.4984 180.827 88.7607V88.7607Z" fill="white"/>
<path d="M145.296 234.313V187.909C145.296 186.788 145.741 185.713 146.534 184.92C147.327 184.128 148.402 183.682 149.523 183.682H195.944C197.065 183.682 198.14 184.128 198.933 184.92C199.725 185.713 200.17 186.788 200.17 187.909V234.33C200.17 234.885 200.061 235.435 199.849 235.948C199.636 236.46 199.325 236.926 198.933 237.319C198.54 237.711 198.074 238.023 197.561 238.235C197.049 238.447 196.499 238.557 195.944 238.557H149.523C148.966 238.557 148.415 238.447 147.901 238.233C147.387 238.02 146.921 237.707 146.528 237.313C146.135 236.918 145.824 236.45 145.613 235.936C145.401 235.421 145.294 234.869 145.296 234.313V234.313Z" fill="#2E353A"/>
<path d="M162.814 214.488C162.814 213.986 163.013 213.505 163.368 213.15C163.723 212.795 164.204 212.596 164.706 212.596C165.207 212.596 165.688 212.795 166.043 213.15C166.398 213.505 166.597 213.986 166.597 214.488C166.597 214.989 166.398 215.47 166.043 215.825C165.688 216.18 165.207 216.379 164.706 216.379C164.204 216.379 163.723 216.18 163.368 215.825C163.013 215.47 162.814 214.989 162.814 214.488V214.488Z" fill="white"/>
<path d="M165.639 219.596L166.456 217.396C166.838 217.647 167.289 217.775 167.746 217.763C168.505 217.763 168.989 217.279 168.989 216.246V205.738H172.031V216.222C172.031 218.645 170.612 220.18 168.073 220.18C167.222 220.224 166.377 220.021 165.639 219.596V219.596ZM168.622 202.597C168.628 202.359 168.683 202.125 168.783 201.909C168.882 201.693 169.025 201.5 169.202 201.341C169.379 201.182 169.587 201.061 169.812 200.985C170.037 200.909 170.276 200.879 170.513 200.898C171.646 200.898 172.404 201.599 172.404 202.539C172.375 203.016 172.167 203.464 171.821 203.794C171.475 204.124 171.018 204.312 170.54 204.319C170.062 204.326 169.599 204.153 169.243 203.834C168.888 203.515 168.666 203.073 168.622 202.597V202.597Z" fill="white"/>
<path d="M173.829 215.27L174.839 213.087C175.944 213.743 177.203 214.091 178.488 214.097C179.889 214.097 180.42 213.729 180.42 213.146C180.42 211.429 174.08 213.181 174.08 208.989C174.08 207.004 175.872 205.597 178.937 205.597C180.336 205.571 181.721 205.886 182.971 206.514L181.955 208.68C181.035 208.159 179.994 207.889 178.937 207.897C177.571 207.897 176.987 208.329 176.987 208.872C176.987 210.665 183.321 208.931 183.321 213.064C183.321 215.014 181.512 216.403 178.371 216.403C176.784 216.432 175.217 216.041 173.829 215.27V215.27Z" fill="white"/>
</svg>
