<svg width="335" height="340" viewBox="0 0 335 340" fill="none" xmlns="http://www.w3.org/2000/svg">
<path d="M160.163 11.2658C164.061 6.85729 170.939 6.85729 174.837 11.2658L185.811 23.6758C189.976 28.3865 196.81 29.6644 202.396 26.7773L217.1 19.178C222.326 16.4767 228.738 18.9603 230.782 24.4774L236.545 40.0395C238.728 45.9331 244.634 49.5915 250.883 48.9204L267.347 47.1522C273.193 46.5243 278.271 51.1526 278.187 57.0318L277.947 73.6538C277.856 79.9328 282.038 85.4726 288.102 87.1059L304.116 91.4195C309.789 92.9478 312.85 99.093 310.651 104.542L304.426 119.97C302.077 125.79 303.975 132.461 309.034 136.173L322.43 146.003C327.166 149.478 327.799 156.311 323.783 160.597L312.413 172.73C308.123 177.308 307.483 184.213 310.86 189.502L319.811 203.523C322.972 208.474 321.093 215.075 315.799 217.621L300.838 224.813C295.18 227.533 292.089 233.744 293.329 239.898L296.617 256.202C297.778 261.964 293.639 267.444 287.779 267.903L271.26 269.195C264.997 269.685 259.865 274.364 258.802 280.556L255.99 296.927C254.994 302.724 249.149 306.342 243.517 304.648L227.665 299.883C221.645 298.073 215.164 300.585 211.935 305.979L203.421 320.205C200.399 325.254 193.638 326.518 188.996 322.901L175.937 312.725C170.976 308.86 164.024 308.86 159.063 312.725L146.004 322.901C141.362 326.518 134.601 325.254 131.579 320.205L123.065 305.979C119.836 300.585 113.355 298.073 107.335 299.883L91.4832 304.648C85.8506 306.342 80.0062 302.724 79.0104 296.927L76.1982 280.556C75.1346 274.364 70.0034 269.685 63.7403 269.195L47.2206 267.903C41.3608 267.444 37.2216 261.964 38.3833 256.202L41.6708 239.898C42.9115 233.744 39.8198 227.533 34.1624 224.813L19.201 217.621C13.9066 215.075 12.0281 208.474 15.1891 203.523L24.1404 189.502C27.5167 184.213 26.8771 177.308 22.5867 172.73L11.2174 160.597C7.20115 156.311 7.83441 149.478 12.57 146.003L25.9657 136.173C31.0253 132.461 32.9227 125.79 30.5744 119.97L24.3489 104.542C22.1501 99.093 25.2106 92.9478 30.8842 91.4195L46.8981 87.1059C52.9616 85.4726 57.1436 79.9328 57.053 73.6538L56.8134 57.0318C56.7286 51.1526 61.8066 46.5243 67.6527 47.1522L84.1168 48.9204C90.3657 49.5915 96.2721 45.9331 98.4548 40.0396L104.218 24.4774C106.262 18.9603 112.674 16.4767 117.9 19.178L132.604 26.7773C138.19 29.6644 145.024 28.3865 149.189 23.6758L160.163 11.2658Z" stroke="white" stroke-width="3.93224"/>
<path d="M290.878 167.741C290.878 235.984 235.637 291.3 167.5 291.3C99.3636 291.3 44.1224 235.984 44.1224 167.741C44.1224 99.4986 99.3636 44.1825 167.5 44.1825C235.637 44.1825 290.878 99.4986 290.878 167.741Z" stroke="white" stroke-width="4.49399"/>
<path d="M257.332 224.957C256.621 226.313 255.613 227.201 254.311 227.619C253.017 228.041 251.703 227.902 250.371 227.201L243.21 223.433L244.521 220.934L250.862 224.27C251.813 224.771 252.67 224.923 253.431 224.726C254.196 224.541 254.799 224.028 255.24 223.187C255.681 222.346 255.78 221.502 255.536 220.655C255.3 219.813 254.715 219.145 253.779 218.652L247.462 215.329L248.773 212.829L255.114 216.166C256.065 216.667 256.922 216.819 257.683 216.622C258.448 216.437 259.051 215.924 259.492 215.083C259.933 214.242 260.032 213.398 259.788 212.551C259.553 211.708 258.967 211.041 258.031 210.548L251.714 207.224L253.026 204.725L264.422 210.722L263.123 213.197L261.731 212.465C262.454 213.827 262.405 215.29 261.585 216.853C261.135 217.709 260.549 218.383 259.826 218.873C259.107 219.376 258.326 219.658 257.484 219.721C258.407 221.26 258.356 223.005 257.332 224.957Z" fill="white"/>
<path d="M243.228 243.346L237.558 238.558C236.804 237.922 236.246 237.228 235.883 236.476C235.515 235.731 235.34 234.992 235.36 234.259C235.381 233.538 235.531 232.838 235.81 232.159C236.083 231.487 236.471 230.852 236.973 230.256C237.474 229.66 238.036 229.167 238.657 228.777C239.273 228.394 239.936 228.128 240.648 227.978C241.366 227.835 242.123 227.882 242.919 228.12C243.715 228.358 244.489 228.795 245.242 229.431L250.913 234.219L249.095 236.377L243.62 231.754C242.723 230.997 241.881 230.661 241.094 230.747C240.307 230.832 239.608 231.239 238.996 231.965C238.385 232.691 238.103 233.45 238.152 234.241C238.2 235.033 238.673 235.807 239.57 236.565L245.045 241.188L243.228 243.346Z" fill="white"/>
<path d="M241.486 253.994L236.355 247.837C236.486 249.352 235.882 250.669 234.541 251.789C233.366 252.771 232.097 253.207 230.734 253.096C229.376 252.992 228.216 252.362 227.252 251.205L222.07 244.986L224.235 243.177L228.823 248.683C229.511 249.509 230.245 249.977 231.023 250.085C231.801 250.207 232.554 249.963 233.282 249.354C234.011 248.745 234.424 248.003 234.521 247.127C234.625 246.258 234.338 245.417 233.661 244.604L229.09 239.119L231.255 237.31L243.65 252.184L241.486 253.994Z" fill="white"/>
<path d="M213.925 265.029L207.614 253.798L210.06 252.42L210.818 253.768C211.053 252.194 211.92 250.986 213.418 250.141C215.002 249.249 216.647 249.058 218.351 249.569C220.056 250.079 221.387 251.187 222.345 252.89C223.302 254.594 223.556 256.308 223.107 258.032C222.659 259.757 221.642 261.065 220.058 261.958C218.56 262.802 217.076 262.913 215.607 262.29L216.371 263.65L213.925 265.029ZM218.468 259.813C219.49 259.237 220.114 258.428 220.34 257.385C220.57 256.35 220.399 255.324 219.828 254.308C219.257 253.292 218.468 252.61 217.461 252.262C216.458 251.922 215.446 252.04 214.423 252.616C213.425 253.178 212.804 253.976 212.562 255.007C212.312 256.043 212.479 257.081 213.063 258.121C213.647 259.16 214.446 259.842 215.46 260.165C216.467 260.494 217.469 260.376 218.468 259.813Z" fill="white"/>
<path d="M201.658 270.345C200.208 270.838 198.867 270.787 197.635 270.193C196.406 269.607 195.549 268.601 195.066 267.174L192.468 259.508L195.14 258.6L197.44 265.388C197.785 266.407 198.301 267.107 198.988 267.489C199.67 267.882 200.46 267.926 201.359 267.621C202.258 267.315 202.911 266.771 203.317 265.99C203.727 265.216 203.762 264.328 203.422 263.327L201.131 256.564L203.802 255.656L207.936 267.857L205.29 268.756L204.785 267.266C204.371 268.751 203.329 269.777 201.658 270.345Z" fill="white"/>
<path d="M184.599 274.614C182.898 274.867 181.472 274.44 180.321 273.334L181.501 281.287L178.724 281.701L175.881 262.549L178.658 262.135L178.885 263.665C179.666 262.28 180.908 261.46 182.609 261.207C184.407 260.939 186.012 261.348 187.422 262.434C188.833 263.52 189.682 265.03 189.969 266.963C190.256 268.896 189.882 270.587 188.848 272.037C187.814 273.487 186.397 274.346 184.599 274.614ZM183.878 272.043C185.038 271.87 185.91 271.337 186.493 270.444C187.077 269.559 187.283 268.541 187.112 267.388C186.941 266.235 186.447 265.317 185.63 264.632C184.814 263.956 183.826 263.704 182.665 263.877C181.531 264.046 180.667 264.568 180.073 265.445C179.47 266.324 179.256 267.352 179.431 268.532C179.606 269.711 180.11 270.633 180.942 271.297C181.765 271.963 182.744 272.212 183.878 272.043Z" fill="white"/>
<path d="M168.563 275.582L168.387 262.703L171.209 262.664L171.384 275.543L168.563 275.582ZM171.464 281.405C171.093 281.795 170.63 281.994 170.075 282.002C169.52 282.009 169.047 281.823 168.656 281.443C168.266 281.063 168.067 280.595 168.059 280.039C168.052 279.484 168.238 279.015 168.618 278.633C168.998 278.252 169.466 278.057 170.021 278.049C170.576 278.042 171.045 278.224 171.426 278.595C171.807 278.966 172.002 279.43 172.009 279.985C172.017 280.541 171.835 281.014 171.464 281.405Z" fill="white"/>
<path d="M152.908 273.462L154.345 271.412C154.768 271.747 155.333 272.064 156.04 272.366C156.737 272.666 157.451 272.856 158.182 272.935C158.93 273.015 159.537 272.941 160.003 272.712C160.46 272.481 160.714 272.135 160.763 271.671C160.786 271.457 160.758 271.265 160.677 271.094C160.586 270.931 160.444 270.789 160.249 270.669C160.046 270.548 159.836 270.449 159.619 270.372C159.393 270.293 159.119 270.209 158.795 270.121L157.494 269.778C154.574 269.03 153.226 267.61 153.451 265.515C153.586 264.259 154.211 263.303 155.327 262.648C156.442 261.993 157.908 261.764 159.725 261.959C161.908 262.194 163.679 262.94 165.04 264.195L163.519 266.154C162.472 265.158 161.112 264.569 159.437 264.389C158.493 264.287 157.757 264.348 157.228 264.57C156.7 264.793 156.409 265.149 156.357 265.639C156.277 266.379 156.966 266.931 158.422 267.295L159.74 267.613C161.135 267.961 162.168 268.492 162.839 269.204C163.51 269.925 163.79 270.803 163.678 271.836C163.543 273.102 162.963 274.049 161.941 274.678C160.908 275.315 159.577 275.546 157.947 275.37C155.881 275.148 154.201 274.511 152.908 273.462Z" fill="white"/>
<path d="M143.357 279.143L147.61 260.26L150.363 260.881L146.11 279.765L143.357 279.143Z" fill="white"/>
<path d="M136.536 270.498L140.416 258.22L143.107 259.073L139.227 271.351L136.536 270.498ZM137.461 276.939C136.986 277.193 136.484 277.236 135.954 277.068C135.424 276.9 135.034 276.574 134.783 276.09C134.532 275.607 134.49 275.1 134.657 274.57C134.825 274.04 135.149 273.654 135.629 273.412C136.11 273.169 136.615 273.132 137.145 273.3C137.674 273.468 138.062 273.788 138.307 274.26C138.552 274.733 138.591 275.234 138.424 275.764C138.257 276.294 137.935 276.685 137.461 276.939Z" fill="white"/>
<path d="M125.396 273.246L130.09 262.89L128.805 262.306L122.918 265.004L119.7 263.541L127.109 260.251L124.966 251.792L128.209 253.266L129.871 259.986L131.144 260.565L133.385 255.619L135.955 256.787L127.965 274.414L125.396 273.246Z" fill="white"/>
<path d="M96.9418 247.296C95.7857 246.29 95.1534 245.104 95.0447 243.738C94.9302 242.38 95.3661 241.132 96.3525 239.996L101.655 233.887L103.784 235.741L99.0899 241.149C98.3853 241.961 98.0416 242.761 98.0588 243.548C98.0634 244.335 98.4241 245.041 99.1407 245.665C99.8573 246.289 100.655 246.579 101.535 246.537C102.408 246.502 103.191 246.085 103.884 245.287L108.561 239.898L110.69 241.752L105.996 247.161C105.291 247.973 104.948 248.772 104.965 249.559C104.97 250.347 105.33 251.052 106.047 251.676C106.763 252.3 107.561 252.591 108.441 252.549C109.314 252.513 110.097 252.096 110.79 251.298L115.467 245.91L117.596 247.764L109.159 257.485L107.05 255.649L108.08 254.461C106.591 254.851 105.18 254.466 103.848 253.307C103.118 252.672 102.597 251.945 102.286 251.128C101.962 250.311 101.866 249.486 101.997 248.65C100.29 249.195 98.605 248.743 96.9418 247.296Z" fill="white"/>
<path d="M81.8778 228.756L92.3969 221.086L94.4132 223.859L93.2517 224.706C94.771 224.786 96.013 225.489 96.9777 226.815C98.032 228.266 98.3866 229.865 98.0416 231.614C97.6914 233.356 96.7274 234.803 95.1498 235.953C93.5721 237.103 91.9018 237.578 90.1388 237.377C88.3705 237.168 86.9592 236.339 85.905 234.889C84.9456 233.569 84.6625 232.167 85.0557 230.682L83.8941 231.529L81.8778 228.756ZM88.1633 232.444C88.7537 233.256 89.5094 233.709 90.4304 233.803C91.3441 233.902 92.2135 233.651 93.0386 233.049C93.8636 232.448 94.3729 231.693 94.5664 230.787C94.7527 229.886 94.5506 229.029 93.9602 228.217C93.3751 227.412 92.6293 226.957 91.7228 226.853C90.8038 226.746 89.9245 226.999 89.085 227.611C88.2455 228.223 87.7389 228.981 87.5651 229.884C87.3788 230.786 87.5782 231.639 88.1633 232.444Z" fill="white"/>
<path d="M71.6806 223.55L81.8534 218.481L81.2252 217.217L74.9577 215.592L73.3842 212.425L81.2064 214.552L84.8798 206.637L86.4652 209.829L83.5158 216.091L84.138 217.343L88.9959 214.923L90.2523 217.452L72.937 226.079L71.6806 223.55Z" fill="white"/>
<path d="M69.4828 200.859L71.9056 200.056L73.4553 204.741L78.7726 202.977C79.5546 202.718 80.0736 202.347 80.3294 201.866C80.5767 201.387 80.6046 200.858 80.4132 200.28C80.1599 199.514 79.6119 198.784 78.7694 198.091L80.5484 196.325C81.7529 197.257 82.5705 198.374 83.0012 199.676C83.4685 201.089 83.4364 202.304 82.9049 203.321C82.3733 204.338 81.3085 205.111 79.7103 205.641L74.342 207.422L75.1485 209.86L72.7258 210.664L71.9193 208.226L68.2214 209.452L67.3347 206.771L71.0325 205.545L69.4828 200.859Z" fill="white"/>
<path d="M66.1018 183.879L78.803 181.796L79.2566 184.569L77.7319 184.819C79.127 185.58 79.9635 186.81 80.2413 188.509C80.535 190.305 80.1498 191.917 79.0855 193.345C78.0213 194.773 76.5257 195.645 74.5989 195.961C72.6721 196.277 70.9768 195.928 69.5132 194.915C68.0496 193.901 67.1709 192.497 66.8772 190.701C66.5994 189.002 67.0048 187.569 68.0933 186.4L66.5554 186.652L66.1018 183.879ZM69.4348 189.941C69.6243 191.1 70.1696 191.964 71.0705 192.534C71.9627 193.105 72.9832 193.297 74.1323 193.108C75.2813 192.92 76.192 192.411 76.8643 191.583C77.5278 190.757 77.7648 189.764 77.5752 188.605C77.39 187.473 76.8551 186.616 75.9703 186.035C75.0842 185.444 74.0533 185.245 72.8778 185.438C71.7022 185.631 70.7886 186.149 70.1368 186.991C69.4836 187.825 69.2496 188.808 69.4348 189.941Z" fill="white"/>
<path d="M65.3237 170.688C65.3603 168.869 66.0314 167.354 67.337 166.144C68.6426 164.933 70.2716 164.347 72.224 164.387C74.1764 164.426 75.7806 165.077 77.0364 166.339C78.2922 167.602 78.9018 169.143 78.8652 170.962C78.8307 172.673 78.1812 174.005 76.9167 174.957L78.4482 174.987L78.3916 177.797L59.0467 177.406L59.1032 174.597L67.1099 174.759C65.8847 173.757 65.2893 172.4 65.3237 170.688ZM67.9635 171.078C67.9404 172.225 68.3111 173.169 69.0757 173.911C69.8404 174.643 70.8184 175.022 72.0095 175.046C73.2007 175.07 74.193 174.731 74.9866 174.03C75.7804 173.32 76.1888 172.391 76.2119 171.244C76.2356 170.07 75.8604 169.122 75.0865 168.398C74.3037 167.674 73.3302 167.3 72.1659 167.276C71.0016 167.253 70.0183 167.587 69.2159 168.279C68.4046 168.971 67.9871 169.904 67.9635 171.078Z" fill="white"/>
<path d="M67.0208 155.898L79.7364 157.91L79.2965 160.698L66.5809 158.686L67.0208 155.898ZM60.7938 157.771C60.472 157.339 60.3543 156.848 60.4409 156.299C60.5275 155.75 60.7911 155.316 61.2316 154.995C61.6722 154.675 62.1668 154.558 62.7154 154.645C63.264 154.732 63.6941 154.995 64.0057 155.434C64.3173 155.874 64.4298 156.368 64.3432 156.917C64.2566 157.466 63.9982 157.897 63.5679 158.21C63.1376 158.523 62.6481 158.636 62.0995 158.549C61.5509 158.462 61.1156 158.203 60.7938 157.771Z" fill="white"/>
<path d="M135.065 171.983L131.447 181.822L101.796 151.933L105.107 142.928L147.033 139.433L143.415 149.272L112.989 150.923L135.065 171.983ZM201.647 146.236L147.16 198.474L137.06 194.75L191.547 142.512L201.647 146.236ZM202.192 170.946L205.81 161.106L235.46 190.995L232.149 200L190.224 203.496L193.841 193.656L224.268 192.006L202.192 170.946Z" fill="white"/>
<path d="M78.8079 129.245C77.7469 126.72 73.8534 124.286 73.8534 124.286C73.8534 124.286 73.3969 129.038 74.8696 131.448C76.037 133.359 79.2439 135.15 79.2439 135.15C79.2439 135.15 79.7032 131.377 78.8079 129.245Z" fill="white" stroke="white" stroke-width="0.981521"/>
<path d="M83.665 116.364C83.2284 113.66 80.0176 110.375 80.0176 110.375C80.0176 110.375 78.4553 114.886 79.3192 117.575C80.0041 119.707 82.699 122.205 82.699 122.205C82.699 122.205 84.0335 118.647 83.665 116.364Z" fill="white" stroke="white" stroke-width="0.981521"/>
<path d="M90.6901 104.125C90.7802 101.387 88.259 97.5457 88.259 97.5457C88.259 97.5457 85.8608 101.672 86.1929 104.478C86.4563 106.702 88.622 109.672 88.622 109.672C88.622 109.672 90.6141 106.436 90.6901 104.125Z" fill="white" stroke="white" stroke-width="0.981521"/>
<path d="M100.651 95.3948C101.369 92.7511 99.7998 88.4314 99.7998 88.4314C99.7998 88.4314 96.5165 91.8936 96.1942 94.7004C95.9386 96.9254 97.3629 100.315 97.3629 100.315C97.3629 100.315 100.046 97.6259 100.651 95.3948Z" fill="white" stroke="white" stroke-width="0.981521"/>
<path d="M112.253 86.4637C113.286 83.9269 112.253 79.4482 112.253 79.4482C112.253 79.4482 108.574 82.4854 107.913 85.2321C107.39 87.4096 108.392 90.9471 108.392 90.9471C108.392 90.9471 111.381 88.6046 112.253 86.4637Z" fill="white" stroke="white" stroke-width="0.981521"/>
<path d="M114.106 98.3344C116.555 99.5553 121.092 98.8569 121.092 98.8569C121.092 98.8569 118.342 94.9565 115.656 94.0921C113.527 93.4068 109.929 94.1442 109.929 94.1442C109.929 94.1442 112.039 97.3041 114.106 98.3344Z" fill="white" stroke="white" stroke-width="0.981521"/>
<path d="M105.483 105.316C108.177 105.793 112.331 103.837 112.331 103.837C112.331 103.837 108.591 100.875 105.771 100.808C103.535 100.754 100.293 102.481 100.293 102.481C100.293 102.481 103.21 104.913 105.483 105.316Z" fill="white" stroke="white" stroke-width="0.981521"/>
<path d="M97.6138 113.489C100.33 113.165 103.743 110.091 103.743 110.091C103.743 110.091 99.3077 108.338 96.5881 109.09C94.4322 109.685 91.827 112.277 91.827 112.277C91.827 112.277 95.3211 113.761 97.6138 113.489Z" fill="white" stroke="white" stroke-width="0.981521"/>
<path d="M92.3221 124.697C94.9914 124.097 98.0715 120.689 98.0715 120.689C98.0715 120.689 93.4807 119.4 90.8522 120.426C88.7685 121.24 86.4418 124.084 86.4418 124.084C86.4418 124.084 90.0693 125.203 92.3221 124.697Z" fill="white" stroke="white" stroke-width="0.981521"/>
<path d="M87.8974 135.761C90.4247 134.712 92.8762 130.826 92.8762 130.826C92.8762 130.826 88.1327 130.343 85.7187 131.805C83.8049 132.964 81.9993 136.166 81.9993 136.166C81.9993 136.166 85.7646 136.646 87.8974 135.761Z" fill="white" stroke="white" stroke-width="0.981521"/>
<path d="M266.307 180.999C268.555 179.438 273.145 179.476 273.145 179.476C273.145 179.476 270.984 183.732 268.45 184.974C266.442 185.959 262.776 185.747 262.776 185.747C262.776 185.747 264.41 182.317 266.307 180.999Z" fill="white" stroke="white" stroke-width="0.981521"/>
<path d="M269.114 167.514C270.932 165.467 275.401 164.42 275.401 164.42C275.401 164.42 274.303 169.066 272.133 170.871C270.413 172.303 266.8 172.962 266.8 172.962C266.8 172.962 267.581 169.242 269.114 167.514Z" fill="white" stroke="white" stroke-width="0.981521"/>
<path d="M269.744 153.411C271.135 151.052 275.321 149.165 275.321 149.165C275.321 149.165 275.133 153.936 273.35 156.125C271.936 157.861 268.518 159.203 268.518 159.203C268.518 159.203 268.57 155.402 269.744 153.411Z" fill="white" stroke="white" stroke-width="0.981521"/>
<path d="M266.014 140.688C266.825 138.072 270.463 135.27 270.463 135.27C270.463 135.27 271.379 139.956 270.147 142.497C269.171 144.512 266.153 146.607 266.153 146.607C266.153 146.607 265.33 142.897 266.014 140.688Z" fill="white" stroke="white" stroke-width="0.981521"/>
<path d="M261.009 126.918C261.496 124.223 264.768 120.999 264.768 120.999C264.768 120.999 266.246 125.538 265.331 128.211C264.607 130.33 261.865 132.776 261.865 132.776C261.865 132.776 260.598 129.194 261.009 126.918Z" fill="white" stroke="white" stroke-width="0.981521"/>
<path d="M253.555 136.354C250.834 136.068 247.38 133.041 247.38 133.041C247.38 133.041 251.79 131.227 254.52 131.941C256.684 132.507 259.325 135.062 259.325 135.062C259.325 135.062 255.851 136.595 253.555 136.354Z" fill="white" stroke="white" stroke-width="0.981521"/>
<path d="M256.619 146.469C254.09 145.424 251.633 141.541 251.633 141.541C251.633 141.541 256.375 141.052 258.792 142.51C260.707 143.666 262.518 146.865 262.518 146.865C262.518 146.865 258.753 147.351 256.619 146.469Z" fill="white" stroke="white" stroke-width="0.981521"/>
<path d="M258.881 157.59C256.762 155.857 255.53 151.429 255.53 151.429C255.53 151.429 260.211 152.333 262.104 154.428C263.604 156.09 264.414 159.676 264.414 159.676C264.414 159.676 260.67 159.052 258.881 157.59Z" fill="white" stroke="white" stroke-width="0.981521"/>
<path d="M257.342 169.897C255.41 167.957 254.637 163.426 254.637 163.426C254.637 163.426 259.202 164.805 260.87 167.083C262.193 168.889 262.632 172.54 262.632 172.54C262.632 172.54 258.971 171.535 257.342 169.897Z" fill="white" stroke="white" stroke-width="0.981521"/>
<path d="M255.147 181.611C253.577 179.368 253.59 174.771 253.59 174.771C253.59 174.771 257.851 176.913 259.105 179.444C260.099 181.45 259.907 185.122 259.907 185.122C259.907 185.122 256.473 183.504 255.147 181.611Z" fill="white" stroke="white" stroke-width="0.981521"/>
<path d="M144.367 68.0142C143.856 68.1159 143.393 68.0282 142.979 67.751C142.564 67.4739 142.306 67.0799 142.204 66.569C142.103 66.0582 142.191 65.5953 142.468 65.1803C142.745 64.7653 143.139 64.5069 143.65 64.4052C144.144 64.3067 144.599 64.3961 145.014 64.6732C145.428 64.9504 145.686 65.3444 145.788 65.8552C145.889 66.3661 145.801 66.829 145.524 67.244C145.247 67.659 144.861 67.9157 144.367 68.0142ZM146.109 69.543L148.814 83.1631L145.997 83.7243L143.292 70.1042L146.109 69.543Z" fill="white"/>
<path d="M158.251 82.0714C157.163 82.1598 156.168 82.0467 155.266 81.7322C154.38 81.3996 153.658 80.9188 153.102 80.2897C152.544 79.6438 152.214 78.9035 152.113 78.0689L155.076 77.8282C155.174 78.4103 155.49 78.8819 156.025 79.2431C156.576 79.5861 157.236 79.7264 158.006 79.6639C158.81 79.5986 159.417 79.3976 159.828 79.0608C160.254 78.7058 160.448 78.2856 160.408 77.7999C160.366 77.2807 160.084 76.9159 159.561 76.7055C159.056 76.4937 158.255 76.2806 157.159 76.0661C156.097 75.8657 155.229 75.658 154.555 75.4431C153.88 75.2282 153.277 74.8641 152.747 74.3508C152.234 73.8362 151.94 73.1267 151.867 72.2224C151.807 71.4855 151.971 70.7979 152.357 70.1596C152.742 69.5046 153.323 68.9686 154.098 68.5517C154.89 68.1333 155.813 67.8814 156.868 67.7957C158.442 67.6679 159.739 67.9672 160.758 68.6936C161.793 69.4019 162.4 70.44 162.578 71.8078L159.715 72.0403C159.614 71.4247 159.323 70.9511 158.841 70.6193C158.359 70.2876 157.733 70.153 156.963 70.2155C156.209 70.2767 155.643 70.466 155.265 70.7833C154.886 71.1006 154.715 71.4938 154.753 71.9627C154.783 72.3312 154.942 72.6301 155.23 72.8596C155.519 73.089 155.861 73.2635 156.259 73.383C156.655 73.4857 157.238 73.6153 158.009 73.7718C159.036 73.9582 159.878 74.1679 160.538 74.401C161.213 74.6159 161.806 74.9723 162.318 75.4702C162.83 75.968 163.131 76.6601 163.219 77.5463C163.283 78.3335 163.122 79.0546 162.737 79.7096C162.352 80.3646 161.772 80.9006 160.997 81.3175C160.238 81.7331 159.323 81.9844 158.251 82.0714Z" fill="white"/>
<path d="M180.519 68.4231L170.422 88.1045L167.458 87.8698L170.803 81.3583L166.428 67.3075L169.617 67.5601L172.678 78.422L177.555 68.1885L180.519 68.4231Z" fill="white"/>
<path d="M187.222 84.2096C186.162 83.9502 185.253 83.5289 184.496 82.9459C183.76 82.3505 183.227 81.6664 182.896 80.8936C182.57 80.1045 182.49 79.2977 182.657 78.4734L185.545 79.1799C185.454 79.7633 185.606 80.3108 186 80.8224C186.414 81.3216 186.996 81.663 187.747 81.8466C188.53 82.0382 189.17 82.0389 189.665 81.8488C190.182 81.6464 190.497 81.3084 190.613 80.835C190.736 80.3289 190.583 79.8935 190.154 79.5288C189.74 79.1682 189.047 78.7132 188.075 78.1639C187.131 77.6389 186.373 77.1679 185.8 76.7511C185.228 76.3342 184.77 75.7985 184.429 75.144C184.103 74.4934 184.048 73.7273 184.263 72.8457C184.438 72.1274 184.81 71.5262 185.377 71.0422C185.949 70.5419 186.668 70.2161 187.535 70.0648C188.418 69.9175 189.373 69.9696 190.401 70.2211C191.935 70.5963 193.071 71.2894 193.81 72.3006C194.569 73.2995 194.818 74.4762 194.557 75.831L191.767 75.1485C191.865 74.5324 191.738 73.9909 191.385 73.524C191.032 73.057 190.48 72.7317 189.73 72.5481C188.996 72.3685 188.399 72.3696 187.94 72.5514C187.48 72.7331 187.195 73.0526 187.084 73.5097C186.996 73.8689 187.053 74.2029 187.254 74.5116C187.455 74.8204 187.726 75.0941 188.065 75.3329C188.409 75.5553 188.921 75.8624 189.604 76.2543C190.519 76.755 191.253 77.2199 191.805 77.6492C192.378 78.066 192.829 78.5916 193.158 79.2258C193.487 79.86 193.555 80.6117 193.36 81.481C193.173 82.2484 192.793 82.8822 192.222 83.3825C191.65 83.8828 190.931 84.2086 190.064 84.3599C189.214 84.5151 188.267 84.465 187.222 84.2096Z" fill="white"/>
<path d="M203.147 76.8567L200.408 84.0409C200.222 84.5277 200.197 84.923 200.333 85.2269C200.491 85.521 200.844 85.773 201.393 85.983L203.04 86.6128L202.187 88.8505L200.069 88.0407C198.861 87.5789 198.043 86.9423 197.616 86.131C197.188 85.3198 197.217 84.2782 197.702 83.0062L200.441 75.822L198.911 75.2371L199.746 73.0465L201.276 73.6314L202.506 70.4043L205.212 71.439L203.982 74.6661L207.135 75.8717L206.3 78.0623L203.147 76.8567Z" fill="white"/>
<path d="M218.872 89.2587C218.624 89.7171 218.371 90.1151 218.112 90.4528L208.787 85.3999C208.333 86.4157 208.272 87.3954 208.602 88.3389C208.932 89.2824 209.57 90.0102 210.515 90.5223C211.873 91.2585 213.141 91.2093 214.317 90.3748L217.042 91.8511C216.065 92.7748 214.894 93.3349 213.528 93.5313C212.185 93.7209 210.797 93.4277 209.364 92.6515C208.198 92.0194 207.289 91.1925 206.639 90.1709C206.011 89.1426 205.686 88.0112 205.666 86.7768C205.669 85.5357 206.009 84.2867 206.688 83.0299C207.367 81.7731 208.214 80.8076 209.227 80.1333C210.263 79.4523 211.379 79.101 212.574 79.0796C213.784 79.0662 214.987 79.3835 216.183 80.0317C217.335 80.6558 218.225 81.4632 218.854 82.454C219.484 83.4449 219.802 84.5346 219.808 85.7234C219.823 86.8974 219.511 88.0759 218.872 89.2587ZM216.667 87.032C217.156 86.0925 217.227 85.1658 216.881 84.2519C216.535 83.3379 215.882 82.6209 214.922 82.1008C214.051 81.6287 213.153 81.5056 212.229 81.7314C211.313 81.9424 210.541 82.4891 209.911 83.3714L216.667 87.032Z" fill="white"/>
<path d="M239.485 96.7934C240.312 97.5062 240.902 98.3142 241.256 99.2176C241.621 100.132 241.698 101.086 241.487 102.079C241.288 103.084 240.778 104.064 239.956 105.02L234.616 111.234L232.46 109.375L237.52 103.486C238.331 102.543 238.715 101.62 238.671 100.717C238.638 99.8019 238.215 98.9932 237.401 98.2914C236.587 97.5897 235.719 97.2854 234.797 97.3786C233.899 97.4699 233.045 97.9872 232.234 98.9304L227.174 104.819L225.017 102.96L230.078 97.0718C230.888 96.1286 231.272 95.2057 231.228 94.3029C231.196 93.3873 230.772 92.5787 229.958 91.8769C229.144 91.1752 228.276 90.8709 227.354 90.964C226.457 91.0554 225.602 91.5727 224.792 92.5159L219.731 98.4045L217.556 96.5294L226.609 85.995L228.784 87.87L227.749 89.0745C228.478 88.9482 229.22 88.9997 229.975 89.229C230.73 89.4583 231.419 89.8416 232.043 90.3789C232.883 91.1026 233.48 91.928 233.835 92.855C234.19 93.7821 234.255 94.7369 234.03 95.7195C234.896 95.3563 235.825 95.2805 236.817 95.492C237.82 95.6907 238.709 96.1246 239.485 96.7934Z" fill="white"/>
</svg>
