<svg width="674" height="636" viewBox="0 0 674 636" fill="none" xmlns="http://www.w3.org/2000/svg">
<path d="M271.826 38.9542C270.67 27.1288 268.22 2.78244 267.665 0L41.6059 32.6937L38.1388 70.9523L200.402 130.775L4.16059 148.861L0 188.511L257.957 276.158L267.665 236.508L101.241 180.163L318.286 159.991V130.775L125.511 60.5182L271.826 38.9542Z" fill="#FFCF23"/>
<path d="M667.503 429.193C589.903 396.5 433.179 330.695 427.082 329.025L421.539 367.98L587.825 440.323L449.946 453.54V489.712L645.332 555.099L454.103 598.227L463.11 635.79L673.046 587.097V520.318L555.953 484.147L667.503 472.321V429.193Z" fill="#FFCF23"/>
</svg>
