<svg width="35" height="40" viewBox="0 0 35 40" fill="none" xmlns="http://www.w3.org/2000/svg">
<path fill-rule="evenodd" clip-rule="evenodd" d="M20.6548 3.17601C20.6548 4.93007 19.2503 6.35202 17.5177 6.35202C15.7851 6.35202 14.3805 4.93007 14.3805 3.17601C14.3805 1.42195 15.7851 0 17.5177 0C19.2503 0 20.6548 1.42195 20.6548 3.17601ZM6.27431 11.5549C6.27431 13.309 4.86976 14.7309 3.13716 14.7309C1.40455 14.7309 0 13.309 0 11.5549C0 9.80085 1.40455 8.37891 3.13716 8.37891C4.86976 8.37891 6.27431 9.80085 6.27431 11.5549ZM31.7959 14.7309C33.5285 14.7309 34.9331 13.309 34.9331 11.5549C34.9331 9.80085 33.5285 8.37891 31.7959 8.37891C30.0633 8.37891 28.6588 9.80085 28.6588 11.5549C28.6588 13.309 30.0633 14.7309 31.7959 14.7309ZM35.0006 28.4123C35.0006 30.1664 33.596 31.5883 31.8634 31.5883C30.1308 31.5883 28.7263 30.1664 28.7263 28.4123C28.7263 26.6583 30.1308 25.2363 31.8634 25.2363C33.596 25.2363 35.0006 26.6583 35.0006 28.4123ZM3.20468 31.5883C4.93728 31.5883 6.34184 30.1664 6.34184 28.4123C6.34184 26.6583 4.93728 25.2363 3.20468 25.2363C1.47208 25.2363 0.0675232 26.6583 0.0675232 28.4123C0.0675232 30.1664 1.47208 31.5883 3.20468 31.5883ZM20.6548 36.8244C20.6548 38.5785 19.2503 40.0005 17.5177 40.0005C15.7851 40.0005 14.3805 38.5785 14.3805 36.8244C14.3805 35.0704 15.7851 33.6484 17.5177 33.6484C19.2503 33.6484 20.6548 35.0704 20.6548 36.8244ZM24.6899 9.54406C25.8137 9.54406 26.7248 8.62171 26.7248 7.48394C26.7248 6.34617 25.8137 5.42383 24.6899 5.42383C23.566 5.42383 22.655 6.34617 22.655 7.48394C22.655 7.49283 22.655 7.5017 22.6551 7.51056L18.6864 9.84975C18.3657 9.63606 17.9817 9.51172 17.5691 9.51172C16.4452 9.51172 15.5342 10.4341 15.5342 11.5718C15.5342 11.6166 15.5356 11.6611 15.5384 11.7052L10.3798 14.7457L7.27656 12.9946L6.97133 13.7499L6.41173 14.5912L9.44714 16.3766V22.4115C9.3828 22.4483 9.32064 22.4886 9.26089 22.532L5.18705 20.1086C5.18948 20.0673 5.19071 20.0258 5.19071 19.9839C5.19071 18.8462 4.27965 17.9238 3.1558 17.9238C2.03195 17.9238 1.12088 18.8462 1.12088 19.9839C1.12088 21.1217 2.03195 22.0441 3.1558 22.0441C3.55427 22.0441 3.92599 21.9281 4.23983 21.7277L8.41224 24.1488C8.41172 24.168 8.41146 24.1873 8.41146 24.2066C8.41146 25.3444 9.32252 26.2667 10.4464 26.2667C10.8422 26.2667 11.2116 26.1523 11.5241 25.9544L16.5863 28.8918V32.497L17.1289 32.3596H17.8072L18.4177 32.497V28.8918L23.5261 25.8968C23.6056 25.9529 23.6891 26.0035 23.7763 26.0479V30.9493C23.1113 31.2881 22.655 31.9854 22.655 32.7906C22.655 33.9284 23.566 34.8507 24.6899 34.8507C25.8137 34.8507 26.7248 33.9284 26.7248 32.7906C26.7248 31.9803 26.2627 31.2793 25.5908 30.9428V26.0543C26.2627 25.7179 26.7248 25.0169 26.7248 24.2066C26.7248 23.3963 26.2627 22.6953 25.5908 22.3589V16.3594L28.6092 14.5568L28.2701 14.162L27.9648 13.5954L27.7105 12.9774L24.6412 14.7628L19.5897 11.8174C19.5991 11.7369 19.604 11.6549 19.604 11.5718C19.604 11.5313 19.6029 11.4911 19.6006 11.4512L23.5013 9.1563C23.8357 9.40031 24.2462 9.54406 24.6899 9.54406ZM18.5719 13.3648L23.7255 16.3076V22.3921C23.0881 22.74 22.655 23.4221 22.655 24.2066C22.655 24.2192 22.6551 24.2318 22.6553 24.2444L17.502 27.3292L12.4786 24.3139C12.4804 24.2784 12.4813 24.2426 12.4813 24.2066C12.4813 23.3757 11.9954 22.6597 11.2955 22.3339V16.3076L16.5022 13.3264C16.8124 13.5202 17.1778 13.6319 17.5691 13.6319C17.9337 13.6319 18.2759 13.5349 18.5719 13.3648ZM6.83567 9.2177C6.72827 9.0918 6.49312 8.80567 6.41173 8.66833L13.3643 4.59961L13.6526 5.30348L13.89 5.73267L14.2461 6.17903L7.27656 10.2306L7.07307 9.62972L6.83567 9.2177ZM30.9155 15.9817V24.0505L31.5938 23.9303H32.1703L32.7808 24.0505V15.9817L32.1703 16.1019H31.5938L30.9155 15.9817ZM13.5848 34.7974L13.3474 35.4326L6.39477 31.3296L6.78479 30.9004L7.07307 30.3854L7.31048 29.7502L14.2631 33.8361L13.8392 34.3682L13.5848 34.7974Z" fill="black"/>
</svg>
